<svg height="450pt" viewBox="0 0 450 450" width="450pt" xmlns="http://www.w3.org/2000/svg"><path d="m252.160156 197.839844c15.011719 15 15.011719 39.320312 0 54.320312-15 15.011719-39.320312 15.011719-54.320312 0-15.011719-15-15.011719-39.320312 0-54.320312 15-15.011719 39.320312-15.011719 54.320312 0zm-15.519531 38.800781c6.429687-6.429687 6.429687-16.851563 0-23.28125s-16.851563-6.429687-23.28125 0-6.429687 16.851563 0 23.28125 16.851563 6.429687 23.28125 0zm0 0" fill="#ffd8a8"/><path d="m206.507812 207.707031c14.019532-14.027343 36.179688-14.941406 51.261719-2.742187-1.550781-2.535156-3.414062-4.933594-5.609375-7.125-15-15.011719-39.320312-15.011719-54.320312 0-15.011719 15-15.011719 39.320312 0 54.320312.980468.980469 2.003906 1.894532 3.058594 2.746094-9.070313-14.792969-7.207032-34.390625 5.609374-47.199219zm0 0" fill="#eabd8c"/><path d="m225 0c124.261719 0 225 100.738281 225 225s-100.738281 225-225 225-225-100.738281-225-225 100.738281-225 225-225zm170.121094 225c0-93.960938-76.160156-170.121094-170.121094-170.121094s-170.121094 76.160156-170.121094 170.121094 76.160156 170.121094 170.121094 170.121094 170.121094-76.160156 170.121094-170.121094zm0 0" fill="#ffd8a8"/><path d="m236.5 411.582031c93.960938 0 170.121094-76.160156 170.121094-170.117187 0-39.808594-13.675782-76.417969-36.574219-105.398438 15.898437 25.878906 25.074219 56.332032 25.074219 88.933594 0 93.960938-76.160156 170.121094-170.121094 170.121094-54.152344 0-102.390625-25.304688-133.546875-64.726563 29.925781 48.707031 83.6875 81.1875 145.046875 81.1875zm0 0" fill="#eabd8c"/><path d="m11.5 241.464844c0-124.261719 100.738281-225 225-225 72.816406 0 137.546875 34.601562 178.667969 88.253906-39.890625-62.933594-110.148438-104.71875-190.167969-104.71875-124.261719 0-225 100.738281-225 225 0 51.441406 17.277344 98.84375 46.332031 136.746094-22.054687-34.792969-34.832031-76.046875-34.832031-120.28125zm0 0" fill="#eabd8c"/><path d="m225 54.878906c93.960938 0 170.121094 76.160156 170.121094 170.121094s-76.160156 170.121094-170.121094 170.121094-170.121094-76.160156-170.121094-170.121094 76.160156-170.121094 170.121094-170.121094zm27.160156 197.28125c15.011719-15 15.011719-39.320312 0-54.320312-15-15.011719-39.320312-15.011719-54.320312 0-15.011719 15-15.011719 39.320312 0 54.320312 15 15.011719 39.320312 15.011719 54.320312 0zm0 0" fill="#95a5a5"/><g fill="#7e8c8d"><path d="m68.878906 241.464844c0-93.960938 76.160156-170.121094 170.121094-170.121094 48.074219 0 91.484375 19.945312 122.425781 52.003906-31.019531-41.558594-80.574219-68.46875-136.425781-68.46875-93.960938 0-170.121094 76.160156-170.121094 170.121094 0 45.882812 18.167969 87.515625 47.695313 118.113281-21.164063-28.359375-33.695313-63.539062-33.695313-101.648437zm0 0"/><path d="m241.460938 225c0 9.089844-7.371094 16.460938-16.460938 16.460938s-16.460938-7.371094-16.460938-16.460938 7.371094-16.460938 16.460938-16.460938 16.460938 7.371094 16.460938 16.460938zm0 0"/><path d="m225 356.21875c-2.761719 0-5-2.238281-5-5s2.238281-5 5-5c66.839844 0 121.21875-54.378906 121.21875-121.21875 0-2.761719 2.238281-5 5-5s5 2.238281 5 5c0 72.355469-58.863281 131.21875-131.21875 131.21875zm0 0"/><path d="m98.78125 230c-2.761719 0-5-2.238281-5-5 0-72.355469 58.863281-131.21875 131.21875-131.21875 2.761719 0 5 2.238281 5 5 0 2.757812-2.238281 5-5 5-66.839844 0-121.21875 54.378906-121.21875 121.21875 0 2.761719-2.242188 5-5 5zm0 0"/><path d="m230.601562 320.96875c-2.761718 0-5-2.238281-5-5s2.238282-5 5-5c44.3125 0 80.367188-36.054688 80.367188-80.367188 0-2.761718 2.238281-5 5-5s5 2.238282 5 5c0 49.828126-40.539062 90.367188-90.367188 90.367188zm0 0"/><path d="m134.03125 224.398438c-2.761719 0-5-2.238282-5-5 0-49.828126 40.539062-90.367188 90.367188-90.367188 2.761718 0 5 2.238281 5 5 0 2.757812-2.238282 5-5 5-44.3125 0-80.367188 36.054688-80.367188 80.367188 0 2.761718-2.242188 5-5 5zm0 0"/></g></svg>