<svg height="507pt" viewBox="0 -2 507.08824 507" width="507pt" xmlns="http://www.w3.org/2000/svg"><g fill-rule="evenodd"><path d="m217.640625 452.320312c-1.949219.058594-3.6875-1.207031-4.230469-3.078124-.542968-1.867188.25-3.867188 1.925782-4.859376l4.265624-2.558593-17.066406 9.898437c-1.980468.992188-4.394531.300782-5.550781-1.589844-1.15625-1.890624-.675781-4.351562 1.113281-5.664062l134.058594-86.871094-163.070312 93.867188c-1.984376.992187-4.394532.304687-5.554688-1.585938-1.15625-1.894531-.671875-4.355468 1.117188-5.667968l120.320312-75.773438-141.144531 81.746094c-2.019531 1.152344-4.59375.472656-5.78125-1.527344-1.1875-2.003906-.550781-4.589844 1.429687-5.808594l81.238282-50.09375-88.574219 51.203125c-1.300781 1.03125-3.078125 1.21875-4.566407.480469-1.484374-.742188-2.40625-2.277344-2.359374-3.933594.046874-1.660156 1.046874-3.144531 2.570312-3.800781l132.867188-82.945313-137.132813 79.105469c-.96875.582031-2.132813.75-3.226563.457031-1.09375-.289062-2.023437-1.007812-2.574218-1.992187-1.179688-2.007813-.535156-4.589844 1.449218-5.804687l130.304688-80.980469-129.621094 74.835937c-2.007812 1.179688-4.589844.535156-5.804687-1.449218-.589844-.960938-.769531-2.113282-.496094-3.207032s.976563-2.027344 1.949219-2.597656l123.5625-76.796875-119.46875 69.03125c-2.035156 1.117187-4.585938.441406-5.800782-1.535156-1.179687-2.003907-.535156-4.585938 1.449219-5.800781l73.132813-44.800782-68.78125 39.765625c-2.050782 1.203125-4.683594.511719-5.886719-1.535156-1.203125-2.050781-.515625-4.6875 1.535156-5.890625l8.535157-4.949219-3.839844 2.21875c-1.984375.996094-4.394532.304688-5.554688-1.585937-1.15625-1.890625-.671875-4.355469 1.117188-5.667969l158.121094-99.15625-153.601563 88.917969c-.984375.714844-2.230469.976562-3.417969.714844-1.191406-.261719-2.214844-1.015626-2.808594-2.082032-.59375-.96875-.777343-2.140625-.503906-3.246094.273438-1.105468.976563-2.054687 1.953125-2.640624l133.972657-83.285157-129.621094 74.835938c-2.027344 1.167969-4.617188.480469-5.800782-1.535157-.589843-.957031-.769531-2.113281-.496093-3.207031.273437-1.089843.972656-2.027343 1.945312-2.59375l140.886719-87.808593-136.535156 78.847656c-.96875.582031-2.132813.75-3.226563.460937-1.09375-.289062-2.023437-1.011719-2.574219-1.996093-1.179687-2.007813-.535156-4.589844 1.449219-5.804688l74.667969-45.738281-70.316406 41.046875c-2.003906 1.179687-4.585938.535156-5.800782-1.453125-1.207031-2.007813-.601562-4.609375 1.363282-5.886719l167-105.984375-162.136719 93.867187c-1.980469.992188-4.394531.304688-5.550781-1.585937-1.15625-1.894531-.671875-4.355469 1.117187-5.667969l143.101563-90.707031-139.09375 80.382813c-2.027344 1.226562-4.660156.574218-5.886719-1.449219-1.226563-2.027344-.574219-4.664063 1.449219-5.890625l119.46875-75.179688-115.03125 66.136719c-1.980469.992187-4.394532.300781-5.550782-1.589844s-.671874-4.351562 1.113282-5.664062l119.980468-76.800781-115.542968 66.304687c-1.980469.992187-4.394532.300781-5.550782-1.589844s-.671874-4.351562 1.113282-5.664062l66.304687-41.898438-61.867187 35.667969c-1.980469.996094-4.394532.304688-5.550782-1.585938-1.15625-1.890624-.671874-4.355468 1.113282-5.667968l89.003906-58.28125-84.566406 48.8125c-1.894532 1.261718-4.453125.8125-5.800782-1.027344-1.167968-1.96875-.605468-4.503906 1.277344-5.800781l78.933594-53.332031-74.664062 43.089843c-2.003907 1.25-4.640626.640625-5.890626-1.363281-1.246093-2.003906-.636718-4.640625 1.367188-5.886719l55.210938-36.4375-50.433594 29.097657c-2.003906 1.179687-4.585938.535156-5.800782-1.449219-1.167968-1.972657-.605468-4.507813 1.277344-5.804688l23.382813-15.445312-18.859375 10.667969c-1.96875 1.09375-4.453125.5-5.714844-1.367188-1.296875-1.910156-.800781-4.503906 1.109375-5.800781l40.53125-28.757813-35.925781 20.734375c-1.976563 1.296875-4.632813.742188-5.929688-1.234375-1.296875-1.980468-.742187-4.636718 1.238282-5.933594l28.671874-21.160156-23.980468 13.824219c-1.882813 1.089844-4.285156.59375-5.574219-1.160156-1.292969-1.75-1.058594-4.191407.539063-5.667969l27.820312-25.601562-22.441406 12.972656c-1.832032 1.015625-4.125.585937-5.460938-1.023438-1.367187-1.597656-1.367187-3.953125 0-5.546875l11.261719-12.546875c-1.554687-.03125-2.992187-.828125-3.839844-2.132812-.582031-.96875-.75-2.132813-.460937-3.226563.289062-1.089843 1.011718-2.019531 1.996094-2.574219l19.371093-11.605468c1.828125-1.207032 4.269531-.839844 5.65625.855468 1.386719 1.695313 1.265625 4.164063-.28125 5.714844l-9.8125 11.265625 32.597657-18.773437c1.890624-1.097656 4.300781-.625 5.632812 1.109375 1.265625 1.78125 1.011719 4.230469-.597656 5.714843l-27.820313 25.601563 56.492188-32.597656c1.941406-1.042969 4.355469-.433594 5.574219 1.402343 1.214843 1.835938.835937 4.296876-.878907 5.679688l-28.671875 21.25 49.066406-28.332031c1.957032-1.1875 4.503907-.578125 5.714844 1.363281 1.203125 1.929688.71875 4.457031-1.109375 5.804688l-40.363281 28.925781 62.292969-35.921875c1.984375-.996094 4.398437-.304688 5.554687 1.585937s.671875 4.355469-1.117187 5.664063l-23.292969 15.445312 39.253906-22.695312c2-1.25 4.636719-.640625 5.886719 1.363281s.636719 4.640625-1.367187 5.886719l-54.953126 36.78125 76.117188-44.03125c2.003906-1.25 4.640625-.640625 5.886719 1.363281 1.25 2.003906.640625 4.640625-1.363281 5.886719l-78.761719 52.910156 104.277343-59.734375c1.980469-.996094 4.394532-.304687 5.550782 1.585937 1.15625 1.890626.671875 4.355469-1.117188 5.667969l-89.511718 57.855469 113.578124-65.535156c1.980469-.996094 4.394532-.304688 5.550782 1.585937s.671875 4.355469-1.113282 5.664063l-66.304687 41.902344 85.332031-49.152344c1.984375-.996094 4.394532-.304688 5.554688 1.585937 1.15625 1.890625.671875 4.355469-1.117188 5.664063l-119.464844 76.800781 145.75-84.050781c1.960938-.851563 4.25-.113282 5.351563 1.71875 1.097656 1.835937.671875 4.199218-1 5.53125l-118.957031 75.179687 141.996094-81.917969c1.980468-.996093 4.394531-.304687 5.550781 1.585938s.671875 4.355469-1.113281 5.667969l-143.617188 90.621093 157.183594-90.707031c1.984375-.996093 4.394531-.304687 5.554687 1.585938 1.15625 1.890625.671875 4.355469-1.117187 5.667969l-166.910156 105.554687 172.371093-99.496094c2.03125-1.167969 4.617188-.480469 5.804688 1.535157 1.179687 2.003906.535156 4.585937-1.449219 5.800781l-74.667969 45.738281 72.875-42.066406c.953125-.582032 2.105469-.746094 3.1875-.457032 1.078125.292969 1.992188 1.011719 2.527344 1.992188 1.195313 1.984375.589844 4.558594-1.363281 5.800781l-140.886719 87.722657 136.535156-78.933594c2.003907-1.179688 4.585938-.535156 5.800781 1.453125.589844.957031.769532 2.113281.496094 3.207031-.273437 1.089844-.972656 2.027344-1.945312 2.59375l-133.972656 83.285156 129.621093-74.835937c2.027344-1.226563 4.660157-.578125 5.886719 1.449219 1.226562 2.027343.578125 4.664062-1.449219 5.890624l-158.210937 99.328126 153.601562-89.003907c2.035156-1.117187 4.585938-.441406 5.804688 1.535157 1.179687 2.007812.53125 4.589843-1.453125 5.804687l-8.53125 5.03125 3.839843-2.300781c2.035157-1.117188 4.585938-.441406 5.800782 1.535156 1.179687 2.003906.535156 4.585938-1.449219 5.800781l-73.214844 44.886719 68.863281-39.765625c2.003907-1.179687 4.585938-.535156 5.800782 1.449219 1.1875 2.035156.546875 4.640625-1.449219 5.890625l-123.476563 76.800781 119.464844-68.78125c2.023438-1.152344 4.59375-.46875 5.78125 1.53125 1.1875 2.003906.550782 4.585938-1.429687 5.808594l-129.535157 80.554687 125.867188-72.617187c2.003906-1.183594 4.585938-.535156 5.800781 1.449218.589844.957032.769531 2.113282.496094 3.207032-.273437 1.089844-.972656 2.027344-1.945313 2.59375l-133.207031 83.371094 128.597657-74.324219c2.035156-1.117188 4.589843-.441407 5.804687 1.535156 1.179687 2.007813.535156 4.589844-1.453125 5.804687l-81.234375 49.917969 76.796875-44.371093c2.027344-1.226563 4.664062-.578126 5.890625 1.449218 1.222656 2.027344.574219 4.664063-1.453125 5.886719l-120.0625 75.4375 115.710938-66.816406c2.015624-1.132813 4.5625-.496094 5.804687 1.449219 1.195313 1.984374.589844 4.558593-1.367187 5.804687l-134.144532 86.867187 129.707032-74.921874c2.035156-1.117188 4.589843-.441407 5.804687 1.535156 1.179687 2.007812.535156 4.589844-1.453125 5.804687l-4.351562 2.730469c1.984374-.996094 4.394531-.304688 5.554687 1.585938 1.15625 1.890624.671875 4.355468-1.117187 5.667968l-98.304688 64.253906 93.867188-54.1875c1.984374-.992187 4.394531-.300781 5.554687 1.589844 1.15625 1.890625.671875 4.351563-1.117187 5.664063l-59.730469 38.65625 55.378906-32c2.011719-1.132813 4.558594-.496094 5.804687 1.449219 1.210938 1.964843.644532 4.535156-1.28125 5.804687l-53.417968 34.730469 48.46875-27.988282c1.972656-1.097656 4.453125-.503906 5.71875 1.363282 1.292968 1.910156.796875 4.507812-1.109375 5.804687l-68.867188 48.382813 64.257813-37.121094c1.972656-1.09375 4.453125-.5 5.71875 1.367188 1.292968 1.910156.796875 4.503906-1.109375 5.800781l-50.09375 36.183593 45.484375-26.285156c1.296875-.804687 2.921875-.863281 4.269531-.144531s2.210937 2.101563 2.261719 3.628906c.054687 1.523438-.714844 2.960938-2.007813 3.769531l-3.328125 2.21875c1.75-.363281 3.542969.382813 4.523438 1.878907 1.207031 1.878906.761718 4.371093-1.027344 5.714843l-19.027344 14.167969 14.335938-8.535156c1.839844-1.0625 4.183594-.609375 5.492187 1.066406 1.3125 1.675781 1.1875 4.058594-.285156 5.589844l-22.019531 23.039063 15.703125-9.042969c.96875-.585938 2.132812-.75 3.226562-.460938 1.09375.289063 2.023438 1.007813 2.574219 1.996094 1.175781 2.054687.492188 4.667969-1.535156 5.886719l-43.09375 24.664062c-1.824219 1.050782-4.140625.617188-5.460938-1.027344-1.414062-1.609374-1.414062-4.019531 0-5.628906l22.957032-22.359375-51.203126 29.441407c-1.957031 1.1875-4.503906.578124-5.714843-1.367188-1.210938-1.878906-.761719-4.371094 1.023437-5.714844l19.027344-14.167968-36.691406 20.824218c-1.992188 1.148438-4.53125.550782-5.804688-1.367187-1.210937-1.960938-.644531-4.53125 1.28125-5.800781l.9375-.683594-13.652344 7.851562c-1.964843 1.136719-4.476562.539063-5.714843-1.367187-1.203125-1.925781-.71875-4.453125 1.109375-5.800781l50.003906-36.097657-75.007812 43.265625c-1.964844 1.136719-4.480469.539063-5.71875-1.367187-1.226563-1.941407-.699219-4.503907 1.195312-5.800781l68.777344-48.386719-96.167969 55.554687c-2.007813 1.179688-4.589844.53125-5.804687-1.453125-1.164063-1.96875-.605469-4.503906 1.28125-5.800781l52.90625-34.644531-72.617188 41.898437c-1.984375.992188-4.394531.300782-5.554688-1.589844-1.15625-1.890624-.671874-4.351562 1.117188-5.664062l59.730469-38.65625-79.445313 45.910156c-1.980468.992188-4.394531.300782-5.550781-1.589844-1.15625-1.890624-.671875-4.351562 1.113281-5.664062l98.304688-64.425781-123.988282 71.679687c-.589843.363282-1.269531.570313-1.960937.597656zm0 0" fill="#fab153"/><path d="m354.511719 246.835938c-1.085938.003906-2.128907-.425782-2.898438-1.195313-1.382812-1.253906-1.765625-3.273437-.941406-4.949219l3.925781-8.53125-11.519531 6.65625c-1.804687 1.003906-4.066406.570313-5.375-1.027344-1.351563-1.566406-1.351563-3.890624 0-5.460937l7.851563-9.300781-14.421876 8.535156c-1.886718 1.066406-4.269531.550781-5.546874-1.195312-1.316407-1.726563-1.09375-4.171876.511718-5.632813l8.535156-7.851563-13.996093 8.023438c-1.917969 1.144531-4.398438.582031-5.632813-1.28125-1.246094-1.835938-.875-4.324219.855469-5.71875l3.667969-2.984375-7.765625 4.523437c-1.925781 1.101563-4.371094.542969-5.632813-1.28125-1.289062-1.828124-.914062-4.347656.855469-5.71875l10.921875-8.53125-17.066406 9.8125c-1.945313 1.15625-4.453125.59375-5.71875-1.28125-1.21875-1.90625-.773438-4.425781 1.023437-5.800781l13.226563-10.15625-78.078125 45.140625c-1.988281 1.125-4.507813.484375-5.71875-1.449218-.605469-.9375-.808594-2.078126-.570313-3.167969.242188-1.089844.90625-2.039063 1.851563-2.632813l2.816406-1.878906c-2.03125.582031-4.183594-.410156-5.058594-2.332031s-.210937-4.199219 1.558594-5.347657l39.765625-26.964843-35.414062 20.050781c-1.96875 1.125-4.476563.511719-5.703126-1.398438-1.226562-1.90625-.746093-4.441406 1.097657-5.769531l66.984375-48.210937-62.378906 36.011718c-1.972657 1.09375-4.453126.5-5.714844-1.367187-1.296875-1.910156-.800782-4.503906 1.109375-5.800781l60.925781-43.179688-56.320312 32.511719c-1.980469 1.171875-4.535157.523437-5.714844-1.453125-1.230469-1.9375-.703125-4.503906 1.191406-5.800781l28.503906-19.199219-23.980468 13.824219c-1.980469 1.171875-4.535157.523437-5.714844-1.453125-1.230469-1.9375-.703125-4.503906 1.191406-5.800782l3.414062-2.21875c-1.730468.378907-3.519531-.328124-4.523437-1.792968-1.265625-1.816406-.929687-4.300782.769531-5.714844l37.800782-30.722656-32.9375 19.03125c-1.910157 1.195312-4.425782.621094-5.632813-1.28125-1.246094-1.835938-.875-4.324219.855469-5.71875l10.921875-8.359375-6.058594 3.496093c-1.808594 1.136719-4.1875.691407-5.460937-1.023437-1.332032-1.609375-1.332032-3.9375 0-5.546875l12.117187-13.140625-6.828125 3.925781c-1.421875.9375-3.269531.9375-4.691406 0-1.347656-1.046875-1.980469-2.769531-1.621094-4.4375l2.558594-10.410156c-.878906-.328125-1.605469-.964844-2.046875-1.792969-.582031-.96875-.75-2.132812-.460938-3.226562.289063-1.09375 1.011719-2.023438 1.996094-2.578125l4.265625-2.472656c1.425781-.9375 3.269531-.9375 4.695312 0 1.367188 1.03125 2 2.769531 1.621094 4.4375l-1.964844 8.105468 22.359376-12.882812c1.828124-1.019532 4.125-.585938 5.460937 1.023437 1.367187 1.59375 1.367187 3.949219 0 5.546875l-12.289063 13.140625 34.132813-19.882812c1.957031-1.320313 4.613281-.804688 5.933594 1.152343 1.320312 1.957032.800781 4.609376-1.152344 5.929688l-10.839844 8.535156 26.96875-15.617187c1.917969-1.148438 4.398438-.582031 5.628907 1.28125 1.292968 1.824219.917968 4.34375-.851563 5.714843l-37.460937 30.722657 65.363281-37.804688c2.015625-1.132812 4.5625-.496093 5.804687 1.449219 1.210938 1.964844.644532 4.535156-1.28125 5.804688l-1.28125.851562 14.082032-8.105469c1.296874-.808593 2.921874-.863281 4.269531-.144531 1.347656.71875 2.210937 2.101562 2.261719 3.625.054687 1.527344-.714844 2.964844-2.007813 3.773438l-28.503906 19.285156 30.890625-17.921875c1.988281-1.121094 4.507812-.484375 5.71875 1.453125.617187.902344.847656 2.015625.636718 3.089844-.207031 1.074218-.835937 2.019531-1.746093 2.625l-60.929688 43.179687 56.320313-32.511719c1.972656-1.09375 4.453125-.503906 5.71875 1.367188 1.292968 1.90625.796875 4.503906-1.109375 5.800781l-66.988281 48.214844 62.378906-36.011719c2.003906-1.25 4.640625-.636719 5.890625 1.367188 1.246093 2 .636719 4.636718-1.367188 5.886718l-39.679687 27.390625 35.15625-20.308593c2.015625-1.132813 4.5625-.496094 5.804687 1.449218 1.195313 1.984375.589844 4.5625-1.367187 5.804688l-3.328125 2.21875c1.945312-.4375 3.933593.527344 4.789062 2.324218.859375 1.796876.359375 3.949219-1.203125 5.183594l-13.226562 10.15625 8.53125-4.949218c1.925781-1.101563 4.375-.546876 5.632812 1.277343 1.292969 1.828125.914063 4.347657-.851562 5.71875l-10.921875 8.191407 6.140625-3.582032c1.925781-1.101562 4.375-.546875 5.632812 1.277344 1.277344 1.84375.945313 4.355469-.765625 5.804688l-4.097656 3.242187c1.90625-.640625 4 .132813 5.027344 1.863281 1.027343 1.726563.710937 3.9375-.761719 5.304688l-8.53125 7.851562 3.328125-1.964844c1.804687-1.058593 4.109375-.65625 5.445313.957032 1.335937 1.609375 1.308593 3.953125-.070313 5.53125l-7.765625 9.300781 2.390625-1.453125c1.625-.925781 3.667969-.683594 5.035156.597656 1.382813 1.257813 1.765625 3.277344.9375 4.949219l-4.523437 9.386719c1.457031.054687 2.785156.863281 3.5 2.132812 1.171875 2.054688.488281 4.671875-1.535156 5.890625l-9.046876 5.203125c-.574218.429688-1.253906.691406-1.964843.769532zm0 0" fill="#ffd67b"/><path d="m47.226562 503.261719c-1.339843-.011719-2.597656-.640625-3.410156-1.707031-1.378906-1.625-1.378906-4.007813 0-5.628907l21.246094-21.25-36.609375 21.332031c-1.96875 1.097657-4.453125.503907-5.714844-1.363281-1.210937-1.878906-.761719-4.375 1.023438-5.71875l7.59375-5.714843-10.75 6.140624c-1.882813.863282-4.113281.253907-5.289063-1.449218-1.175781-1.703125-.960937-4.003906.507813-5.460938l21.335937-17.066406-23.722656 13.652344c-1.898438 1.164062-4.371094.640625-5.632812-1.195313-1.265626-1.816406-.933594-4.296875.765624-5.714843l24.75-20.652344-23.894531 13.910156c-1.945312 1.15625-4.453125.59375-5.71875-1.28125-1.269531-1.847656-.855469-4.371094.941407-5.714844l8.53125-6.402344-2.902344 1.621094c-1.839844 1.0625-4.183594.609375-5.492188-1.066406s-1.1875-4.058594.289063-5.589844l13.652343-14.421875c-1.660156.039063-3.195312-.894531-3.925781-2.386719-1.171875-2.054687-.492187-4.667968 1.535157-5.890624l21.847656-12.542969c1.808594-1.132813 4.183594-.6875 5.460937 1.023437 1.367188 1.597656 1.367188 3.949219 0 5.546875l-12.628906 12.972657 30.378906-17.066407c1.910157-1.195312 4.425781-.625 5.632813 1.277344 1.269531 1.851563.855468 4.375-.941406 5.71875l-8.53125 6.398437 13.652343-7.933593c1.929688-1.0625 4.347657-.511719 5.632813 1.277343 1.265625 1.816407.933594 4.300782-.769532 5.71875l-24.234374 20.308594 29.867187-17.066406c1.929687-1.058594 4.347656-.507812 5.632813 1.28125 1.257812 1.863281.886718 4.378906-.855469 5.800781l-21.332031 17.066407 21.929687-12.628907c1.972656-1.09375 4.453125-.5 5.71875 1.367188 1.066406 1.882812.550781 4.269531-1.195313 5.546875l-7.59375 5.800781 4.863282-2.816406c1.835937-1.074219 4.1875-.59375 5.460937 1.109375 1.441407 1.570312 1.441407 3.980468 0 5.546875l-21.164062 21.335937 11.007812-6.402344c.972657-.582031 2.132813-.75 3.226563-.457031 1.09375.289063 2.023437 1.007813 2.578125 1.992188 1.171875 2.054687.492187 4.671875-1.535157 5.890625l-39.082031 22.355468c-.644531.398438-1.382812.605469-2.136719.597657zm0 0" fill="#636c77"/><path d="m324.21875 346.335938v68.265624c0 6.65625 12.628906 4.863282 12.628906-.855468v-67.839844c0-7.082031-12.628906-5.289062-12.628906.429688zm0 0" fill="#262626"/><path d="m358.4375 346.335938v51.199218c0 6.484375 12.460938 4.691406 12.460938-.855468v-50.773438c0-6.910156-12.460938-5.117188-12.460938.429688zm0 0" fill="#262626"/><path d="m392.570312 346.589844v51.199218c0 5.71875 12.460938 3.414063 12.460938-1.363281v-51.199219c0-5.71875-12.460938-3.414062-12.460938 1.363282zm0 0" fill="#262626"/><path d="m426.789062 347.527344v68.269531c0 3.328125 12.289063 1.195313 12.289063-3.242187v-68.269532c0-3.328125-12.289063-1.191406-12.289063 3.242188zm0 0" fill="#262626"/><path d="m264.570312 410.164062h-102.398437c-5.289063 0-12.886719 8.019532-4.609375 8.019532h102.402344c5.289062 0 12.882812-8.019532 4.605468-8.019532zm0 0" fill="#262626"/><path d="m165.585938 337.375 5.203124-5.121094v49.578125c0 3.074219 12.289063 1.023438 12.289063-3.242187v-44.117188l5.121094 5.035156c2.304687 2.304688 13.652343-2.21875 11.605469-4.265624l-17.066407-17.066407c-.511719-3.585937-10.667969.851563-11.863281 2.046875l-17.066406 17.066406c-2.472656 3.414063 9.21875 2.476563 11.777344.085938zm0 0" fill="#262626"/><path d="m251.003906 318.003906c-1.707031-3.242187-8.53125-1.109375-10.835937.9375-5.71875 5.71875-11.4375 11.351563-17.066407 17.066406-5.632812 5.71875 6.738282 6.058594 10.066407 2.730469l5.804687-5.800781v47.785156c0 5.71875 12.457032 3.414063 12.457032-1.363281v-44.628906l5.121093 5.035156c3.070313 3.070313 14.761719-1.539063 11.433594-4.78125-5.714844-5.714844-11.261719-11.347656-16.980469-16.980469zm0 0" fill="#262626"/></g><path d="m2.683594 8.753906c35.753906 14.253906 40.023437 22.019532 40.023437 57.175782v347.304687c-23.839843 1.648437-42.414062 21.332031-42.6679685 45.226563 0 58.539062 87.2968755 53.847656 96.8515625 3.074218h52.910156c7.300781.425782 14.625.425782 21.929688 0h328.960937c7.167969 0 9.386719-9.386718 1.023438-9.386718h-37.460938c22.953125-17.066407 17.578125-52.738282 17.578125-83.542969v-189.523438c0-35.839843 7.167969-79.191406-39.851562-85.335937-42.667969-5.375-89.34375 0-132.265625 0-51.203125 0-104.109375-4.265625-154.964844 0-41.644531 3.5-43.777344 34.136718-43.777344 68.269531v185.941406c0 27.476563-10.15625 82.261719 14.335938 104.191407h-27.820313c-2.128906-22.050782-20.515625-38.964844-42.664062-39.253907v-244.394531c0-40.703125 1.621093-81.835938 0-122.453125-1.195313-31.148437-17.066407-34.132813-45.3125-45.652344-4.863281-2.050781-14.082031 5.460938-6.828125 8.359375zm355.839844 118.699219v48.214844c0 4.351562 0 71.425781-1.875 72.363281-16.554688-10.496094-37.890626-30.976562-57.6875-31.488281-7.59375.234375-14.890626 3-20.734376 7.851562-5.804687 3.496094-34.132812 26.792969-40.277343 24.914063-9.8125-2.984375-3.671875-65.535156-3.671875-74.066406v-72.277344h124.84375c.628906 8.160156.429687 16.367187-.597656 24.488281zm-235.09375 268.289063v-152.234376c0-33.367187-7.847657-77.738281 0-110.421874 9.898437-41.128907 65.539062-31.914063 98.5625-30.207032v76.03125c0 14.25-8.535157 64.511719 4.949218 73.984375 13.480469 9.472657 44.457032-17.066406 54.269532-23.382812 15.359374-9.46875 12.375-8.53125 27.050781 0l37.546875 23.296875h.511718c30.722657 6.144531 24.234376-25.597656 24.234376-46.421875v-103.421875h19.714843c15.054688-1.109375 30.171875-1.109375 45.226563 0 29.183594 4.523437 32.253906 21.757812 33.535156 44.96875 2.730469 52.992187 0 106.839844 0 159.832031 0 26.367187 17.917969 135.847656-26.539062 144.382813h-291.15625c-31.660157-7.339844-27.90625-32.511719-27.90625-56.40625zm-37.972657 62.71875c-1.363281 25.601562-23.636719 47.789062-50.261719 34.136718-13.894531-7.320312-22.644531-21.675781-22.78125-37.378906-.28125-18.652344 13.027344-34.746094 31.402344-37.972656 2.59375 1.679687 5.9375 1.679687 8.53125 0 2.941406.492187 5.808594 1.351562 8.535156 2.558594 14.898438 7.136718 24.4375 22.136718 24.574219 38.65625zm0 0" fill="#262626"/></svg>