
<svg height="505pt" viewBox="-23 0 505 505.10573" width="505pt" xmlns="http://www.w3.org/2000/svg"><g fill-rule="evenodd"><path d="m170.496094 460.050781c-1.492188-.007812-2.878906-.78125-3.667969-2.050781-1.195313-1.980469-.589844-4.558594 1.363281-5.800781l17.066406-10.582031-31.230468 17.835937c-1.980469.992187-4.394532.304687-5.550782-1.589844-1.15625-1.890625-.671874-4.351562 1.113282-5.664062l46.847656-29.695313-64.085938 36.949219c-1.980468.992187-4.394531.304687-5.550781-1.589844-1.15625-1.890625-.671875-4.351562 1.113281-5.664062l90.371094-57.941407-109.570312 63.230469c-1.984375 1.125-4.503906.484375-5.714844-1.449219-.605469-.9375-.8125-2.078124-.570312-3.167968.238281-1.089844.90625-2.039063 1.847656-2.632813l132.269531-86.019531-142.851563 82.433594c-.96875.582031-2.132812.75-3.226562.460937-1.089844-.289062-2.019531-1.011719-2.574219-1.996093-1.195312-1.984376-.589843-4.5625 1.363281-5.804688l86.871094-54.527344-88.40625 51.199219c-2.003906 1.179687-4.585937.535156-5.800781-1.449219-1.1875-2.03125-.546875-4.640625 1.449219-5.886718l45.054687-27.820313-42.664062 24.492187c-2.035157 1.117188-4.589844.441407-5.804688-1.539062-1.195312-1.980469-.589843-4.558594 1.367188-5.800781l105.640625-66.644531-100.863282 58.195312c-.96875.585938-2.132812.75-3.226562.460938-1.09375-.289063-2.023438-1.007813-2.574219-1.996094-1.179687-2.003906-.535156-4.585938 1.449219-5.800782l6.996094-4.269531-2.644532 1.539063c-2.035156 1.117187-4.585937.441406-5.800781-1.539063-.589843-.957031-.769531-2.113281-.496093-3.207031.273437-1.089844.972656-2.027344 1.945312-2.59375l47.53125-29.527344-43.179688 25.175782c-1.980468.992187-4.394531.300781-5.550781-1.589844s-.671875-4.351563 1.113281-5.664063l101.632813-65.28125-97.195313 56.148438c-2.027343 1.167969-4.617187.480469-5.800781-1.535157-1.195312-1.984374-.589843-4.558593 1.363281-5.800781l47.617188-29.953125-43.179688 24.917969c-.945312.585937-2.085937.761719-3.167968.488281-1.078125-.273437-1.996094-.972656-2.546875-1.941406-1.230469-1.9375-.703125-4.503906 1.191406-5.800781l91.5625-60.5-87.039063 50.261719c-2.003906 1.246093-4.636718.636718-5.886718-1.367188s-.636719-4.640625 1.363281-5.886719l71.425781-47.703125-66.902344 38.65625c-2.003906 1.179688-4.585937.535156-5.800781-1.449218-1.167969-1.972657-.605469-4.507813 1.277344-5.804688l34.902344-22.867188-30.378907 17.066407c-1.941406 1.226562-4.503906.699219-5.800781-1.195313-1.167969-1.96875-.605469-4.507812 1.277344-5.804687l17.75-11.261719-13.226563 7.679688c-1.972656 1.09375-4.453124.503906-5.714843-1.367188-1.246094-1.917969-.757813-4.476562 1.109375-5.800781l44.882812-32.511719-39.851562 22.953125c-1.964844 1.140625-4.476563.539063-5.714844-1.363281-.617188-.90625-.847656-2.015625-.640625-3.089844.210937-1.074219.839844-2.019531 1.75-2.628906l22.355469-16.296875-17.75 10.238281c-1.96875 1.09375-4.453125.503906-5.714844-1.363281-1.292969-1.910157-.796875-4.507813 1.109375-5.804688l3.070313-2.21875c-1.589844.203125-3.164063-.484375-4.09375-1.792969-1.269532-1.816406-.933594-4.296874.765624-5.714843l10.582032-9.558594-5.375 3.15625c-1.871094 1.046875-4.222656.578125-5.546875-1.109375-1.300781-1.714844-1.117188-4.128906.425781-5.628906l8.535156-8.109375c-.796875-.351563-1.453125-.949219-1.878906-1.707031-.582031-.96875-.75-2.132813-.460938-3.226563.289063-1.09375 1.011719-2.019531 1.996094-2.574219l19.371094-11.433594c1.871094-1.046874 4.222656-.578124 5.546875 1.109376 1.300781 1.714843 1.117187 4.128906-.425781 5.628906l-3.074219 3.074218 18.691406-10.753906c1.890625-.972656 4.214844-.402344 5.4375 1.339844 1.226563 1.742188.980469 4.121094-.574219 5.574219l-11.09375 9.554687 28.585938-16.46875c1.957031-1.1875 4.507812-.578125 5.71875 1.367188 1.15625 1.933594.679688 4.429687-1.109375 5.800781h-.597656l13.140625-7.507813c1.925781-.898437 4.222656-.242187 5.378906 1.539063 1.160156 1.78125.832031 4.144531-.769531 5.542969l-22.1875 16.640625 40.53125-23.382813c1.941406-1.039062 4.359375-.433594 5.574219 1.402344 1.21875 1.839844.835937 4.300781-.878907 5.679688l-44.542969 32.34375 68.265626-39.425782c2.003906-1.179687 4.585937-.535156 5.800781 1.453125 1.167969 1.96875.609375 4.503907-1.277344 5.800781l-17.75 11.691407 32.765625-18.945313c2.007812-1.179687 4.589844-.535156 5.804688 1.453125 1.164062 1.96875.605468 4.503907-1.28125 5.800781l-34.984376 22.871094 52.222657-30.125c1.296875-.808594 2.921875-.863281 4.269531-.144531s2.210938 2.101563 2.261719 3.628906c.054687 1.523438-.714844 2.960938-2.007813 3.769531l-71.339844 47.359376 95.0625-54.613282c1.980469-.992187 4.394532-.300781 5.550782 1.589844s.671875 4.351562-1.113282 5.664062l-91.734374 60.5 117.675781-67.753906c1.980469-.992187 4.394531-.300781 5.550781 1.589844s.671875 4.351562-1.113281 5.664062l-47.617188 30.292969 63.488281-36.691406c2.035157-1.117187 4.585938-.441406 5.800782 1.535156 1.195312 1.984375.589844 4.558594-1.363282 5.800781l-101.546874 64.941407 114.003906-65.792969c2.007812-1.179688 4.589844-.535156 5.804687 1.449219.59375.972656.773438 2.140625.5 3.246093-.269531 1.109376-.972656 2.058594-1.953125 2.644532l-47.527344 29.523437 50.429688-29.523437c.96875-.585938 2.132812-.75 3.226562-.460938 1.09375.289063 2.023438 1.007813 2.578126 1.996094 1.195312 1.984375.589843 4.558594-1.367188 5.800781l-7.082031 4.351563 6.742187-3.921875c.960938-.558594 2.105469-.707031 3.175782-.417969 1.074218.285156 1.988281.988281 2.539062 1.953125 1.195312 1.984375.589844 4.558594-1.363281 5.800781l-105.472657 66.644532 103.167969-59.730469c2.035157-1.117188 4.585938-.441407 5.800781 1.535156 1.183594 2.007813.535157 4.585937-1.449218 5.800781l-45.140625 27.648438 40.789062-23.550782c1.3125-.792968 2.945313-.824218 4.285157-.085937 1.34375.738281 2.191406 2.136719 2.21875 3.667969.03125 1.53125-.753907 2.964844-2.066407 3.757812l-86.871093 54.867188 82.433593-47.1875c1.980469-.996094 4.394531-.304688 5.550781 1.585937s.671876 4.355469-1.113281 5.667969l-132.179687 85.589844 128-73.730469c1.980468-.992187 4.394531-.304687 5.550781 1.589844 1.15625 1.890625.671875 4.351562-1.117187 5.664062l-90.535157 57.941407 85.84375-49.578126c1.3125-.792968 2.945313-.828124 4.285157-.085937 1.34375.738281 2.191406 2.136719 2.21875 3.667969.03125 1.53125-.753907 2.964844-2.066407 3.757812l-46.933593 29.695313 42.667968-24.492188c1.980469-.992187 4.394532-.304687 5.550782 1.589844 1.15625 1.890625.671874 4.351563-1.113282 5.664063l-17.066406 10.582031 12.285156-7.167969c1.296875-.808594 2.925782-.863281 4.273438-.144531 1.347656.714843 2.207031 2.097656 2.261718 3.625.050782 1.527343-.714843 2.964843-2.011718 3.773437l-83.882813 58.109375 79.359375-45.824219c1.980469-1.171874 4.535156-.523437 5.71875 1.453126.609375.914062.824219 2.03125.601563 3.109374-.226563 1.074219-.871094 2.011719-1.796875 2.605469l-52.734375 36.269531 48.210937-27.820312c2.003906-1.273438 4.660156-.679688 5.933594 1.324219 1.269531 2 .679688 4.65625-1.324219 5.929687l-34.132812 23.550782 29.355469-17.066407c1.96875-1.125 4.476562-.507812 5.703124 1.398438 1.226563 1.910156.742188 4.445312-1.097656 5.769531l-28.160156 20.820312 23.894531-13.824218c1.929688-1.058594 4.347657-.507813 5.632813 1.28125 1.265625 1.816406.933594 4.300781-.769532 5.71875l-26.964843 22.527344 22.101562-12.800782c1.828125-1.015625 4.125-.585937 5.460938 1.023438 1.378906 1.625 1.378906 4.007812 0 5.632812l-15.53125 16.554688 5.632812-3.242188c.96875-.582031 2.132813-.75 3.226563-.460937 1.09375.289062 2.023437 1.011719 2.578125 1.996093 1.171875 2.054688.488281 4.667969-1.539063 5.890626l-30.378906 17.066406c-1.820312 1.058594-4.144531.628906-5.464844-1.015625-1.324218-1.640625-1.25-4.003907.175782-5.558594l15.53125-17.066406-40.363282 24.066406c-1.894531.972656-4.214844.402344-5.441406-1.339844-1.222656-1.742187-.976562-4.121093.578125-5.574219l26.964844-22.101562-51.199219 29.441406c-1.964844 1.140625-4.480469.539063-5.71875-1.363281-1.234375-1.894531-.746094-4.425781 1.109375-5.71875l28.5-21.25-48.210937 27.90625c-1.972657 1.125-4.476563.507813-5.703126-1.398437-1.226562-1.910157-.746093-4.445313 1.09375-5.769532l34.132813-23.554687-53.246094 30.722656c-1.964843 1.140625-4.480469.539063-5.71875-1.367187-.613281-.925782-.832031-2.058594-.605469-3.148438.222657-1.089844.871094-2.042969 1.800782-2.652344l52.734375-36.265625-75.519531 43.433594c-1.964844 1.140625-4.476563.539063-5.714844-1.367187-1.230469-1.9375-.703125-4.503907 1.191406-5.800782l83.882812-58.113281-113.066406 65.28125c-.640625.394531-1.378906.601563-2.132812.597656zm0 0" fill="#fab153"/><path d="m278.101562 348.09375c-1.046874.019531-2.0625-.378906-2.816406-1.109375-1.371094-1.179687-1.847656-3.09375-1.195312-4.78125l5.890625-13.738281-14.847657 8.535156c-1.769531 1.097656-4.085937.695312-5.378906-.941406-1.363281-1.59375-1.363281-3.949219 0-5.542969l8.535156-9.730469-14.335937 8.535156c-1.933594 1.367188-4.605469.90625-5.972656-1.023437-1.367188-1.933594-.910157-4.609375 1.023437-5.976563l2.644532-2.21875-5.886719 3.414063c-1.878907 1.109375-4.292969.589844-5.546875-1.195313-1.277344-1.734374-1.058594-4.152343.511718-5.628906l17.066407-15.875-25.003907 14.421875c-.96875.585938-2.132812.75-3.226562.460938-1.09375-.289063-2.019531-1.011719-2.574219-1.996094-1.164062-2.027344-.480469-4.617187 1.535157-5.800781l57.941406-33.453125c1.882812-1.09375 4.285156-.59375 5.578125 1.15625 1.289062 1.753906 1.058593 4.195312-.542969 5.671875l-17.066406 15.785156 12.03125-6.910156c1.902344-1.121094 4.347656-.601563 5.632812 1.195312 1.246094 1.804688.953125 4.253906-.683594 5.714844l-3.582031 3.074219c1.539063-.261719 3.105469.324219 4.09375 1.535156 1.316407 1.582031 1.316407 3.878906 0 5.460937l-8.53125 9.726563 3.15625-1.789063c1.480469-1.054687 3.46875-1.054687 4.949219 0 1.382812 1.203126 1.863281 3.152344 1.195312 4.863282l-5.71875 13.90625c1.878907-.535156 3.882813.273437 4.863282 1.964844 1.175781 2.054687.492187 4.667968-1.535156 5.886718l-10.324219 5.804688c-.566407.351562-1.210938.554687-1.878907.597656zm0 0" fill="#ffd67b"/><path d="m170.921875 345.703125c-1.457031.03125-2.824219-.714844-3.582031-1.960937-1.292969-1.910157-.796875-4.507813 1.109375-5.804688l43.859375-31.230469-40.871094 23.636719c-1.972656 1.09375-4.453125.5-5.71875-1.367188-1.21875-1.90625-.773438-4.425781 1.023438-5.800781l59.734374-44.117187-55.039062 31.914062c-1.988281 1.125-4.507812.484375-5.71875-1.449218-1.238281-1.894532-.746094-4.425782 1.109375-5.71875l51.199219-36.695313-46.589844 26.796875c-2.003906 1.25-4.640625.636719-5.890625-1.367188-1.25-2-.636719-4.636718 1.367187-5.886718l17.066407-11.945313-12.800781 7.421875c-1.96875 1.125-4.476563.511719-5.703126-1.398437-1.226562-1.90625-.746093-4.441407 1.09375-5.769531l18.09375-13.226563-13.484374 7.851563c-1.941407 1.128906-4.425782.527343-5.632813-1.367188-1.246094-1.835938-.875-4.324219.855469-5.714844l13.140625-10.15625-8.535157 4.78125c-1.761718 1.042969-4.019531.683594-5.375-.855468-1.285156-1.59375-1.285156-3.867188 0-5.460938l14.421876-18.515625-8.535157 5.117187c-1.40625.984376-3.28125.984376-4.691406 0-1.367187-1.066406-1.972656-2.84375-1.535156-4.523437l2.300781-8.53125c-.792969-.351563-1.449219-.949219-1.875-1.707031-.582031-.96875-.75-2.132813-.460938-3.226563.289063-1.09375 1.011719-2.023437 1.996094-2.574219l4.265625-2.476562c1.445313-.976562 3.335938-.976562 4.78125 0 1.367188 1.066406 1.96875 2.84375 1.535157 4.523438l-1.707032 6.144531 19.03125-11.007813c1.761719-1.046875 4.019532-.6875 5.375.851563 1.285156 1.59375 1.285156 3.867187 0 5.460937l-14.421875 18.089844 43.179688-24.914062c1.921875-1.105469 4.371093-.546876 5.628906 1.277343 1.257813 1.863281.890625 4.378907-.851563 5.804688l-13.140624 10.152343 29.953124-17.066406c1.941407-1.039062 4.355469-.433594 5.570313 1.402344 1.21875 1.839844.835937 4.300781-.878906 5.679688l-18.261719 13.398437 35.328125-20.394531c1.988281-1.125 4.507813-.484375 5.71875 1.449218 1.183594 1.949219.660156 4.480469-1.195313 5.804688l-17.066406 11.945312 26.027344-15.871093c1.96875-1.09375 4.453125-.503907 5.714844 1.367187 1.246094 1.917969.757812 4.476563-1.109375 5.800782l-50.773438 36.609374 46.167969-26.625c1.96875-1.09375 4.453125-.503906 5.714844 1.367188 1.21875 1.90625.773437 4.425781-1.023438 5.800781l-59.734375 44.117188 54.785157-31.660157c1.988281-1.121093 4.507812-.484374 5.71875 1.453126.617187.902343.847656 2.015624.636718 3.089843-.207031 1.074219-.835937 2.019531-1.746094 2.625l-43.863281 31.234375 39.253907-22.699218c2.050781-1.179688 4.667968-.472657 5.847656 1.578124 1.175781 2.050782.46875 4.667969-1.582032 5.84375l-117.074218 68.097657c-.640625.394531-1.382813.601562-2.136719.597656zm0 0" fill="#ffd67b"/><path d="m221.613281 178.109375c-1.871093.011719-3.53125-1.191406-4.097656-2.972656-.570313-1.78125.089844-3.722657 1.621094-4.792969l17.066406-12.289062-28.246094 16.382812c-1.945312 1.085938-4.398437.492188-5.628906-1.363281-.628906-.894531-.871094-2-.679687-3.070313.195312-1.074218.804687-2.027344 1.703124-2.648437l48.210938-35.582031-61.695312 35.667968c-1.296876.808594-2.921876.863282-4.269532.144532s-2.210937-2.101563-2.261718-3.625c-.054688-1.527344.714843-2.964844 2.007812-3.773438l35.839844-24.660156-42.664063 24.492187c-2.003906 1.246094-4.640625.636719-5.890625-1.367187-1.246094-2.003906-.636718-4.640625 1.367188-5.886719l32.171875-21.675781-36.183594 20.90625c-2.003906 1.25-4.636719.636718-5.886719-1.363282-1.25-2.003906-.636718-4.640624 1.363282-5.890624l45.3125-30.976563-49.152344 28.417969c-1.984375 1.125-4.503906.484375-5.714844-1.453125-1.230469-1.9375-.703125-4.503907 1.195312-5.800781l46.078126-31.230469-47.53125 27.476562c-2.003907 1.25-4.636719.636719-5.886719-1.367187-1.25-2-.636719-4.636719 1.363281-5.886719l36.695312-24.660156-36.695312 21.160156c-1.957031 1.1875-4.503906.578125-5.714844-1.363281-1.246094-1.917969-.757812-4.480469 1.109375-5.804688l62.546875-44.96875-61.867187 35.753906c-1.980469.992188-4.394531.304688-5.550781-1.585937-1.15625-1.894531-.671876-4.355469 1.113281-5.667969l3.925781-2.644531c-1.96875 1.09375-4.453125.503906-5.714844-1.367187-1.21875-1.90625-.773437-4.425782 1.023438-5.800782l52.648437-40.105468-46.25 26.878906c-2.054687 1.03125-4.5625.285156-5.714843-1.707032-1.101563-1.738281-.777344-4.015624.765624-5.375l25.601563-18.859374-15.191406 8.53125c-1.902344 1.128906-4.351563.613281-5.640625-1.183594-1.289063-1.800782-.988282-4.289063.691406-5.726563l22.015625-19.285156c-1.324219-.117187-2.507813-.882813-3.15625-2.046875-1.171875-2.054688-.492187-4.671875 1.535156-5.890625l32.34375-18.429687c1.902344-1.121094 4.347657-.601563 5.632813 1.195312 1.246094 1.804688.953125 4.253906-.683594 5.714844l-18.6875 16.640625 46.078125-26.625c1.980469-1.292969 4.636719-.7421878 5.929687 1.238281 1.296876 1.980469.742188 4.636719-1.234374 5.929688l-25.601563 18.773437 38.996094-22.441406c1.910156-1.195313 4.425781-.621094 5.632812 1.28125 1.28125 1.875.871094 4.425781-.9375 5.800781l-53.589843 40.449219 67.582031-39c1.980469-1.171875 4.539062-.523438 5.71875 1.453125 1.210937 1.960937.644531 4.53125-1.28125 5.800781l-3.839844 2.476563 7.511719-4.351563c1.972656-1.097656 4.453125-.503906 5.714844 1.363281 1.265624 1.898438.8125 4.453125-1.023438 5.804688l-63.316406 44.96875 70.484375-40.875c2.015625-1.132813 4.5625-.496094 5.804687 1.453125 1.210938 1.960937.644532 4.53125-1.28125 5.800781l-36.777344 24.746094 39.167969-22.613282c1.984375-1.121093 4.503907-.484374 5.714844 1.453126.730469.960937 1.019531 2.191406.792969 3.378906-.230469 1.1875-.949219 2.222656-1.984375 2.847656l-45.398438 30.808594 46.933594-27.050782c1.953125-.9375 4.292969-.261718 5.449219 1.570313s.757812 4.234375-.925782 5.597656l-45.3125 30.972657 45.3125-26.195313c2-1.25 4.636719-.636719 5.886719 1.363281 1.25 2.003906.636719 4.640625-1.367187 5.890625l-32.253906 21.757813 30.121093-17.066406c1.988281-1.121094 4.507813-.484376 5.71875 1.453124 1.226563 1.9375.699219 4.503907-1.195312 5.800782l-35.839844 24.660156 32.257813-18.6875c1.96875-1.09375 4.453124-.5 5.714843 1.367188 1.21875 1.90625.773438 4.429687-1.023437 5.800781l-48.214844 35.757812 40.792969-24.066406c1.984375-1.125 4.503906-.484375 5.714843 1.453125 1.160157 1.933594.683594 4.429688-1.109374 5.800781l-17.066407 12.203125 7.082031-4.011718c1.917969-1.144532 4.398438-.582032 5.632813 1.28125 1.28125 1.875.871094 4.425781-.9375 5.800781l-12.375 9.300781c1.273437.207031 2.394531.953125 3.074219 2.050781 1.15625 2.074219.433594 4.695313-1.621094 5.886719l-52.394531 30.207031c-1.910157 1.195313-4.429688.625-5.632813-1.277343-1.28125-1.878907-.871094-4.429688.9375-5.804688l6.316406-4.777344-22.53125 13.054688c-.667968.488281-1.472656.757812-2.300781.769531zm0 0" fill="#f4f6f8"/><path d="m205.65625 221.285156c-1.730469-.023437-3.273438-1.085937-3.910156-2.695312-.636719-1.609375-.238282-3.441406 1.007812-4.640625l23.890625-22.445313-38.140625 22.1875c-1.871094 1.046875-4.222656.578125-5.546875-1.109375-1.300781-1.714843-1.117187-4.128906.425781-5.632812l12.800782-12.796875-7.679688 4.4375c-1.765625 1.042968-4.023437.683594-5.378906-.855469-1.222656-1.613281-1.222656-3.84375 0-5.460937l5.378906-6.996094c-1.351562.757812-3.003906.757812-4.355468 0-1.355469-.890625-2.054688-2.496094-1.789063-4.097656l1.535156-11.691407c-.410156-.332031-.753906-.738281-1.023437-1.191406-1.175782-2.054687-.492188-4.671875 1.535156-5.890625l2.304688-1.363281c1.386718-.847657 3.132812-.847657 4.523437 0 1.351563.894531 2.082031 2.484375 1.875 4.09375l-1.109375 8.535156 10.667969-6.230469c1.796875-.957031 4.011719-.570312 5.375.9375 1.304687 1.554688 1.304687 3.824219 0 5.378906l-5.375 6.996094 17.578125-10.324218c1.835937-1.074219 4.1875-.597657 5.460937 1.109374 1.414063 1.609376 1.414063 4.019532 0 5.628907l-12.882812 12.800781 41.554687-24.0625c1.878906-1.109375 4.292969-.589844 5.546875 1.195312 1.277344 1.734376 1.058594 4.152344-.511719 5.628907l-23.894531 22.359375 33.28125-19.285156c1.828125-1.015626 4.125-.585938 5.460938 1.023437 1.367187 1.597656 1.367187 3.949219 0 5.546875l-15.785157 17.664062 10.75-6.230468c1.410157-.984375 3.285157-.984375 4.695313 0 1.371094 1.027344 1.980469 2.785156 1.535156 4.4375l-2.902343 11.4375c1.082031.285156 2.003906.992187 2.5625 1.960937.582031.96875.746093 2.132813.457031 3.226563-.289063 1.09375-1.007813 2.023437-1.996094 2.574218l-5.117187 2.902344c-1.410157.984375-3.285157.984375-4.695313 0-1.351563-1.039062-1.957031-2.785156-1.535156-4.4375l2.472656-9.726562-25.171875 14.589844c-1.828125 1.019531-4.125.589843-5.460938-1.023438-1.367187-1.59375-1.367187-3.949219 0-5.546875l15.957032-17.832031-42.667969 24.488281c-.53125.257813-1.113281.402344-1.703125.425781zm0 0" fill="#cad0d7"/><path d="m11.265625 502.714844c-1.300781.007812-2.53125-.589844-3.328125-1.621094-1.367188-1.59375-1.367188-3.949219 0-5.546875l19.882812-21.417969-18.433593 10.753906c-1.828125 1.015626-4.125.585938-5.460938-1.023437-1.363281-1.597656-1.363281-3.953125 0-5.546875l7.082031-7.851562c-.910156-.351563-1.667968-1.015626-2.132812-1.878907-1.164062-2.027343-.480469-4.617187 1.535156-5.800781l16.472656-9.472656c1.796876-.953125 4.019532-.507813 5.304688 1.070312 1.289062 1.578125 1.28125 3.84375-.015625 5.414063l-3.585937 4.097656 19.628906-11.265625c1.820312-1.058594 4.144531-.628906 5.46875 1.011719 1.320312 1.644531 1.246094 4.003906-.179688 5.558593l-19.882812 21.503907 48.554687-28.074219c1.882813-1.09375 4.285157-.59375 5.578125 1.15625 1.292969 1.753906 1.058594 4.195312-.542968 5.671875l-17.578126 16.210937 39.679688-23.039062c1.910156-1.195312 4.425781-.621094 5.632812 1.28125 1.28125 1.875.867188 4.425781-.9375 5.800781l-2.390624 1.792969 15.445312-8.53125c1.902344-1.121094 4.347656-.601562 5.632812 1.191406 1.265626 1.816406.933594 4.300782-.769531 5.71875l-13.398437 11.347656 31.660156-18.257812c1.839844-1.066406 4.183594-.609375 5.496094 1.066406 1.308594 1.671875 1.183594 4.058594-.289063 5.589844l-19.203125 19.027344 44.632813-25.601563c1.820312-1.050781 4.140625-.617187 5.460937 1.027344 1.414063 1.609375 1.414063 4.019531 0 5.628906l-19.285156 19.371094 45.140625-25.597656c1.847656-1.066407 4.199219-.632813 5.546875 1.023437 1.296875 1.714844 1.113281 4.128906-.429688 5.632813l-19.199218 18.429687 44.972656-25.597656c1.832031-.949219 4.082031-.449219 5.339844 1.1875 1.257812 1.636719 1.164062 3.9375-.222656 5.46875l-19.367188 19.027344 45.140625-25.601563c1.941406-1.15625 4.449219-.59375 5.714844 1.28125 1.222656 1.90625.777343 4.429688-1.023438 5.804688l-1.277343 1.023437 13.992187-8.109375c1.863281-1.082031 4.246094-.605469 5.546875 1.109375 1.300781 1.71875 1.117188 4.132813-.425781 5.632813l-18.773438 18.347656 43.433594-25.089844c1.855469-1.125 4.265625-.644531 5.546875 1.109375 1.414062 1.613282 1.414062 4.023438 0 5.632813l-18.6875 18.089843 42.667969-24.832031c1.929687-1.292969 4.546875-.777343 5.84375 1.152344 1.296875 1.933594.78125 4.550781-1.152344 5.847656l-4.523437 3.496094 18.347656-10.496094c1.917968-1.144531 4.398437-.582031 5.632812 1.28125 1.246094 1.835938.875 4.324219-.851562 5.71875l-7.9375 6.3125 23.039062-13.3125c1.890625-1.09375 4.300782-.621093 5.632813 1.109375 1.277343 1.738282 1.058593 4.15625-.511719 5.632813l-18.089844 17.066406 41.214844-23.808594c1.910156-1.191406 4.425781-.621093 5.632812 1.28125 1.289063 1.828125.914063 4.347657-.855468 5.71875l-8.53125 6.65625 20.050781-11.691406c1.8125-1.136719 4.1875-.6875 5.460937 1.023437 1.367188 1.597657 1.367188 3.949219 0 5.546876l-17.660156 18.773437 24.234375-13.996094c1.664063-.949219 3.757813-.667969 5.117188.683594 1.339843 1.398437 1.617187 3.507813.683593 5.207031l-8.53125 14.417969 5.800782-3.324219c2.050781-1.179687 4.667968-.472656 5.84375 1.578125 1.179687 2.046875.472656 4.664063-1.578125 5.84375l-20.136719 11.347657c-1.6875.996093-3.832031.714843-5.207031-.679688-1.382813-1.351562-1.628907-3.488281-.597657-5.121094l8.535157-14.507812-35.242188 20.308594c-1.824219 1.054687-4.144531.621093-5.460937-1.023438-1.402344-1.582031-1.402344-3.960938 0-5.546875l17.664062-18.773437-44.035156 25.601562c-1.917969 1.148438-4.398438.582031-5.628906-1.28125-1.25-1.835938-.878906-4.324219.851562-5.714844l8.535156-6.65625-23.980468 13.394532c-1.851563.953124-4.121094.425781-5.367188-1.242188s-1.105468-3.992188.332032-5.496094l18.089843-17.066406-40.957031 23.804688c-1.945312 1.15625-4.453125.597656-5.71875-1.277344-1.226562-1.859375-.820312-4.347656.9375-5.71875l7.851562-6.3125-23.039062 13.308594c-1.917969 1-4.277344.410156-5.496094-1.375-1.21875-1.785157-.910156-4.199219.714844-5.621094l4.523438-3.582032-18.261719 10.578126c-1.859375 1.074218-4.226563.597656-5.527344-1.113282-1.300781-1.710937-1.125-4.121094.410156-5.625l18.6875-18.09375-42.667969 24.832032c-1.863281 1.085937-4.242187.609374-5.546874-1.109376-1.296876-1.714843-1.113282-4.128906.425781-5.628906l18.859375-18.347656-43.519532 25.085938c-1.910156 1.195312-4.425781.625-5.632812-1.277344-1.28125-1.875-.867188-4.425782.941406-5.804688l1.363282-.9375-14.078126 8.019532c-1.808593 1.136718-4.1875.691406-5.460937-1.023438-1.457031-1.59375-1.457031-4.035156 0-5.628906l19.285156-19.371094-45.144531 25.597656c-1.839844 1.105469-4.21875.664063-5.546875-1.023437-1.375-1.625-1.375-4.007813 0-5.632813l19.289063-19.285156-44.546876 26.367188c-1.835937 1.414062-4.472656 1.070312-5.886718-.765626-1.414063-1.839843-1.070313-4.476562.769531-5.886718l19.285156-19.371094-45.144531 25.597656c-1.839844 1.105469-4.21875.664063-5.546875-1.023437-1.375-1.625-1.375-4.007813 0-5.632813l19.457031-18.601562-44.628906 25.601562c-1.871094 1.152344-4.316406.625-5.546875-1.195312-1.285156-1.796875-.988281-4.277344.683594-5.71875l13.480469-11.347656-31.742188 18.34375c-1.945312 1.15625-4.453125.597656-5.71875-1.277344-1.195312-1.894532-.792969-4.382813.941406-5.804688l2.472656-1.789062-15.273437 8.871094c-1.882813 1.09375-4.285156.597656-5.578125-1.15625-1.289062-1.75-1.058594-4.195313.542969-5.667969l17.578125-16.214844-40.191406 23.125c-.65625.351563-1.390626.527344-2.132813.511719zm0 0" fill="#cad0d7"/></g><path d="m9.472656 501.691406c15.617188 7.679688 55.125 0 72.023438 0h362.324218c1.839844-.171875 3.617188-.753906 5.203126-1.707031 1.125-.234375 2.175781-.730469 3.074218-1.449219 19.882813-19.96875-7.851562-43.777344-28.332031-45.484375-22.511719-1.195312-45.070313-1.195312-67.582031 0 18.261718-8.53125 23.808594-25.597656 23.808594-50.257812v-129.707031c0-30.722657-3.757813-55.042969-39.9375-58.371094-20.753907-1.582032-41.585938-1.921875-62.378907-1.023438v-49.917968c6.238281-4.015626 11.96875-8.773438 17.066407-14.167969 15.328124-16.664063 24.378906-38.144531 25.601562-60.753907-.824219-22.226562-9.960938-43.328124-25.601562-59.136718.410156-.9375.402343-2-.019532-2.929688-.425781-.929687-1.222656-1.632812-2.199218-1.933594-1.089844-.300781-2.238282-.300781-3.328126 0-15.320312-13.15625-34.339843-21.234374-54.441406-23.128906-.597656-1.363281-4.097656-1.363281-7.253906 0-42.734375-2.214844-80.503906 27.5625-88.320312 69.632813-6.089844 28.699219 2.628906 58.539062 23.210937 79.445312.296875 1.210938 1.203125 2.179688 2.390625 2.5625 4.519531 4.300781 9.464844 8.132813 14.761719 11.433594v47.019531c-44.972657-2.476562-97.453125 0-102.402344 43.175782-4.605469 40.277343 0 83.714843 0 124.246093 0 27.476563-4.863281 60.332031 19.117187 73.730469h-24.664062c-15.527344 0-38.058594-3.585938-52.734375 3.667969-16.382813 7.9375-27.734375 36.011719-9.386719 45.054687zm273.066406-264.53125v41.386719c0 3.667969-1.960937 58.027344 0 62.546875-13.3125-9.726562-32.9375-30.890625-49.238281-32.339844-18.003906-1.621094-36.007812 22.953125-50.175781 30.121094-7.847656 4.011719-6.398438 10.070312-7.421875-4.007812 0-2.476563 0-5.035157 0-7.425782v-107.945312h5.289063c.746093 1.152344 2.042968 1.832031 3.414062 1.789062h85.332031c2.335938-.027344 4.625-.644531 6.65625-1.789062h7.339844c-.511719.9375-1.367187 15.273437-1.367187 17.917968zm-132.523437-143.277344h18.519531c7.253906 0 9.386719-9.554687 1.023438-9.554687h-19.710938c.285156-4.75 1-9.460937 2.132813-14.082031 2.652343-12.441406 8.109375-24.117188 15.957031-34.132813l13.140625 13.140625c2.476563 2.476563 13.996094-2.046875 11.605469-4.4375l-17.066406-17.066406c13.0625-11.414062 29.84375-17.664062 47.1875-17.578125v20.820313c0 3.160156 12.289062 1.027343 12.289062-3.242188v-17.066406c16.640625 2.359375 32.234375 9.503906 44.886719 20.566406l-14.167969 13.824219c-.890625.90625-1.234375 2.222656-.902344 3.453125.335938 1.226562 1.296875 2.1875 2.527344 2.519531 3.050781.878906 6.335938-.007813 8.53125-2.304687l10.753906-10.835938c12.125 13.429688 19.449219 30.507812 20.820313 48.554688h-15.019531c-3-.023438-5.953126.773437-8.53125 2.304687-1.707032 1.277344-1.964844 2.472656.679687 2.472656h23.125c-1.425781 17.90625-8.140625 34.980469-19.285156 49.066407l-11.519531-11.605469c-2.816407-2.816407-14.503907 1.707031-11.605469 4.609375 5.207031 5.121094 10.328125 10.324218 15.445312 15.445312-7.167969 6.976563-15.632812 12.484375-24.917969 16.214844-6.710937 2.347656-13.71875 3.757812-20.820312 4.179688v-21.929688c0-2.390625-12.289062-.511719-12.289062 3.242188v18.859374c-10.289063-.960937-20.308594-3.855468-29.523438-8.535156l-2.21875-1.023437c-5.386719-3.085938-10.421875-6.75-15.019531-10.921875l15.617187-15.617188c.886719-.8125 1.25-2.046875.945313-3.210937-.304688-1.160157-1.226563-2.0625-2.394531-2.335938-3.054688-.769531-6.285157.105469-8.535157 2.304688l-11.863281 11.945312c-11.519531-13.511719-18.453125-30.335937-19.796875-48.042969zm42.667969 77.570313c9.007812 3.808594 18.578125 6.113281 28.332031 6.824219 15.203125 1.125 30.449219-1.542969 44.371094-7.761719v42.664063h-73.042969zm-102.398438 248.234375c-4.183594-25.601562 0-54.871094 0-80.46875 0-25.601562-7.597656-64.085938 0-88.234375 12.371094-39 41.984375-32.34375 73.042969-31.574219v71.507813c0 11.605469-7.335937 52.394531 8.535156 56.492187 15.871094 4.09375 39.933594-22.015625 49.832031-29.015625 2.3125-2.082031 4.863282-3.886719 7.597657-5.375 4.09375-.425781-2.5625 1.28125-1.367188 1.792969 5.035157 2.785156 9.753907 6.105469 14.082031 9.898438l29.4375 21.164062h1.621094c25.601563 5.289062 21.761719-22.527344 21.761719-40.023438v-86.78125c28.414063-1.195312 64.085937-3.5 72.105469 28.414063 6.914062 27.390625.9375 62.804687.9375 90.710937 0 23.464844 13.058594 103.933594-23.378906 114.773438h-219.308594c-18.460938-.648438-33.582032-14.890625-35.328125-33.28125zm-58.710937 39.339844c6.878906-.984375 13.859375-.984375 20.734375 0h66.816406c25.394531 1.960937 50.898438 1.960937 76.289062 0h190.550782c10.199218-.683594 20.433594-.683594 30.632812 0 14.933594 2.132812 37.460938 20.820312 26.710938 36.691406h-369.324219c-14.25 0-44.371094 5.972656-57.597656 0-13.226563-5.972656 12.882812-35.839844 15.1875-36.691406zm0 0" fill="#262626"/><path d="m228.097656 93.203125c3.046875.003906 5.789063-1.859375 6.910156-4.695313 2.816407-8.53125 5.71875-17.066406 8.535157-25.597656.9375-2.902344-3.753907-3.671875-5.546875-3.5-3.050782-.003906-5.789063 1.859375-6.914063 4.691406-2.8125 8.535157-5.714843 17.066407-8.53125 25.601563-.9375 2.902344 3.753907 3.667969 5.546875 3.5zm0 0" fill="#262626" fill-rule="evenodd"/></svg>