<svg height="430pt" viewBox="0 -11 430.00008 430" width="430pt" xmlns="http://www.w3.org/2000/svg"><path d="m300.050781 344.839844c-24.570312 15.671875-53.75 24.75-85.050781 24.75s-60.480469-9.078125-85.050781-24.75l46.679687-46.679688c11.742188 5.1875 24.710938 8.089844 38.371094 8.089844s26.628906-2.898438 38.371094-8.089844zm0 0" fill="#ffd8a8"/><path d="m107.5 367.289062-85.101562 40.308594 40.3125-85.097656zm0 0" fill="#747371"/><path d="m64.710938 336.25 34.816406 34.816406 7.972656-3.777344-44.789062-44.789062-40.3125 85.097656 10.976562-5.199218zm0 0" fill="#5b5a57"/><path d="m215 259.789062-107.5 107.5-44.789062-44.789062 21.6875-21.691406 46.113281-46.121094 39.699219-39.6875zm0 0" fill="#ffc85f"/><path d="m84.398438 314.242188 46.113281-46.117188 39.699219-39.691406 38.070312 38.074218 6.71875-6.71875-44.789062-44.789062-39.699219 39.6875-46.113281 46.121094-21.6875 21.691406 6.714843 6.71875zm0 0" fill="#ffc85f"/><path d="m340.417969 44.789062 44.789062-44.789062 44.789063 44.789062-44.789063 44.789063zm0 0" fill="#d7deed"/><path d="m385.210938 13.832031 37.871093 37.875 6.917969-6.917969-44.789062-44.789062-44.789063 44.789062 6.914063 6.917969zm0 0" fill="#afb9d2"/><path d="m0 44.789062 44.789062-44.789062 44.789063 44.789062-44.789063 44.789063zm0 0" fill="#d7deed"/><path d="m44.789062 14 37.792969 37.789062 7-7-44.792969-44.789062-44.789062 44.789062 7 7zm0 0" fill="#afb9d2"/><path d="m119.980469 211.230469c0 15.667969 3.820312 30.4375 10.53125 43.457031l-46.113281 46.121094c-17.507813-25.480469-27.757813-56.328125-27.757813-89.578125 0-31.300781 9.078125-60.480469 24.75-85.050781l46.691406 46.679687c-5.191406 11.738281-8.101562 24.710937-8.101562 38.371094zm0 0" fill="#ffd8a8"/><path d="m124.410156 169.191406c-2.183594 7.976563-3.359375 16.367188-3.359375 25.039063 0 .847656.015625 1.695312.039063 2.539062 1.289062-8.378906 3.671875-16.398437 6.992187-23.910156zm0 0" fill="#eabd8c"/><path d="m85.46875 283.808594c-17.507812-25.480469-27.757812-56.328125-27.757812-89.578125 0-.539063.019531-1.066407.027343-1.601563-.714843 6.101563-1.097656 12.304688-1.097656 18.601563 0 33.25 10.25 64.097656 27.757813 89.578125l46.113281-46.121094c-1.839844-3.566406-3.453125-7.273438-4.839844-11.089844zm0 0" fill="#eabd8c"/><path d="m193.5 303.789062c-5.847656-1.359374-11.488281-3.25-16.871094-5.628906l-2.488281 2.488282c6.222656 1.6875 12.699219 2.757812 19.359375 3.140624zm0 0" fill="#eabd8c"/><path d="m253.371094 298.160156c-3.230469 1.425782-6.554688 2.675782-9.960938 3.742188l40.640625 40.636718c-24.570312 15.671876-53.75 24.75-85.050781 24.75-4.964844 0-9.867188-.253906-14.714844-.699218 9.941406 1.953125 20.203125 3 30.714844 3 31.300781 0 60.480469-9.078125 85.050781-24.75zm0 0" fill="#eabd8c"/><path d="m348.609375 126.179688c15.671875 24.570312 24.75 53.75 24.75 85.050781 0 33.25-10.25 64.097656-27.761719 89.578125l-46.109375-46.121094c6.710938-13.019531 10.53125-27.789062 10.53125-43.457031 0-13.660157-2.910156-26.632813-8.101562-38.371094zm0 0" fill="#ffd8a8"/><path d="m345.359375 141.121094c15.671875 24.570312 24.75 53.75 24.75 85.050781 0 8.960937-.75 17.746094-2.183594 26.304687 3.542969-13.152343 5.433594-26.976562 5.433594-41.246093 0-31.300781-9.078125-60.480469-24.75-85.050781l-46.6875 46.679687c1.210937 2.746094 2.296875 5.5625 3.253906 8.4375zm0 0" fill="#eabd8c"/><path d="m299.488281 254.6875 2.1875 2.1875c1.976563-5.773438 3.402344-11.800781 4.238281-18.015625-1.675781 5.503906-3.832031 10.800781-6.425781 15.828125zm0 0" fill="#eabd8c"/><path d="m385.210938 89.578125-36.601563 36.601563-46.6875 46.679687-42.132813 42.140625-44.789062-44.789062 43.460938-43.460938 46.109374-46.121094 35.851563-35.839844zm0 0" fill="#ffc85f"/><path d="m258.460938 140.582031 46.109374-46.117187 35.851563-35.84375 37.871094 37.875 6.917969-6.917969-44.789063-44.789063-35.851563 35.839844-46.109374 46.121094-43.460938 43.460938 6.917969 6.914062zm0 0" fill="#ffc85f"/><path d="m304.570312 80.628906-46.109374 46.121094c-13.03125-6.71875-27.789063-10.53125-43.460938-10.53125-15.667969 0-30.429688 3.8125-43.460938 10.53125l-46.117187-46.121094c25.476563-17.507812 56.328125-27.757812 89.578125-27.757812s64.101562 10.246094 89.570312 27.757812zm0 0" fill="#ffd8a8"/><path d="m223.75 62.117188c28.574219 0 55.375 7.578124 78.511719 20.820312l2.308593-2.308594c-25.46875-17.511718-56.320312-27.761718-89.570312-27.761718s-64.097656 10.25-89.578125 27.761718l9.046875 9.050782c25.421875-17.386719 56.160156-27.5625 89.28125-27.5625zm0 0" fill="#eabd8c"/><path d="m367.289062 322.5-44.789062 44.789062-152.289062-152.289062-42.128907-42.140625-46.691406-46.679687-36.601563-36.601563 44.792969-44.789063 35.839844 35.839844 46.117187 46.121094 88.25 88.25 39.699219 39.6875 46.113281 46.121094zm0 0" fill="#f7d794"/><path d="m89.582031 58.621094 35.839844 35.84375 134.367187 134.367187 39.699219 39.691407 46.113281 46.117187 14.773438 14.777344 6.914062-6.917969-21.6875-21.691406-46.113281-46.121094-39.699219-39.6875-88.25-88.25-46.117187-46.121094-35.839844-35.839844-44.792969 44.789063 6.917969 6.917969zm0 0" fill="#e2bf7f"/><g fill="#ffd8a8"><path d="m280 4.671875h20v20h-20zm0 0"/><path d="m250 4.671875h20v20h-20zm0 0"/><path d="m220 4.671875h20v20h-20zm0 0"/><path d="m190 4.671875h20v20h-20zm0 0"/><path d="m160 4.671875h20v20h-20zm0 0"/><path d="m130 4.671875h20v20h-20zm0 0"/></g><path d="m368.527344 323.707031 40.3125 85.101563-85.101563-40.3125zm0 0" fill="#747371"/><path d="m365.195312 338.707031 30.1875 63.726563 13.457032 6.375-40.3125-85.101563-44.789063 44.789063 7.917969 3.75zm0 0" fill="#5b5a57"/></svg>