
<svg height="400pt" viewBox="0 -12 400 400" width="400pt" xmlns="http://www.w3.org/2000/svg"><path d="m305 143h-210c-2.761719 0-5-2.238281-5-5v-60c0-2.761719 2.238281-5 5-5s5 2.238281 5 5v55h200v-55c0-2.761719 2.238281-5 5-5s5 2.238281 5 5v60c0 2.761719-2.238281 5-5 5zm0 0" fill="#febe76"/><path d="m295 190h50v180h-50zm0 0" fill="#febe76"/><path d="m302.667969 197.832031h42.332031v-7.832031h-50v180h7.667969zm0 0" fill="#e8a664"/><path d="m105 240v130h-50v-180h50zm0 0" fill="#febe76"/><path d="m62.667969 197.75h42.332031v-7.75h-50v180h7.667969zm0 0" fill="#e8a664"/><path d="m375 130v40c0 11.050781-8.949219 20-20 20h-310c-11.050781 0-20-8.949219-20-20v-40zm0 0" fill="#9e6133"/><path d="m32.582031 178.082031v-40h342.417969v-8.082031h-350v40c0 7.3125 3.929688 13.683594 9.78125 17.171875-1.394531-2.730469-2.199219-5.8125-2.199219-9.089844zm0 0" fill="#84502c"/><path d="m325 35.328125v44.671875h-250v-44.671875c0-19.507813 15.820312-35.328125 35.328125-35.328125h179.34375c19.507813 0 35.328125 15.820312 35.328125 35.328125zm0 0" fill="#febe76"/><g fill="#e8a664"><path d="m83.375 44.453125c0-19.507813 15.820312-35.328125 35.328125-35.328125h179.34375c8.058594 0 15.484375 2.707031 21.429687 7.25-6.269531-9.839844-17.273437-16.375-29.804687-16.375h-179.34375c-19.507813 0-35.328125 15.820312-35.328125 35.328125v44.671875h8.375zm0 0"/><path d="m265 30h20v20h-20zm0 0"/><path d="m235 30h20v20h-20zm0 0"/><path d="m205 30h20v20h-20zm0 0"/><path d="m175 30h20v20h-20zm0 0"/><path d="m145 30h20v20h-20zm0 0"/><path d="m115 30h20v20h-20zm0 0"/></g><path d="m225 245h-120c-2.761719 0-5-2.238281-5-5s2.238281-5 5-5h120c2.761719 0 5 2.238281 5 5s-2.238281 5-5 5zm0 0" fill="#febe76"/><path d="m265 245h-10c-2.761719 0-5-2.238281-5-5s2.238281-5 5-5h10c2.761719 0 5 2.238281 5 5s-2.238281 5-5 5zm0 0" fill="#febe76"/><path d="m395 375h-390c-2.761719 0-5-2.238281-5-5s2.238281-5 5-5h390c2.761719 0 5 2.238281 5 5s-2.238281 5-5 5zm0 0" fill="#84502c"/></svg>