<svg height="460pt" viewBox="0 0 460 460" width="460pt" xmlns="http://www.w3.org/2000/svg"><path d="m290 408.878906v43.199219c-19.128906 5.152344-39.238281 7.921875-60 7.921875s-40.871094-2.769531-60-7.921875v-182.078125h120zm0 0" fill="#fcd884"/><path d="m460 230c0 106.269531-72.070312 195.679688-170 222.078125v-43.199219c75.140625-25.097656 129.300781-96.007812 129.300781-179.578125 0-104.550781-84.75-189.300781-189.300781-189.300781s-189.300781 84.75-189.300781 189.300781c0 83.570313 54.160156 154.480469 129.300781 179.578125v43.199219c-97.929688-26.398437-170-115.808594-170-222.078125 0-127.03125 102.96875-230 230-230s230 102.96875 230 230zm0 0" fill="#ff7979"/><path d="m180 418.378906v-138.878906h110v-9.5h-120v182.078125c3.304688.890625 6.640625 1.703125 10 2.449219zm0 0" fill="#eabf6a"/><path d="m338.390625 200c28.5 0 51.609375 22.390625 51.609375 50s-23.109375 50-51.609375 50c-21.171875 0-39.339844-12.339844-47.3125-30h-122.15625c-7.972656 17.660156-26.140625 30-47.3125 30-28.5 0-51.609375-22.390625-51.609375-50s23.109375-50 51.609375-50zm0 0" fill="#707487"/><path d="m77.5 259.5c0-27.609375 23.109375-50 51.609375-50h216.78125c14.496094 0 27.589844 5.800781 36.964844 15.125-8.980469-14.734375-25.527344-24.625-44.464844-24.625h-216.78125c-28.5 0-51.609375 22.390625-51.609375 50 0 13.566406 5.589844 25.863281 14.644531 34.875-4.535156-7.441406-7.144531-16.109375-7.144531-25.375zm0 0" fill="#5b6072"/><path d="m298.578125 279.5h-1.851563c1.441407 1.90625 3.015626 3.714844 4.714844 5.402344-1.058594-1.738282-2.019531-3.539063-2.863281-5.402344zm0 0" fill="#5b6072"/><path d="m340 140v60h-220v-60zm0 0" fill="#fcd884"/><g fill="#eabf6a"><path d="m129.332031 151h210.667969v-11h-220v60h9.332031zm0 0"/><path d="m250 319.5c-2.761719 0-5 2.238281-5 5v135.011719c3.355469-.214844 6.6875-.507813 10-.867188v-134.144531c0-2.761719-2.238281-5-5-5zm0 0"/><path d="m210 319.5c-2.761719 0-5 2.238281-5 5v134.144531c3.3125.359375 6.644531.652344 10 .867188v-135.011719c0-2.761719-2.238281-5-5-5zm0 0"/></g><path d="m6.667969 240.332031c0-127.027343 102.96875-230 229.996093-230 79 0 148.6875 39.832031 190.097657 100.5-40.324219-66.441406-113.359375-110.832031-196.761719-110.832031-127.03125 0-230 102.96875-230 230 0 48.160156 14.804688 92.859375 40.109375 129.804688-21.214844-34.820313-33.441406-75.714844-33.441406-119.472657zm0 0" fill="#d65b5b"/><path d="m296.664062 419.214844c75.144532-25.101563 129.304688-96.011719 129.304688-179.582032 0-39.953124-12.390625-77.011718-33.519531-107.554687 17.042969 28.417969 26.851562 61.671875 26.851562 97.222656 0 83.570313-54.160156 154.480469-129.300781 179.578125v43.199219c2.238281-.601563 4.457031-1.25 6.664062-1.917969zm0 0" fill="#d65b5b"/><path d="m74.21875 336.855469c21.832031 36.390625 55.542969 64.839843 95.78125 79.988281v-7.964844c-39.214844-13.097656-72.710938-38.683594-95.78125-72.023437zm0 0" fill="#d65b5b"/><path d="m310 115h-160c-2.761719 0-5-2.238281-5-5s2.238281-5 5-5h160c2.761719 0 5 2.238281 5 5s-2.238281 5-5 5zm0 0" fill="#fcd884"/></svg>