<?xml version="1.0" encoding="iso-8859-1"?>
<!-- Generator: Adobe Illustrator 21.0.0, SVG Export Plug-In . SVG Version: 6.00 Build 0)  -->
<svg xmlns="http://www.w3.org/2000/svg" xmlns:xlink="http://www.w3.org/1999/xlink" version="1.1" id="Capa_1" x="0px" y="0px" viewBox="0 0 512 512" style="enable-background:new 0 0 512 512;" xml:space="preserve" width="512" height="512">
<g>
	<circle style="fill:#7CCCF2;" cx="267.528" cy="241.354" r="181.931"/>
	<circle style="fill:#EBEEF2;" cx="267.528" cy="241.354" r="149.652"/>
	<path style="fill:#243B5D;" d="M438.326,401.662c-3.159-2.783-3.474-7.587-0.691-10.745l0,0c2.783-3.158,7.586-3.473,10.745-0.69   l0,0c3.158,2.783,3.473,7.597,0.69,10.755l0,0c-1.503,1.706-3.605,2.58-5.718,2.58l0,0   C441.566,403.562,439.768,402.942,438.326,401.662z M457.877,377.907c-3.494-2.346-4.428-7.079-2.082-10.572l0,0   c2.346-3.494,7.069-4.428,10.562-2.082l0,0c3.494,2.336,4.428,7.069,2.092,10.562l0,0c-1.472,2.194-3.88,3.382-6.337,3.382l0,0   C460.65,379.197,459.177,378.781,457.877,377.907z M474.157,351.785c-3.768-1.859-5.312-6.429-3.453-10.207l0,0   c1.869-3.768,6.439-5.312,10.207-3.453l0,0c3.768,1.869,5.312,6.439,3.453,10.207l0,0c-1.33,2.691-4.032,4.245-6.835,4.245l0,0   C476.392,352.577,475.244,352.323,474.157,351.785z M486.873,323.754c-3.992-1.351-6.124-5.677-4.774-9.659l0,0   c1.351-3.981,5.678-6.114,9.659-4.773l0,0c3.981,1.351,6.124,5.677,4.773,9.669l0,0c-1.076,3.169-4.042,5.169-7.221,5.169l0,0   C488.508,324.16,487.675,324.028,486.873,323.754z M495.77,294.29c-4.133-0.812-6.815-4.824-6.002-8.947l0,0   c0.812-4.124,4.814-6.815,8.937-6.003l0,0c4.134,0.812,6.815,4.814,6.003,8.948l0,0c-0.711,3.626-3.9,6.144-7.465,6.144l0,0   C496.755,294.433,496.257,294.382,495.77,294.29z M500.695,263.903c-4.194-0.264-7.384-3.88-7.119-8.084l0,0   c0.264-4.194,3.88-7.384,8.084-7.119l0,0c4.194,0.264,7.384,3.88,7.119,8.084l0,0c-0.254,4.032-3.605,7.13-7.597,7.13l0,0   C501.031,263.913,500.858,263.913,500.695,263.903z M493.525,226.051c-0.284-4.194,2.895-7.82,7.089-8.105l0,0   c4.195-0.284,7.83,2.895,8.105,7.089l0,0c0.285,4.205-2.894,7.83-7.089,8.115l0,0c-0.173,0.01-0.345,0.01-0.518,0.01l0,0   C497.141,233.16,493.789,230.083,493.525,226.051z M489.605,196.567c-0.823-4.133,1.848-8.145,5.972-8.968l0,0   c4.123-0.833,8.135,1.848,8.968,5.972l0,0c0.823,4.123-1.848,8.135-5.972,8.968l0,0c-0.508,0.091-1.016,0.142-1.503,0.142l0,0   C493.515,202.681,490.326,200.183,489.605,196.567z M481.835,167.855h0.01c-1.371-3.981,0.752-8.318,4.733-9.679l0,0   c3.971-1.361,8.308,0.751,9.669,4.732l0,0c1.371,3.981-0.752,8.318-4.733,9.679l0,0c-0.812,0.284-1.645,0.416-2.468,0.416l0,0   C485.878,173.004,482.922,171.014,481.835,167.855z M470.359,140.413c-1.879-3.758-0.355-8.338,3.413-10.217l0,0   c3.768-1.869,8.338-0.345,10.217,3.423l0,0c1.879,3.768,0.345,8.338-3.423,10.217l0,0c-1.087,0.538-2.244,0.802-3.392,0.802l0,0   C474.381,144.638,471.689,143.095,470.359,140.413z M455.368,114.738h-0.01c-2.346-3.484-1.432-8.227,2.051-10.573l0,0   c3.484-2.356,8.227-1.442,10.583,2.041l0,0c2.346,3.494,1.432,8.227-2.052,10.583l0,0c-1.31,0.883-2.793,1.3-4.255,1.3l0,0   C459.238,118.09,456.831,116.922,455.368,114.738z M437.138,91.226c-2.793-3.148-2.498-7.962,0.65-10.745l0,0   c3.149-2.793,7.962-2.499,10.755,0.65l0,0c2.783,3.149,2.499,7.963-0.66,10.745l0,0c-1.442,1.29-3.25,1.92-5.047,1.92l0,0   C440.733,93.796,438.641,92.923,437.138,91.226z M105.556,72.143c-2.813-3.138-2.559-7.952,0.579-10.755l0,0   c3.128-2.813,7.942-2.549,10.755,0.579l0,0c2.803,3.128,2.549,7.943-0.579,10.756l0,0c-1.462,1.31-3.28,1.95-5.089,1.95l0,0   C109.131,74.672,107.059,73.819,105.556,72.143z M415.992,70.294c-3.179-2.762-3.514-7.577-0.751-10.755l0,0   c2.752-3.169,7.566-3.514,10.745-0.752l0,0c3.169,2.763,3.514,7.567,0.752,10.745l0,0c-1.503,1.737-3.626,2.62-5.749,2.62l0,0   C419.212,72.153,417.435,71.544,415.992,70.294z M129.119,52.358c-2.376-3.473-1.483-8.216,1.981-10.593l0,0   c3.473-2.377,8.216-1.493,10.593,1.98l0,0c2.377,3.474,1.493,8.217-1.98,10.593l0,0c-1.321,0.894-2.813,1.331-4.296,1.331l0,0   C132.989,55.67,130.592,54.512,129.119,52.358z M392.298,52.287c-3.514-2.326-4.469-7.048-2.153-10.562l0,0   c2.316-3.504,7.049-4.469,10.552-2.143l0,0c3.514,2.315,4.479,7.038,2.153,10.552l0,0c-1.462,2.214-3.89,3.413-6.358,3.413l0,0   C395.05,53.547,393.588,53.14,392.298,52.287z M155.068,35.814c-1.899-3.748-0.396-8.328,3.362-10.237l0,0   c3.748-1.899,8.328-0.396,10.238,3.362l0,0c1.899,3.748,0.396,8.328-3.351,10.227v0.01c-1.107,0.559-2.285,0.823-3.443,0.823l0,0   C159.09,39.998,156.419,38.465,155.068,35.814z M366.45,37.531c-3.788-1.838-5.363-6.399-3.524-10.177l0,0   c1.848-3.778,6.398-5.363,10.186-3.514l0,0c3.778,1.838,5.363,6.388,3.515,10.177l0,0c-1.31,2.712-4.032,4.286-6.855,4.286l0,0   C368.654,38.302,367.527,38.059,366.45,37.531z M182.968,22.834c-1.381-3.971,0.711-8.318,4.682-9.709l0,0   c3.961-1.381,8.308,0.711,9.7,4.682l0,0c1.391,3.961-0.701,8.308-4.672,9.7l0,0c-0.833,0.295-1.686,0.426-2.519,0.426l0,0   C187.01,27.933,184.074,25.972,182.968,22.834z M338.886,26.318c-3.992-1.321-6.155-5.637-4.835-9.628l0,0   c1.321-3.992,5.637-6.155,9.628-4.835l0,0c3.992,1.331,6.155,5.637,4.835,9.628l0,0c-1.066,3.199-4.042,5.22-7.231,5.22l0,0   C340.491,26.704,339.678,26.582,338.886,26.318z M212.339,13.653c-0.853-4.123,1.788-8.155,5.911-9.009l0,0l0,0l0,0   c4.123-0.853,8.145,1.798,8.999,5.911l0,0c0.853,4.123-1.788,8.155-5.911,9.008l0,0c-0.518,0.102-1.036,0.163-1.554,0.163l0,0   C216.25,19.726,213.081,17.248,212.339,13.653z M310.093,18.843c-4.124-0.782-6.845-4.773-6.053-8.907l0,0   c0.782-4.133,4.774-6.845,8.907-6.063l0,0c4.123,0.792,6.845,4.773,6.053,8.907l0,0c-0.691,3.656-3.89,6.195-7.475,6.195l0,0   C311.058,18.975,310.581,18.934,310.093,18.843z M242.656,8.412c-0.305-4.194,2.844-7.84,7.038-8.145l0,0l0,0l0,0   c4.194-0.304,7.851,2.844,8.155,7.038l0,0c0.304,4.194-2.854,7.851-7.048,8.156l0,0c-0.183,0.01-0.376,0.02-0.559,0.02l0,0   C246.292,15.481,242.95,12.424,242.656,8.412z M280.569,15.217L280.569,15.217c-4.195-0.234-7.414-3.829-7.17-8.034l0,0   c0.234-4.204,3.829-7.414,8.034-7.17l0,0c4.204,0.234,7.414,3.829,7.17,8.034l0,0c-0.223,4.053-3.585,7.191-7.597,7.191l0,0   C280.864,15.237,280.711,15.228,280.569,15.217z"/>
	<g>
		<path style="fill:#EC6B59;" d="M251.013,373.312l-23.653,23.653c-9.939,9.939-25.568,11.557-37.202,3.671    c-14.377-9.746-27.431-20.338-42.054-34.961c-16.115-16.115-27.69-30.671-38.208-46.771c-7.615-11.657-5.978-27.073,3.868-36.919    l22.961-22.961c10.499-10.499,10.499-27.522,0-38.021l-49.38-49.38c-12.663-12.663-33.33-12.126-45.364,1.136    c-16.628,18.324-30.695,38.784-36.326,62.564c-1.389,5.866-20.763,97.466,77.285,195.515    c104.795,104.795,189.649,78.674,195.515,77.285c23.78-5.631,44.24-19.697,62.564-36.326    c13.262-12.034,13.799-32.702,1.136-45.364l-53.121-53.121C278.535,362.812,261.512,362.812,251.013,373.312z"/>
		<path style="fill:#BC4142;" d="M342.155,426.433l-22.193-22.193c11.648,11.648,10.304,31.509-2.908,43.592    c-18.257,16.697-38.46,31.019-61.513,37.377c-5.568,1.536-84.782,28.867-178.577-60.491c1.942,2.037,3.934,4.077,5.977,6.12    c104.795,104.795,189.649,78.674,195.514,77.285c23.78-5.631,44.24-19.697,62.564-36.326    C354.281,459.763,354.818,439.095,342.155,426.433z"/>
		<path style="fill:#F77F72;" d="M41.981,172.758c-2.924,3.222-5.769,6.511-8.502,9.872l89.82,89.82l13.427-13.427    c10.499-10.499,10.499-27.522,0-38.021l-49.38-49.38C74.682,158.96,54.015,159.497,41.981,172.758z"/>
		<path style="fill:#F77F72;" d="M342.155,426.432l-53.121-53.121c-10.499-10.499-27.522-10.499-38.021,0l-13.427,13.427    l93.561,93.561c3.361-2.734,6.65-5.578,9.872-8.502C354.281,459.763,354.818,439.095,342.155,426.432z"/>
		<path style="fill:#D3584A;" d="M342.155,426.433l-22.193-22.193c11.648,11.648,10.304,31.509-2.908,43.592    c-3.21,2.936-6.481,5.799-9.817,8.557l23.91,23.91c3.211-2.612,6.215-5.205,9.302-7.986    C355.01,459.174,354.308,438.585,342.155,426.433z"/>
	</g>
	<circle style="fill:#6FBC89;" cx="77.452" cy="109.109" r="20.411"/>
	<circle style="fill:#F4D34C;" cx="406.9" cy="425.198" r="20.411"/>
	<g>
		<path style="fill:#223372;" d="M243.563,174.763h-53.851c-4.207,0-7.617,3.41-7.617,7.617s3.41,7.617,7.617,7.617h46.234v43.739    h-46.234c-4.207,0-7.617,3.41-7.617,7.617v58.974c0,4.207,3.41,7.617,7.617,7.617h53.851c4.207,0,7.617-3.41,7.617-7.617    c0-4.207-3.41-7.617-7.617-7.617h-46.234v-43.739h46.234c4.207,0,7.617-3.41,7.617-7.617v-58.974    C251.18,178.174,247.77,174.763,243.563,174.763z"/>
		<path style="fill:#223372;" d="M345.344,174.763c-4.207,0-7.617,3.41-7.617,7.617v51.357h-38.618v-51.357    c0-4.207-3.41-7.617-7.617-7.617c-4.207,0-7.617,3.41-7.617,7.617v58.974c0,4.207,3.41,7.617,7.617,7.617h46.235v51.357    c0,4.207,3.41,7.617,7.617,7.617c4.207,0,7.617-3.41,7.617-7.617V182.381C352.961,178.174,349.551,174.763,345.344,174.763z"/>
	</g>
</g>















</svg>
