<svg height="512pt" viewBox="-13 0 512 512" width="512pt" xmlns="http://www.w3.org/2000/svg"><path d="m486.441406 256.417969v122.554687c-87.6875 0-162.429687 55.359375-191.207031 133.027344h-295.234375v-473.609375c0-21.203125 17.1875-38.390625 38.390625-38.390625h244.203125c12.363281 0 23.972656 5.953125 31.183594 15.996094zm0 0" fill="#fbd25f"/><path d="m98.3125 0c-21.210938 0-38.398438 17.1875-38.398438 38.390625v473.609375h-59.914062v-473.609375c0-21.203125 17.1875-38.390625 38.398438-38.390625zm0 0" fill="#f99041"/><path d="m355.035156 256.417969h-270.929687c-9.289063 0-17.648438-3.980469-23.46875-10.324219-5.214844-5.671875-8.390625-13.226562-8.390625-21.535156v-144.792969c0-15.203125 12.316406-27.519531 27.519531-27.519531h174.300781c5.058594 0 10 .917968 14.617188 2.640625 7.660156 2.863281 14.410156 7.941406 19.300781 14.753906l13.425781 18.707031 48.222656 67.144532 33.355469 46.445312c16.351563 22.757812.082031 54.480469-27.953125 54.480469zm0 0" fill="#d4eff4"/><path d="m268.683594 54.886719-157.371094 201.53125h-27.207031c-9.289063 0-17.648438-3.980469-23.46875-10.324219l151.363281-193.847656h42.066406c5.058594 0 10 .917968 14.617188 2.640625zm0 0" fill="#f0fdff"/><path d="m349.632812 155.492188-78.804687 100.925781h-100.644531l131.226562-168.070313zm0 0" fill="#f0fdff"/><path d="m353.1875 264.253906h-269.085938c-21.886718 0-39.695312-17.804687-39.695312-39.691406v-144.792969c0-19.5 15.863281-35.363281 35.363281-35.363281h174.296875c15.929688 0 30.988282 7.726562 40.28125 20.667969l93.929688 130.785156c9.496094 13.222656 10.777344 30.429687 3.347656 44.914063-7.429688 14.484374-22.15625 23.480468-38.4375 23.480468zm-273.417969-204.171875c-10.855469 0-19.6875 8.832031-19.6875 19.6875v144.792969c0 13.242188 10.773438 24.019531 24.019531 24.019531h269.085938c10.53125 0 19.683594-5.59375 24.492188-14.960937 4.804687-9.371094 4.007812-20.066406-2.132813-28.617188l-93.929687-130.789062c-6.355469-8.847656-16.65625-14.132813-27.550782-14.132813zm0 0" fill="#f99041"/><path d="m173.609375 307.722656c0 11.839844-4.796875 22.570313-12.558594 30.335938-7.765625 7.75-18.484375 12.558594-30.335937 12.558594h-35.578125c-23.6875 0-42.890625-19.207032-42.890625-42.894532zm0 0" fill="#f99041"/><path d="m173.609375 297.273438c0 11.839843-4.796875 22.570312-12.558594 30.332031-7.765625 7.753906-18.484375 12.5625-30.335937 12.5625h-35.578125c-23.6875 0-42.890625-19.207031-42.890625-42.894531zm0 0" fill="#ccc"/><path d="m173.609375 297.273438c0 11.839843-4.796875 22.570312-12.558594 30.332031-7.765625 7.753906-18.484375 12.5625-30.335937 12.5625h-6.300782c-23.6875 0-42.890624-19.207031-42.890624-42.894531zm0 0" fill="#e6e6e6"/></svg>