<svg height="504pt" viewBox="0 0 504 504" width="504pt" xmlns="http://www.w3.org/2000/svg"><path d="m324 428c0 39.765625-32.234375 72-72 72s-72-32.234375-72-72 32.234375-72 72-72 72 32.234375 72 72zm0 0" fill="#fed88c"/><path d="m148 428c0 39.765625-32.234375 72-72 72s-72-32.234375-72-72 32.234375-72 72-72 72 32.234375 72 72zm0 0" fill="#fed88c"/><path d="m500 428c0 39.765625-32.234375 72-72 72s-72-32.234375-72-72 32.234375-72 72-72 72 32.234375 72 72zm0 0" fill="#fed88c"/><path d="m428 484c-37.054688 0-67.546875-28.003906-71.53125-64-.292969 2.628906-.46875 5.292969-.46875 8 0 39.765625 32.234375 72 72 72s72-32.234375 72-72c0-2.707031-.179688-5.371094-.46875-8-3.984375 35.996094-34.476562 64-71.53125 64zm0 0" fill="#fecb66"/><path d="m252 484c-37.054688 0-67.546875-28.003906-71.53125-64-.292969 2.628906-.46875 5.292969-.46875 8 0 39.765625 32.234375 72 72 72s72-32.234375 72-72c0-2.707031-.179688-5.371094-.46875-8-3.984375 35.996094-34.476562 64-71.53125 64zm0 0" fill="#fecb66"/><path d="m76 484c-37.054688 0-67.546875-28.003906-71.53125-64-.289062 2.628906-.46875 5.292969-.46875 8 0 39.765625 32.234375 72 72 72s72-32.234375 72-72c0-2.707031-.179688-5.371094-.46875-8-3.984375 35.996094-34.476562 64-71.53125 64zm0 0" fill="#fecb66"/><path d="m352 104c0 55.226562-44.773438 100-100 100s-100-44.773438-100-100 44.773438-100 100-100 100 44.773438 100 100zm0 0" fill="#fed88c"/><path d="m252 188c-52.53125 0-95.570312-40.515625-99.652344-92-.210937 2.644531-.347656 5.304688-.347656 8 0 55.226562 44.773438 100 100 100s100-44.773438 100-100c0-2.695312-.136719-5.355469-.347656-8-4.082032 51.484375-47.121094 92-99.652344 92zm0 0" fill="#fecb66"/><g fill="#342311"><path d="m248 372v16h-20v22c0 12.128906 9.871094 22 22 22h4c7.71875 0 14 6.28125 14 14v14h-18c-7.71875 0-14-6.28125-14-14v-2h-8v2c0 11.453125 8.804688 20.882812 20 21.898438v16.101562h8v-16h20v-22c0-12.128906-9.871094-22-22-22h-4c-7.71875 0-14-6.28125-14-14v-14h18c7.71875 0 14 6.28125 14 14v2h8v-2c0-11.453125-8.804688-20.882812-20-21.898438v-16.101562zm0 0"/><path d="m292 424h8v8h-8zm0 0"/><path d="m204 424h8v8h-8zm0 0"/><path d="m72 372v16h-20v22c0 12.128906 9.871094 22 22 22h4c7.71875 0 14 6.28125 14 14v14h-18c-7.71875 0-14-6.28125-14-14v-2h-8v2c0 11.453125 8.804688 20.882812 20 21.898438v16.101562h8v-16h20v-22c0-12.128906-9.871094-22-22-22h-4c-7.71875 0-14-6.28125-14-14v-14h18c7.71875 0 14 6.28125 14 14v2h8v-2c0-11.453125-8.804688-20.882812-20-21.898438v-16.101562zm0 0"/><path d="m116 424h8v8h-8zm0 0"/><path d="m28 424h8v8h-8zm0 0"/><path d="m432 352.203125v-32.203125c0-24.261719-19.738281-44-44-44h-132v-68.101562c55.5-2.109376 100-47.894532 100-103.898438 0-57.34375-46.652344-104-104-104s-104 46.65625-104 104c0 56.003906 44.5 101.789062 100 103.898438v68.101562h-132c-24.261719 0-44 19.738281-44 44v32.203125c-40.042969 2.101563-72 35.242187-72 75.796875 0 41.90625 34.09375 76 76 76s76-34.09375 76-76c0-40.554688-31.957031-73.695312-72-75.796875v-32.203125c0-19.851562 16.148438-36 36-36h132v68.203125c-40.042969 2.101563-72 35.242187-72 75.796875 0 41.90625 34.09375 76 76 76s76-34.09375 76-76c0-40.554688-31.957031-73.695312-72-75.796875v-68.203125h132c19.851562 0 36 16.148438 36 36v32.203125c-40.042969 2.101563-72 35.242187-72 75.796875 0 41.90625 34.09375 76 76 76s76-34.09375 76-76c0-40.554688-31.957031-73.695312-72-75.796875zm-276-248.203125c0-52.933594 43.066406-96 96-96s96 43.066406 96 96-43.066406 96-96 96-96-43.066406-96-96zm-12 324c0 37.496094-30.503906 68-68 68s-68-30.503906-68-68 30.503906-68 68-68 68 30.503906 68 68zm176 0c0 37.496094-30.503906 68-68 68s-68-30.503906-68-68 30.503906-68 68-68 68 30.503906 68 68zm108 68c-37.496094 0-68-30.503906-68-68s30.503906-68 68-68 68 30.503906 68 68-30.503906 68-68 68zm0 0"/><path d="m432 388.101562v-16.101562h-8v16h-20v22c0 12.128906 9.871094 22 22 22h4c7.71875 0 14 6.28125 14 14v14h-18c-7.71875 0-14-6.28125-14-14v-2h-8v2c0 11.453125 8.804688 20.882812 20 21.898438v16.101562h8v-16h20v-22c0-12.128906-9.871094-22-22-22h-4c-7.71875 0-14-6.28125-14-14v-14h18c7.71875 0 14 6.28125 14 14v2h8v-2c0-11.453125-8.804688-20.882812-20-21.898438zm0 0"/><path d="m468 424h8v8h-8zm0 0"/><path d="m380 424h8v8h-8zm0 0"/><path d="m256 176v-16h32v-30c0-16.542969-13.457031-30-30-30h-12c-12.128906 0-22-9.867188-22-22v-22h34c12.128906 0 22 9.867188 22 22v6h8v-6c0-16.542969-13.457031-30-30-30h-2v-16h-8v16h-32v30c0 16.542969 13.457031 30 30 30h12c12.128906 0 22 9.867188 22 22v22h-34c-12.128906 0-22-9.867188-22-22v-6h-8v6c0 16.542969 13.457031 30 30 30h2v16zm0 0"/><path d="m308 100h8v8h-8zm0 0"/><path d="m192 100h8v8h-8zm0 0"/><path d="m404 156h8v16h-8zm0 0"/><path d="m382.539062 168.203125 5.65625-5.65625 11.3125 11.3125-5.65625 5.65625zm0 0"/><path d="m376 184h16v8h-16zm0 0"/><path d="m382.539062 207.800781 11.316407-11.3125 5.65625 5.65625-11.316407 11.316407zm0 0"/><path d="m404 204h8v16h-8zm0 0"/><path d="m416.488281 202.160156 5.65625-5.660156 11.3125 11.3125-5.65625 5.660156zm0 0"/><path d="m424 184h16v8h-16zm0 0"/><path d="m416.480469 173.855469 11.316406-11.3125 5.65625 5.65625-11.316406 11.316406zm0 0"/><path d="m96 20h8v16h-8zm0 0"/><path d="m74.542969 32.207031 5.65625-5.660156 11.3125 11.3125-5.65625 5.65625zm0 0"/><path d="m68 48h16v8h-16zm0 0"/><path d="m74.542969 71.796875 11.3125-11.3125 5.65625 5.65625-11.3125 11.3125zm0 0"/><path d="m96 68h8v16h-8zm0 0"/><path d="m108.488281 66.148438 5.65625-5.65625 11.3125 11.308593-5.65625 5.660157zm0 0"/><path d="m116 48h16v8h-16zm0 0"/><path d="m108.484375 37.855469 11.3125-11.3125 5.65625 5.65625-11.3125 11.3125zm0 0"/><path d="m88 140h8v16h-8zm0 0"/><path d="m88 172h8v16h-8zm0 0"/><path d="m100 160h16v8h-16zm0 0"/><path d="m68 160h16v8h-16zm0 0"/><path d="m376 16h8v16h-8zm0 0"/><path d="m376 48h8v16h-8zm0 0"/><path d="m388 36h16v8h-16zm0 0"/><path d="m356 36h16v8h-16zm0 0"/><path d="m272 300h8v8h-8zm0 0"/><path d="m296 300h8v8h-8zm0 0"/><path d="m320 300h8v8h-8zm0 0"/><path d="m176 300h8v8h-8zm0 0"/><path d="m200 300h8v8h-8zm0 0"/><path d="m224 300h8v8h-8zm0 0"/></g></svg>