<svg height="465pt" viewBox="-27 0 464 465" width="465pt" xmlns="http://www.w3.org/2000/svg"><path d="m185.5 435h60v30h-60zm0 0" fill="#95a5a5"/><path d="m192.75 442.582031h52.75v-7.582031h-60v30h7.25zm0 0" fill="#7e8c8d"/><path d="m265.5 405v30h-110v-30zm0 0" fill="#57606f"/><path d="m163.082031 412.75h102.417969v-7.75h-110v30h7.582031zm0 0" fill="#414a56"/><path d="m265.5 375v30h-110v-30zm0 0" fill="#95a5a5"/><path d="m162.125 381.582031h103.375v-6.582031h-110v30h6.625zm0 0" fill="#7e8c8d"/><path d="m265.5 320.351562v54.648438h-40v-41.53125c14.230469-2.199219 27.691406-6.699219 40-13.117188zm0 0" fill="#febe76"/><path d="m231.625 338.96875c11.910156-1.839844 23.269531-5.3125 33.875-10.152344v-8.464844c-12.308594 6.417969-25.769531 10.917969-40 13.117188v41.53125h6.125zm0 0" fill="#e8a664"/><path d="m195.5 334.621094v40.378906h-40v-49.96875c12.46875 5.207031 25.921875 8.519531 40 9.589844zm0 0" fill="#febe76"/><path d="m161.75 333.863281c10.609375 4.433594 21.9375 7.476563 33.75 8.945313v-8.1875c-14.078125-1.070313-27.53125-4.382813-40-9.589844v49.96875h6.25zm0 0" fill="#e8a664"/><path d="m225.5 333.46875v41.53125h-30v-40.378906c3.300781.25 6.628906.378906 10 .378906 6.800781 0 13.480469-.519531 20-1.53125zm0 0" fill="#fcd884"/><path d="m201.625 341.152344c3.300781.25 6.628906.378906 10 .378906 4.6875 0 9.3125-.265625 13.875-.75v-7.3125c-6.519531 1.011719-13.199219 1.53125-20 1.53125-3.371094 0-6.699219-.132812-10-.382812v40.382812h6.125zm0 0" fill="#eabf6a"/><path d="m225.5 225v108.46875c-6.519531 1.011719-13.199219 1.53125-20 1.53125-3.371094 0-6.699219-.128906-10-.378906v-109.621094zm0 0" fill="#febe76"/><path d="m203.429688 233.75h22.070312v-8.75h-30v109.621094c2.621094.195312 5.265625.296875 7.929688.339844zm0 0" fill="#e8a664"/><path d="m205.5 75c71.800781 0 130 58.199219 130 130 0 .871094-.011719 1.730469-.03125 2.601562 0 .449219-.019531.898438-.027344 1.347657-.011718.359375-.019531.722656-.039062 1.082031-.023438.660156-.050782 1.320312-.09375 1.980469-.039063.757812-.078125 1.519531-.136719 2.269531-.050781.789062-.113281 1.578125-.183594 2.367188-.066406.761718-.148437 1.511718-.226562 2.273437-.082031.757813-.171875 1.519531-.261719 2.277344-.078125.660156-.171875 1.320312-.261719 1.980469-.128906.921874-.269531 1.839843-.417969 2.75-.082031.519531-.171874 1.03125-.261718 1.550781-.179688 1.039062-.367188 2.070312-.578125 3.097656-.109375.59375-.242188 1.191406-.371094 1.78125-.160156.75-.320313 1.5-.5 2.25-.167969.742187-.351563 1.460937-.53125 2.191406-.15625.648438-.328125 1.300781-.5 1.9375-.027344.121094-.058594.242188-.089844.351563-.1875.691406-.378906 1.371094-.578125 2.039062-.199218.722656-.421875 1.429688-.640625 2.152344-.191406.628906-.390625 1.269531-.601562 1.898438-.058594.179687-.109375.351562-.179688.53125-.179687.578124-.378906 1.148437-.570312 1.71875-.257813.761718-.527344 1.519531-.808594 2.269531-.242187.660156-.492187 1.332031-.75 1.992187-.539063 1.40625-1.101563 2.796875-1.691406 4.179688-.277344.648437-.558594 1.300781-.847657 1.949218-.300781.667969-.601562 1.339844-.910156 2.007813-.359375.773437-.730468 1.53125-1.101562 2.292969-.238282.476562-.46875.957031-.71875 1.4375-.441406.882812-.890625 1.75-1.359375 2.621094-.273438.5-.542969 1-.8125 1.488281-.351563.640625-.710938 1.28125-1.078125 1.921875-.28125.488281-.5625.980468-.851563 1.46875-.832031 1.402344-1.679687 2.78125-2.5625 4.140625-.390625.621093-.789062 1.230469-1.199219 1.832031-.25.390625-.507812.777344-.777343 1.160156-.183594.257813-.359375.519532-.542969.777344-.289062.429688-.589844.859375-.898438 1.28125-.261718.378906-.539062.757812-.808593 1.128906-2.382813 3.289063-4.921875 6.449219-7.601563 9.488282-.449218.523437-.910156 1.03125-1.371094 1.542968-2.539062 2.800782-5.210937 5.476563-7.988281 8.050782-.449219.417968-.898437.828124-1.359375 1.238281-.398437.359375-.800781.71875-1.199218 1.070312-2.160157 1.898438-4.402344 3.726563-6.691407 5.488281-.351562.261719-.699219.53125-1.058593.789063-.882813.671875-1.773438 1.332031-2.683594 1.960937-.378906.28125-.769532.550782-1.167969.820313-.898437.640625-1.8125 1.261719-2.738281 1.859375-.609375.398438-1.222656.800781-1.84375 1.191406-1.226563.777344-2.476563 1.539063-3.738282 2.277344-.628906.371094-1.261718.730469-1.898437 1.089844-.628906.359375-1.261719.710937-1.890625 1.0625-.011719 0-.019531.007812-.03125.007812-.640625.351563-1.289062.691406-1.9375 1.03125-12.3125 6.417969-25.769531 10.917969-40 13.121094v-108.46875h-30v109.621094c-14.082031-1.070313-27.53125-4.382813-40-9.589844-1.472656-.609375-2.921875-1.25-4.359375-1.910156-.722656-.339844-1.441406-.671875-2.152344-1.023438-.71875-.339844-1.417969-.6875-2.128906-1.046875-.648437-.332031-1.289063-.660156-1.941406-1-.070313-.042969-.148438-.070312-.21875-.121093-.679688-.359376-1.359375-.730469-2.03125-1.101563-.167969-.089844-.339844-.179687-.507813-.277344-.519531-.292969-1.042968-.589843-1.550781-.882812-.628906-.359375-1.25-.726563-1.871094-1.097657-.738281-.441406-1.460937-.882812-2.179687-1.339843-.667969-.410157-1.328125-.84375-1.988282-1.273438-.582031-.378906-1.171874-.769531-1.75-1.160156-.441406-.289063-.871093-.589844-1.292968-.890625-.429688-.289062-.859375-.589844-1.277344-.898438-3.699219-2.621093-7.261719-5.4375-10.652344-8.4375-.507812-.441406-1.007812-.890624-1.507812-1.339843-4.230469-3.851563-8.210938-7.972657-11.902344-12.34375-.660156-.777344-1.308594-1.566407-1.949219-2.359375-1.320312-1.628906-2.597656-3.296875-3.839843-5.007813-.609376-.839843-1.21875-1.691406-1.808594-2.550781-1.582032-2.269531-3.089844-4.601562-4.519532-6.980469-.402343-.660156-.792968-1.308593-1.179687-1.980469-.402344-.707031-.8125-1.429687-1.210937-2.148437-.332032-.601563-.660157-1.210937-.992188-1.828125-.429688-.8125-.859375-1.621094-1.269531-2.441406-.339844-.667969-.667969-1.339844-.988281-2.011719-.039063-.066406-.070313-.148437-.109376-.21875-.3125-.640625-.609374-1.28125-.910156-1.929687-.332031-.71875-.660156-1.441407-.980468-2.171876-.242188-.546874-.480469-1.097656-.710938-1.660156-.191406-.4375-.378906-.886718-.558594-1.339844-1.222656-2.96875-2.332031-6-3.332031-9.078124-.390625-1.210938-.769531-2.441407-1.128906-3.671876-.230469-.769531-.449219-1.546874-.660157-2.328124-.011718-.039063-.019531-.089844-.039062-.140626-.191406-.730468-.390625-1.460937-.570312-2.199218-.199219-.78125-.390626-1.570313-.570313-2.359375-.210937-.882813-.398437-1.75-.582031-2.640625-.148438-.699219-.296875-1.421875-.429688-2.128906-.007812-.03125-.019531-.070313-.019531-.101563-.148437-.761719-.289063-1.53125-.417969-2.308594-.132812-.722656-.25-1.453125-.359375-2.183593-.042969-.207032-.070312-.417969-.101562-.628907-.101563-.679687-.199219-1.359375-.289063-2.050781-.109375-.808594-.210937-1.628906-.300781-2.449219-.011719-.019531-.011719-.039062-.011719-.058593-.089844-.800782-.179687-1.601563-.25-2.410157-.070312-.71875-.136718-1.441406-.1875-2.160156-.019531-.21875-.042968-.441406-.050781-.660156-.058594-.710938-.101563-1.429688-.140625-2.148438-.050781-.78125-.089844-1.570312-.109375-2.363281-.011719-.109375-.019531-.207031-.019531-.308594-.019532-.660156-.039063-1.320312-.0625-1.980468 0-.300782-.007813-.589844-.007813-.890626-.011719-.667968-.019531-1.339843-.019531-2.007812 0-71.800781 58.199219-130 130-130zm0 0" fill="#fcd884"/><path d="m98.617188 278.863281c-.429688-.808593-.859376-1.617187-1.269532-2.4375-.339844-.667969-.667968-1.339843-.988281-2.011719-.039063-.066406-.070313-.148437-.109375-.21875-.3125-.640624-.609375-1.28125-.910156-1.929687-.332032-.722656-.660156-1.441406-.980469-2.171875-.242187-.550781-.480469-1.097656-.710937-1.660156-.1875-.4375-.378907-.890625-.558594-1.339844-1.222656-2.96875-2.332032-6-3.332032-9.078125-.390624-1.210937-.769531-2.441406-1.128906-3.671875-.230468-.769531-.449218-1.550781-.660156-2.328125-.007812-.042969-.019531-.089844-.039062-.140625-.191407-.730469-.390626-1.460938-.570313-2.199219-.199219-.78125-.390625-1.570312-.570313-2.359375-.210937-.882812-.398437-1.75-.578124-2.640625-.152344-.699219-.300782-1.421875-.433594-2.132812-.007813-.027344-.019532-.066407-.019532-.097657-.148437-.761718-.289062-1.53125-.417968-2.3125-.128906-.71875-.25-1.449218-.359375-2.179687-.042969-.210937-.070313-.421875-.101563-.628906-.101562-.679688-.199218-1.359375-.289062-2.050781-.109375-.8125-.210938-1.628907-.300782-2.449219-.011718-.019531-.011718-.042969-.011718-.0625-.089844-.796875-.179688-1.597657-.25-2.410157-.066406-.71875-.136719-1.4375-.1875-2.160156-.019532-.21875-.039063-.4375-.050782-.660156-.058593-.707031-.101562-1.429688-.140624-2.148438-.050782-.78125-.089844-1.570312-.109376-2.359374-.011718-.109376-.019531-.210938-.019531-.308594-.019531-.660156-.039062-1.320313-.058593-1.980469 0-.300781-.011719-.589844-.011719-.890625-.011719-.671875-.019531-1.339844-.019531-2.011719 0-71.800781 58.199218-130 130-130 44.082031 0 83.03125 21.941407 106.539062 55.496094-21.964844-40.683594-64.984375-68.328125-114.46875-68.328125-71.800781 0-130 58.199219-130 130 0 .671875.011719 1.339844.019531 2.011719 0 .296875.011719.589843.011719.886719.019531.660156.039062 1.320312.058594 1.980468 0 .101563.011718.199219.019531.3125.019531.789063.0625 1.578125.109375 2.359375.042969.71875.082031 1.4375.140625 2.148438.011719.222656.03125.441406.050781.660156.050782.71875.121094 1.441406.191406 2.160156.070313.808594.160157 1.609375.25 2.410157 0 .019531 0 .039062.007813.058593.089844.820313.191406 1.640625.300781 2.453125.089844.6875.191406 1.367188.289063 2.046875.03125.210938.0625.421875.101562.632813.109375.730468.230469 1.457031.359375 2.179687.128906.777344.269532 1.550781.417969 2.308594 0 .03125.011719.070313.023437.101563.128907.710937.277344 1.429687.429688 2.128906.179688.890625.367188 1.761718.578125 2.640625.179687.789062.371094 1.578125.570313 2.359375.179687.738281.378906 1.46875.570312 2.199218.019531.050782.03125.101563.039062.140626.210938.78125.429688 1.5625.660157 2.332031.359375 1.226562.742187 2.457031 1.128906 3.667969 1 3.082031 2.113281 6.109374 3.332031 9.082031.179688.449219.371094.898437.558594 1.339843.230469.558594.472656 1.109376.710938 1.660157.320312.726562.648437 1.449219.980468 2.167969.300782.648437.601563 1.289062.910156 1.929687.039063.070313.070313.152344.109376.222656.320312.667969.648437 1.339844.992187 2.007813.40625.820312.839844 1.632812 1.269531 2.441406.328125.621094.660156 1.230469.988282 1.828125.398437.722656.808593 1.441406 1.210937 2.152344.390625.667969.78125 1.316406 1.179687 1.976562 1.429688 2.382813 2.941407 4.710938 4.519532 6.980469.117187.171875.242187.339844.359375.507812-.109375-.203124-.21875-.402343-.332031-.613281zm0 0" fill="#eabf6a"/><path d="m357.488281 340c-1.152343 0-2.308593-.394531-3.25-1.203125-2.097656-1.792969-2.34375-4.949219-.546875-7.050781 30.1875-35.257813 46.808594-80.269532 46.808594-126.746094 0-107.523438-87.476562-195-195-195s-195 87.476562-195 195c0 46.476562 16.625 91.488281 46.808594 126.746094 1.796875 2.101562 1.550781 5.257812-.546875 7.050781-2.097657 1.800781-5.253907 1.554687-7.050781-.542969-31.734376-37.070312-49.210938-84.394531-49.210938-133.253906 0-113.039062 91.960938-205 205-205 113.035156 0 205 91.960938 205 205 0 48.859375-17.476562 96.183594-49.210938 133.253906-.988281 1.152344-2.390624 1.746094-3.800781 1.746094zm0 0" fill="#3e3e3f"/><path d="m225.5 380c-2.761719 0-5-2.238281-5-5v-175c0-16.542969 13.457031-30 30-30 8.015625 0 15.550781 3.121094 21.214844 8.785156 5.664062 5.664063 8.785156 13.199219 8.785156 21.214844v5c0 2.761719-2.238281 5-5 5s-5-2.238281-5-5v-5c0-5.347656-2.078125-10.367188-5.855469-14.144531-3.777343-3.777344-8.796875-5.855469-14.144531-5.855469-11.027344 0-20 8.972656-20 20v175c0 2.761719-2.238281 5-5 5zm0 0" fill="#3e3e3f"/><path d="m195.5 380c-2.761719 0-5-2.238281-5-5v-175c0-11.027344-8.972656-20-20-20-5.34375 0-10.367188 2.078125-14.144531 5.855469-3.777344 3.773437-5.855469 8.800781-5.855469 14.144531v5c0 2.761719-2.238281 5-5 5s-5-2.238281-5-5v-5c0-8.015625 3.121094-15.550781 8.785156-21.214844 5.664063-5.667968 13.199219-8.785156 21.214844-8.785156 16.542969 0 30 13.457031 30 30v175c0 2.761719-2.238281 5-5 5zm0 0" fill="#3e3e3f"/><g fill="#eabf6a"><path d="m205.5 80c-2.761719 0-5-2.238281-5-5v-30c0-2.761719 2.238281-5 5-5s5 2.238281 5 5v30c0 2.761719-2.238281 5-5 5zm0 0"/><path d="m294.289062 111.210938c-1.277343 0-2.558593-.488282-3.535156-1.464844-1.953125-1.953125-1.953125-5.117188 0-7.070313l21.210938-21.210937c1.949218-1.953125 5.121094-1.953125 7.070312 0 1.953125 1.953125 1.953125 5.121094 0 7.070312l-21.210937 21.210938c-.972657.976562-2.253907 1.464844-3.535157 1.464844zm0 0"/><path d="m116.710938 111.210938c-1.28125 0-2.558594-.488282-3.535157-1.464844l-21.210937-21.210938c-1.953125-1.953125-1.953125-5.117187 0-7.070312s5.117187-1.953125 7.070312 0l21.210938 21.210937c1.953125 1.953125 1.953125 5.117188 0 7.070313-.976563.976562-2.257813 1.464844-3.535156 1.464844zm0 0"/><path d="m75.5 195h-30c-2.761719 0-5-2.238281-5-5s2.238281-5 5-5h30c2.761719 0 5 2.238281 5 5s-2.238281 5-5 5zm0 0"/></g><path d="m365.5 195h-30c-2.761719 0-5-2.238281-5-5s2.238281-5 5-5h30c2.761719 0 5 2.238281 5 5s-2.238281 5-5 5zm0 0" fill="#fcd884"/><path d="m255.5 230h-90c-2.761719 0-5-2.238281-5-5s2.238281-5 5-5h90c2.761719 0 5 2.238281 5 5s-2.238281 5-5 5zm0 0" fill="#3e3e3f"/><path d="m305.5 410h-190c-2.761719 0-5-2.238281-5-5s2.238281-5 5-5h190c2.761719 0 5 2.238281 5 5s-2.238281 5-5 5zm0 0" fill="#fcd884"/><path d="m305.5 380h-190c-2.761719 0-5-2.238281-5-5s2.238281-5 5-5h190c2.761719 0 5 2.238281 5 5s-2.238281 5-5 5zm0 0" fill="#eabf6a"/></svg>