<svg height="512pt" viewBox="0 -2 512 512" width="512pt" xmlns="http://www.w3.org/2000/svg"><path d="m316.566406 507.996094h-256.199218c-33.339844 0-60.367188-27.027344-60.367188-60.367188v-387.261718c0-33.339844 27.027344-60.367188 60.367188-60.367188h256.199218c33.339844 0 60.367188 27.027344 60.367188 60.367188v387.261718c0 33.339844-27.027344 60.367188-60.367188 60.367188zm0 0" fill="#fbd25f"/><path d="m83.699219 507.992188h-23.328125c-33.351563 0-60.371094-27.027344-60.371094-60.367188v-387.257812c0-33.339844 27.019531-60.367188 60.371094-60.367188h23.328125c-33.335938 0-60.367188 27.027344-60.367188 60.367188v387.257812c0 33.339844 27.03125 60.367188 60.367188 60.367188zm0 0" fill="#f99041"/><path d="m60.367188 157.527344c-4.703126 0-8.53125-3.828125-8.53125-8.53125v-88.628906c0-4.703126 3.828124-8.53125 8.53125-8.53125h256.199218c4.703125 0 8.53125 3.828124 8.53125 8.53125v88.628906c0 4.703125-3.824218 8.53125-8.53125 8.53125zm0 0" fill="#d4eff4"/><path d="m316.566406 165.429688h-256.199218c-9.058594 0-16.429688-7.371094-16.429688-16.433594v-88.628906c0-9.058594 7.371094-16.429688 16.429688-16.429688h256.199218c9.0625 0 16.433594 7.371094 16.433594 16.429688v88.628906c0 9.0625-7.371094 16.433594-16.433594 16.433594zm-256.199218-105.691407c-.34375 0-.632813.289063-.632813.628907v88.628906c0 .34375.289063.632812.632813.632812h256.199218c.34375 0 .632813-.289062.632813-.632812v-88.628906c0-.34375-.289063-.632813-.632813-.632813h-256.199218zm0 0" fill="#f99041"/><path d="m289.285156 340.519531c0 48.738281-34.585937 89.410157-80.554687 98.78125-6.550781 1.335938-13.332031 2.042969-20.265625 2.042969-6.9375 0-13.714844-.707031-20.257813-2.042969-45.96875-9.371093-80.5625-50.03125-80.5625-98.78125 0-48.746093 34.59375-89.40625 80.5625-98.777343 6.542969-1.335938 13.320313-2.042969 20.257813-2.042969 6.933594 0 13.714844.707031 20.265625 2.042969 45.96875 9.371093 80.554687 50.042968 80.554687 98.777343zm0 0" fill="#5c5e70"/><path d="m132.949219 256.34375 139.695312 139.695312c-3.6875 5.578126-7.984375 10.871094-12.890625 15.773438-4.902344 4.90625-10.195312 9.203125-15.765625 12.882812l-139.695312-139.695312c3.679687-5.574219 7.976562-10.867188 12.878906-15.769531 4.90625-4.902344 10.199219-9.199219 15.777344-12.886719zm0 0" fill="#3b3d4c"/><path d="m188.464844 449.242188c-7.34375 0-14.691406-.742188-21.839844-2.203126-50.339844-10.261718-86.882812-55.058593-86.882812-106.519531 0-51.457031 36.542968-96.253906 86.886718-106.519531 14.285156-2.917969 29.363282-2.921875 43.683594 0 50.339844 10.265625 86.875 55.0625 86.875 106.519531 0 51.460938-36.539062 96.257813-86.875 106.523438-7.15625 1.460937-14.507812 2.199219-21.847656 2.199219zm0-201.640626c-6.28125 0-12.566406.632813-18.675782 1.878907-43.019531 8.773437-74.246093 47.058593-74.246093 91.039062 0 43.984375 31.226562 82.269531 74.242187 91.039063 12.222656 2.5 25.128906 2.5 37.367188 0 43.015625-8.769532 74.234375-47.054688 74.234375-91.039063 0-43.980469-31.21875-82.265625-74.230469-91.035156-6.125-1.25-12.414062-1.882813-18.691406-1.882813zm0 0" fill="#f99041"/><path d="m203.667969 202.417969c0 8.398437-6.808594 15.203125-15.203125 15.203125-8.394532 0-15.203125-6.804688-15.203125-15.203125 0-8.394531 6.808593-15.199219 15.203125-15.199219 8.394531 0 15.203125 6.804688 15.203125 15.199219zm0 0" fill="#8aced8"/><path d="m106.011719 242.867188c0 8.398437-6.804688 15.203124-15.199219 15.203124-8.398438 0-15.203125-6.804687-15.203125-15.203124 0-8.394532 6.804687-15.199219 15.203125-15.199219 8.394531 0 15.199219 6.804687 15.199219 15.199219zm0 0" fill="#f4514a"/><path d="m65.5625 340.519531c0 8.398438-6.804688 15.203125-15.199219 15.203125-8.398437 0-15.203125-6.804687-15.203125-15.203125 0-8.394531 6.804688-15.199219 15.203125-15.199219 8.394531 0 15.199219 6.804688 15.199219 15.199219zm0 0" fill="#8aced8"/><path d="m301.320312 242.867188c0 8.398437-6.804687 15.203124-15.203124 15.203124-8.394532 0-15.199219-6.804687-15.199219-15.203124 0-8.394532 6.804687-15.199219 15.199219-15.199219 8.398437 0 15.203124 6.804687 15.203124 15.199219zm0 0" fill="#8aced8"/><g fill="#f99041"><path d="m188.464844 225.519531c-12.738282 0-23.101563-10.363281-23.101563-23.101562s10.363281-23.101563 23.101563-23.101563c12.738281 0 23.101562 10.363282 23.101562 23.101563s-10.363281 23.101562-23.101562 23.101562zm0-30.402343c-4.027344 0-7.300782 3.273437-7.300782 7.300781 0 4.027343 3.273438 7.304687 7.300782 7.304687s7.300781-3.277344 7.300781-7.304687c0-4.027344-3.273437-7.300781-7.300781-7.300781zm0 0"/><path d="m90.8125 265.960938c-5.917969 0-11.832031-2.253907-16.335938-6.757813-4.363281-4.363281-6.765624-10.164063-6.765624-16.335937 0-6.171876 2.402343-11.972657 6.765624-16.335938 9.007813-9.003906 23.660157-9.003906 32.671876 0 9.003906 9.011719 9.003906 23.664062 0 32.671875-4.503907 4.503906-10.421876 6.757813-16.335938 6.757813zm0-30.390626c-1.871094 0-3.742188.710938-5.164062 2.136719-1.378907 1.378907-2.136719 3.210938-2.136719 5.164063 0 1.949218.757812 3.78125 2.136719 5.160156 2.847656 2.847656 7.480468 2.847656 10.328124 0 2.84375-2.84375 2.84375-7.476562 0-10.324219-1.425781-1.425781-3.296874-2.136719-5.164062-2.136719zm0 0"/><path d="m50.363281 363.625c-12.738281 0-23.101562-10.363281-23.101562-23.105469 0-12.738281 10.359375-23.101562 23.101562-23.101562 12.738281 0 23.101563 10.363281 23.101563 23.101562 0 12.742188-10.363282 23.105469-23.101563 23.105469zm0-30.40625c-4.027343 0-7.304687 3.277344-7.304687 7.304688 0 4.027343 3.277344 7.300781 7.304687 7.300781 4.027344 0 7.300781-3.273438 7.300781-7.300781 0-4.027344-3.277343-7.304688-7.300781-7.304688zm0 0"/><path d="m286.117188 265.960938c-5.914063 0-11.832032-2.253907-16.335938-6.757813-9.007812-9.007813-9.007812-23.660156 0-32.671875 9.011719-9.003906 23.664062-9.003906 32.671875 0 9.007813 9.011719 9.007813 23.664062 0 32.671875-4.503906 4.503906-10.421875 6.757813-16.335937 6.757813zm-5.160157-28.257813c-2.847656 2.847656-2.847656 7.480469 0 10.328125 2.84375 2.847656 7.480469 2.847656 10.324219 0 2.847656-2.847656 2.847656-7.480469 0-10.328125-2.847656-2.84375-7.480469-2.84375-10.324219 0zm0 0"/></g><path d="m376.902344 111.800781v148.375h-29.972656v-148.375l14.980468-24.5625zm0 0" fill="#e6e6e6"/><path d="m361.910156 87.238281v172.9375h-14.980468v-148.375zm0 0" fill="#ccc"/><path d="m340.699219 247.691406h42.429687v82.738282h-42.429687zm0 0" fill="#f4514a"/><path d="m340.699219 247.691406h18.363281v82.738282h-18.363281zm0 0" fill="#d13030"/><path d="m395.5 317.195312v190.796876h-67.179688v-190.796876c0-3.886718 3.152344-7.027343 7.039063-7.027343h53.113281c3.886719 0 7.027344 3.140625 7.027344 7.027343zm0 0" fill="#d13030"/><path d="m395.5 317.195312v190.796876h-40.835938v-190.796876c0-3.886718 3.148438-7.027343 7.039063-7.027343h26.765625c3.890625 0 7.03125 3.140625 7.03125 7.027343zm0 0" fill="#f4514a"/><path d="m386.730469 255.59375h-49.632813c-4.363281 0-7.902344-3.539062-7.902344-7.902344 0-4.363281 3.539063-7.898437 7.902344-7.898437h49.632813c4.363281 0 7.902343 3.535156 7.902343 7.898437 0 4.363282-3.539062 7.902344-7.902343 7.902344zm0 0" fill="#d13030"/><path d="m395.5 347.785156h-67.171875c-4.367187 0-7.902344-3.539062-7.902344-7.898437 0-4.363281 3.535157-7.902344 7.902344-7.902344h67.171875c4.363281 0 7.898438 3.539063 7.898438 7.902344 0 4.359375-3.535157 7.898437-7.898438 7.898437zm0 0" fill="#d13030"/><path d="m395.5 377.507812h-67.171875c-4.367187 0-7.902344-3.539062-7.902344-7.898437 0-4.363281 3.535157-7.902344 7.902344-7.902344h67.171875c4.363281 0 7.898438 3.539063 7.898438 7.902344 0 4.359375-3.535157 7.898437-7.898438 7.898437zm0 0" fill="#d13030"/><path d="m395.5 407.515625h-67.171875c-4.367187 0-7.902344-3.539063-7.902344-7.902344s3.535157-7.898437 7.902344-7.898437h67.171875c4.363281 0 7.898438 3.535156 7.898438 7.898437s-3.535157 7.902344-7.898438 7.902344zm0 0" fill="#d13030"/><path d="m485.5 111.800781v148.375h-29.972656v-148.375l14.984375-24.5625zm0 0" fill="#e6e6e6"/><path d="m470.511719 87.238281v172.9375h-14.984375v-148.375zm0 0" fill="#ccc"/><path d="m449.296875 247.691406h42.429687v82.738282h-42.429687zm0 0" fill="#4799cf"/><path d="m449.296875 247.691406h18.363281v82.738282h-18.363281zm0 0" fill="#2077a8"/><path d="m504.101562 317.195312v190.796876h-67.179687v-190.796876c0-3.886718 3.152344-7.027343 7.039063-7.027343h53.109374c3.886719 0 7.03125 3.140625 7.03125 7.027343zm0 0" fill="#2077a8"/><path d="m504.101562 317.195312v190.796876h-40.839843v-190.796876c0-3.886718 3.152343-7.027343 7.039062-7.027343h26.769531c3.886719 0 7.03125 3.140625 7.03125 7.027343zm0 0" fill="#4799cf"/><path d="m495.332031 255.59375h-49.636719c-4.363281 0-7.898437-3.539062-7.898437-7.902344 0-4.363281 3.535156-7.898437 7.898437-7.898437h49.636719c4.363281 0 7.898438 3.535156 7.898438 7.898437 0 4.363282-3.535157 7.902344-7.898438 7.902344zm0 0" fill="#2077a8"/><path d="m504.101562 347.785156h-67.175781c-4.363281 0-7.898437-3.539062-7.898437-7.898437 0-4.363281 3.535156-7.902344 7.898437-7.902344h67.175781c4.363282 0 7.898438 3.539063 7.898438 7.902344 0 4.359375-3.539062 7.898437-7.898438 7.898437zm0 0" fill="#2077a8"/><path d="m504.101562 377.507812h-67.175781c-4.363281 0-7.898437-3.539062-7.898437-7.898437 0-4.363281 3.535156-7.902344 7.898437-7.902344h67.175781c4.363282 0 7.898438 3.539063 7.898438 7.902344 0 4.359375-3.539062 7.898437-7.898438 7.898437zm0 0" fill="#2077a8"/><path d="m504.101562 407.515625h-67.175781c-4.363281 0-7.898437-3.539063-7.898437-7.902344s3.535156-7.898437 7.898437-7.898437h67.175781c4.363282 0 7.898438 3.535156 7.898438 7.898437s-3.539062 7.902344-7.898438 7.902344zm0 0" fill="#2077a8"/><path d="m289.574219 141.320312h-28.371094c-4.363281 0-7.902344-3.535156-7.902344-7.898437v-54.042969c0-4.363281 3.539063-7.898437 7.902344-7.898437h28.371094c4.363281 0 7.898437 3.535156 7.898437 7.898437v54.042969c0 4.363281-3.535156 7.898437-7.898437 7.898437zm-20.472657-15.800781h12.574219v-38.238281h-12.574219zm0 0" fill="#5c5e70"/><path d="m217.058594 141.320312h-28.371094c-4.363281 0-7.898438-3.535156-7.898438-7.898437v-54.042969c0-4.363281 3.535157-7.898437 7.898438-7.898437h28.371094c4.363281 0 7.902344 3.535156 7.902344 7.898437v54.042969c0 4.363281-3.539063 7.898437-7.902344 7.898437zm-20.472656-15.800781h12.574218v-38.238281h-12.574218zm0 0" fill="#5c5e70"/><path d="m162.84375 141.320312h-28.371094c-4.363281 0-7.898437-3.535156-7.898437-7.898437v-54.042969c0-4.363281 3.535156-7.898437 7.898437-7.898437h28.371094c4.363281 0 7.902344 3.535156 7.902344 7.898437v54.042969c0 4.363281-3.539063 7.898437-7.902344 7.898437zm-20.46875-15.800781h12.570312v-38.238281h-12.570312zm0 0" fill="#5c5e70"/><path d="m239.445312 139.601562c-6.96875 0-10.492187-8.773437-5.480468-13.589843 2.539062-2.4375 6.523437-2.898438 9.539062-1.078125 2.796875 1.683594 4.3125 5.015625 3.703125 8.234375-.699219 3.679687-4.007812 6.433593-7.761719 6.433593zm0 0" fill="#5c5e70"/></svg>