<svg height="504pt" viewBox="0 0 504 504" width="504pt" xmlns="http://www.w3.org/2000/svg"><path d="m40 500h388v-276h-424v240c0 19.882812 16.117188 36 36 36zm0 0" fill="#ed9050"/><path d="m40 4v460h364v-460zm0 0" fill="#e2e2e2"/><path d="m60 244v220h344v-220zm0 0" fill="#b2b0ae"/><path d="m168 36v96l71.734375 63.769531c15.089844-16.960937 24.265625-39.289062 24.265625-63.769531 0-53.019531-42.980469-96-96-96zm0 0" fill="#e86c55"/><path d="m168 132-88 36-.867188.324219c14.324219 35.003906 48.707032 59.675781 88.867188 59.675781 28.539062 0 54.152344-12.464844 71.734375-32.230469zm0 0" fill="#b2b0ae"/><path d="m168 132v-96c-53.019531 0-96 42.980469-96 96 0 12.859375 2.546875 25.117188 7.132812 36.324219l.867188-.324219zm0 0" fill="#fed88c"/><path d="m76 260v204c0 19.882812-16.117188 36-36 36h424c19.882812 0 36-16.117188 36-36v-204zm0 0" fill="#fed88c"/><g fill="#342311"><path d="m432 256v-36h-24v-220h-372v220h-36v244c0 22.054688 17.945312 40 40 40h424c22.054688 0 40-17.945312 40-40v-208zm-8-28v28h-16v-28zm-380-220h356v248h-328v204h-28zm-4 488c-17.644531 0-32-14.355469-32-32v-236h28v240h35.722656c-1.980468 15.761719-15.433594 28-31.722656 28zm456-32c0 17.644531-14.355469 32-32 32h-400.023438c9.722657-7.304688 16.023438-18.929688 16.023438-32v-200h416zm0 0"/><path d="m168 232c55.140625 0 100-44.859375 100-100s-44.859375-100-100-100-100 44.859375-100 100 44.859375 100 100 100zm0-8c-36.988281 0-68.929688-21.957031-83.527344-53.507812l82.734375-33.847657 66.785157 59.363281c-16.730469 17.246094-40.125 27.992188-65.992188 27.992188zm92-92c0 21.988281-7.765625 42.195312-20.683594 58.039062l-67.316406-59.835937v-90.101563c48.878906 2.101563 88 42.511719 88 91.898438zm-96-91.898438v89.210938l-82.578125 33.785156c-3.5-9.722656-5.421875-20.191406-5.421875-31.097656 0-49.386719 39.121094-89.796875 88-91.898438zm0 0"/><path d="m288 32h96v8h-96zm0 0"/><path d="m376 56h8v8h-8zm0 0"/><path d="m288 56h72v8h-72zm0 0"/><path d="m288 160h96v8h-96zm0 0"/><path d="m376 184h8v8h-8zm0 0"/><path d="m288 184h72v8h-72zm0 0"/></g></svg>