
<svg height="480pt" viewBox="-45 0 480 480" width="480pt" xmlns="http://www.w3.org/2000/svg"><path d="m333.898438 61.570312-39.96875 37.609376c-.011719-9.238282-.070313-18.390626.078124-28.289063-67.777343-28.289063-128.820312-26.800781-185.570312-2.941406-.136719 8.972656-.078125 18.070312-.007812 27.179687l-.179688.582032-40.070312-34.140626 131.820312-61.570312zm0 0" fill="#414a56"/><path d="m201.75 10.25 125.40625 57.664062 6.742188-6.34375-133.898438-61.570312-131.820312 61.570312 8.390624 7.148438zm0 0" fill="#353e47"/><path d="m293.929688 99.179688c.011718 8.628906-3.929688 20.820312-3.929688 30.820312-62.019531-19.21875-118.5-17.25-180 0 .160156-10.179688-1.488281-24.53125-1.570312-34.871094-.070313-9.109375-.128907-18.207031.011718-27.179687 56.75-23.859375 117.789063-25.347657 185.570313 2.941406-.152344 9.898437-.089844 19.050781-.082031 28.289063zm0 0" fill="#57606f"/><path d="m119.484375 127.460938c-.4375-8.304688-1.25-17.40625-1.304687-24.582032-.070313-9.109375-.128907-18.210937.011718-27.179687 54-22.707031 111.890625-25.132813 175.769532-.941407.015624-1.277343.027343-2.566406.050781-3.867187-67.78125-28.292969-128.820313-26.800781-185.570313-2.941406-.140625 8.96875-.082031 18.070312-.011718 27.179687.082031 10.339844 1.730468 24.691406 1.570312 34.871094 3.175781-.890625 6.335938-1.730469 9.484375-2.539062zm0 0" fill="#414a56"/><path d="m310 480h-80l-32.539062-120.328125 31.75 21.238281 52.9375-66.179687 107.851562 36.128906v129.140625zm0 0" fill="#a8cfff"/><path d="m200.632812 370.921875 31.75 21.238281 52.9375-66.179687 104.679688 35.066406v-10.1875l-107.851562-36.128906-52.9375 66.179687-31.75-21.238281 32.539062 120.328125h.128906zm0 0" fill="#8bbae8"/><path d="m290 130c9.109375 55.308594-30.699219 150-90.300781 150-58.628907 0-89.699219-89.980469-89.699219-139.839844 0-3.5-.128906-7.03125 0-10.160156 61.5-17.25 117.980469-19.21875 180 0zm0 0" fill="#f7be86"/><path d="m119.839844 148.253906c0-3.5-.132813-7.03125 0-10.160156 58.472656-16.402344 112.410156-18.976562 170.882812-2.671875-.191406-1.84375-.433594-3.652344-.722656-5.421875-62.019531-19.21875-118.5-17.25-180 0-.128906 3.128906 0 6.660156 0 10.160156 0 39.25 19.257812 103.351563 56.054688 128.859375-30.382813-29.160156-46.214844-85.179687-46.214844-120.765625zm0 0" fill="#e2ad7d"/><path d="m256.289062 284 25.859376 30.730469-52.9375 66.179687-31.75-21.238281zm0 0" fill="#e8f9f9"/><path d="m256.289062 295.914062 20.976563 24.925782 4.882813-6.109375-25.859376-30.730469-58.828124 75.671875 6.09375 4.074219zm0 0" fill="#cce5e4"/><path d="m197.460938 359.671875 32.539062 120.328125h-67.25zm0 0" fill="#d7deed"/><path d="m202.222656 377.277344-4.761718-17.605469-34.710938 120.328125h9.839844zm0 0" fill="#afb9d2"/><path d="m144.859375 284 52.601563 75.671875-34.441407 21.238281-38.238281-67.761718zm0 0" fill="#e8f9f9"/><path d="m144.859375 297.25 46.152344 66.394531 6.449219-3.972656-52.601563-75.671875-20.078125 29.148438 4.109375 7.285156zm0 0" fill="#cce5e4"/><path d="m80 480h-80v-140.289062l124.78125-26.5625 38.238281 67.761718 34.441407-21.238281-34.710938 120.328125zm0 0" fill="#a8cfff"/><path d="m9.832031 347.542969 119.949219-25.53125-5-8.863281-124.78125 26.5625v140.289062h9.832031zm0 0" fill="#8bbae8"/><g fill="#e2ad7d"><path d="m200.742188 235c-13.9375 0-24.054688-11.199219-24.480469-11.679688-1.832031-2.0625-1.648438-5.222656.417969-7.058593 2.058593-1.832031 5.210937-1.648438 7.046874.402343.125.140626 7.65625 8.335938 17.015626 8.335938h.058593c5.367188-.019531 10.570313-2.820312 15.460938-8.320312 1.835937-2.066407 4.996093-2.253907 7.0625-.417969 2.0625 1.835937 2.246093 4.996093.414062 7.058593-6.890625 7.75-14.625 11.679688-22.996093 11.679688zm0 0"/><path d="m170 165h-20c-2.761719 0-5-2.238281-5-5s2.238281-5 5-5h20c2.761719 0 5 2.238281 5 5s-2.238281 5-5 5zm0 0"/><path d="m250 165h-20c-2.761719 0-5-2.238281-5-5s2.238281-5 5-5h20c2.761719 0 5 2.238281 5 5s-2.238281 5-5 5zm0 0"/></g><path d="m327.898438 151.359375c-2.761719 0-5-2.238281-5-5v-80.519531c0-2.761719 2.238281-5 5-5 2.761718 0 5 2.238281 5 5v80.519531c0 2.761719-2.238282 5-5 5zm0 0" fill="#353e47"/><path d="m315 480v-65.429688c0-2.761718-2.238281-5-5-5s-5 2.238282-5 5v65.429688zm0 0" fill="#8bbae8"/><path d="m85 480v-65.429688c0-2.761718-2.238281-5-5-5s-5 2.238282-5 5v65.429688zm0 0" fill="#8bbae8"/><path d="m327.898438 146.359375c8.890624 0 16.101562 7.210937 16.101562 16.109375 0 8.890625-7.210938 16.101562-16.101562 16.101562-8.898438 0-16.109376-7.210937-16.109376-16.101562 0-8.898438 7.210938-16.109375 16.109376-16.109375zm0 0" fill="#ff7979"/><path d="m316.796875 171.59375c0-8.898438 7.210937-16.109375 16.109375-16.109375 4.183594 0 7.980469 1.609375 10.839844 4.226563-1.3125-7.582032-7.898438-13.351563-15.847656-13.351563-8.898438 0-16.109376 7.210937-16.109376 16.109375 0 4.707031 2.035157 8.929688 5.257813 11.875-.152344-.894531-.25-1.808594-.25-2.75zm0 0" fill="#d65b5b"/></svg>