
<svg height="485pt" viewBox="0 -7 485 485" width="485pt" xmlns="http://www.w3.org/2000/svg"><path d="m320 180v120h-150v-160h150zm-40 40c0-18.78125-15.21875-34-34-34s-34 15.21875-34 34 15.21875 34 34 34 34-15.21875 34-34zm0 0" fill="#91dfab"/><path d="m180 151.5h140v-11.5h-150v160h10zm0 0" fill="#7dc694"/><path d="m280 220c0 18.777344-15.222656 34-34 34s-34-15.222656-34-34 15.222656-34 34-34 34 15.222656 34 34zm0 0" fill="#febe76"/><path d="m222 231.5c0-18.78125 15.21875-34 34-34 7.484375 0 14.398438 2.421875 20.011719 6.519531-5.71875-10.722656-17.007813-18.019531-30.011719-18.019531-18.78125 0-34 15.21875-34 34 0 11.296875 5.511719 21.300781 13.988281 27.480469-2.542969-4.761719-3.988281-10.203125-3.988281-15.980469zm0 0" fill="#e8a664"/><path d="m320 180v-40h-150v160h150zm41 0v210h-230v-320h230zm-31 180v-20h-20v20zm-30 0v-20h-20v20zm-30 0v-20h-20v20zm-30 0v-20h-20v20zm-30 0v-20h-20v20zm-30 0v-20h-20v20zm0 0" fill="#dff9fb"/><path d="m141.082031 101v-20h219.917969v-11h-230v320h10.082031zm0 0" fill="#c7ecee"/><path d="m400 180v251c0 21.539062-17.460938 39-39 39h-232c-21.539062 0-39-17.460938-39-39v-341h41v300h230v-210zm-134 250c0-11.050781-8.949219-20-20-20s-20 8.949219-20 20 8.949219 20 20 20 20-8.949219 20-20zm0 0" fill="#95a5a5"/><path d="m140.832031 400h230.003907v-210h29.164062v-10h-39v210h-220.167969zm0 0" fill="#7e8c8d"/><path d="m99.832031 441v-341h31.167969v-10h-41v341c0 13.175781 6.539062 24.816406 16.546875 31.878906-4.238281-6.238281-6.714844-13.769531-6.714844-21.878906zm0 0" fill="#7e8c8d"/><path d="m400 140v40h-39v-110h-230v20h-41v-51c0-21.539062 17.460938-39 39-39h232c21.539062 0 39 17.460938 39 39zm0 0" fill="#95a5a5"/><path d="m100 49.5c0-21.539062 17.460938-39 39-39h232c8.492188 0 16.34375 2.722656 22.746094 7.328125-6.949219-10.726563-19.015625-17.828125-32.746094-17.828125h-232c-21.539062 0-39 17.460938-39 39v51h10zm0 0" fill="#7e8c8d"/><g fill="#c7ecee"><path d="m310 340h20v20h-20zm0 0"/><path d="m280 340h20v20h-20zm0 0"/><path d="m250 340h20v20h-20zm0 0"/></g><path d="m246 410c11.050781 0 20 8.949219 20 20s-8.949219 20-20 20-20-8.949219-20-20 8.949219-20 20-20zm0 0" fill="#7e8c8d"/><path d="m220 340h20v20h-20zm0 0" fill="#c7ecee"/><path d="m190 340h20v20h-20zm0 0" fill="#c7ecee"/><path d="m160 340h20v20h-20zm0 0" fill="#c7ecee"/><path d="m274 35h-56c-2.761719 0-5-2.238281-5-5s2.238281-5 5-5h56c2.761719 0 5 2.238281 5 5s-2.238281 5-5 5zm0 0" fill="#7e8c8d"/><path d="m450 105h-50c-2.761719 0-5-2.238281-5-5s2.238281-5 5-5h50c2.761719 0 5 2.238281 5 5s-2.238281 5-5 5zm0 0" fill="#95a5a5"/><path d="m470 145h-70c-2.761719 0-5-2.238281-5-5s2.238281-5 5-5h70c2.761719 0 5 2.238281 5 5s-2.238281 5-5 5zm0 0" fill="#95a5a5"/><path d="m480 185h-160c-2.761719 0-5-2.238281-5-5s2.238281-5 5-5h160c2.761719 0 5 2.238281 5 5s-2.238281 5-5 5zm0 0" fill="#2f4a5f"/><path d="m30 225c-2.761719 0-5-2.238281-5-5v-130c0-2.761719 2.238281-5 5-5h100c2.761719 0 5 2.238281 5 5s-2.238281 5-5 5h-95v125c0 2.761719-2.238281 5-5 5zm0 0" fill="#2f4a5f"/><path d="m35 220c13.808594 0 25 11.191406 25 25 0 6.898438-2.800781 13.160156-7.320312 17.679688-4.519532 4.519531-10.78125 7.320312-17.679688 7.320312h-10c-13.808594 0-25-11.191406-25-25 0-6.898438 2.800781-13.160156 7.320312-17.679688 4.519532-4.519531 10.78125-7.320312 17.679688-7.320312zm0 0" fill="#febe76"/><path d="m10.832031 255c0-6.898438 2.800781-13.160156 7.320313-17.679688 4.519531-4.519531 10.78125-7.320312 17.679687-7.320312h10c3.859375 0 7.515625.875 10.78125 2.4375-4.332031-7.4375-12.382812-12.4375-21.613281-12.4375h-10c-6.898438 0-13.160156 2.800781-17.679688 7.320312-4.519531 4.519532-7.320312 10.78125-7.320312 17.679688 0 9.949219 5.808594 18.539062 14.222656 22.5625-2.152344-3.691406-3.390625-7.980469-3.390625-12.5625zm0 0" fill="#e8a664"/></svg>