<svg height="504pt" viewBox="0 0 504 504" width="504pt" xmlns="http://www.w3.org/2000/svg"><path d="m412 68h-320c-8.835938 0-16 7.164062-16 16 0 75.113281 60.886719 136 136 136h80c75.113281 0 136-60.886719 136-136 0-8.835938-7.164062-16-16-16zm-108 127.359375h-104c-53.519531-5.722656-95.882812-49.308594-99.714844-103.359375h303.429688c-3.832032 54.050781-46.195313 97.636719-99.714844 103.359375zm0 0" fill="#fed88c"/><path d="m329.636719 189.390625c-8.164063 2.925781-16.726563 5.015625-25.636719 5.96875h-104c-8.90625-.953125-17.472656-3.042969-25.636719-5.96875 7.4375 10.480469 15.035157 19.230469 21.644531 26.785156.949219 1.085938 1.851563 2.125 2.765626 3.171875 4.351562.421875 8.761718.652344 13.226562.652344h80c4.464844 0 8.875-.230469 13.226562-.652344.914063-1.046875 1.816407-2.085937 2.765626-3.171875 6.609374-7.554687 14.207031-16.304687 21.644531-26.785156zm0 0" fill="#fecb66"/><path d="m348 68h-208v8c0 5.546875.226562 10.839844.566406 16h222.867188c.339844-5.160156.566406-10.453125.566406-16v-8zm0 0" fill="#fecb66"/><path d="m460 500v-64h-416v64zm0 0" fill="#e2e2e2"/><path d="m460 500v-20h-416v20zm0 0" fill="#b2b0ae"/><path d="m84 372h336v64h-336zm0 0" fill="#e2e2e2"/><path d="m84 420h336v16h-336zm0 0" fill="#b2b0ae"/><path d="m348 76v-16h-8c0-17.671875-14.328125-32-32-32h-32c0-13.257812-10.742188-24-24-24s-24 10.742188-24 24h-32c-17.671875 0-32 14.328125-32 32h-8v16c0 112 76 132 76 172v76h-24v24c-13.257812 0-24 10.742188-24 24h136c0-13.257812-10.742188-24-24-24v-24h-24s0-36 0-76 76-60 76-172zm0 0" fill="#fed88c"/><g fill="#fecb66"><path d="m164 60h176c0-5.835938-1.589844-11.289062-4.316406-16h-167.367188c-2.726562 4.710938-4.316406 10.164062-4.316406 16zm0 0"/><path d="m252 4c-13.257812 0-24 10.742188-24 24h48c0-13.257812-10.742188-24-24-24zm0 0"/><path d="m232 308h40v16h-40zm0 0"/><path d="m208 336h88v12h-88zm0 0"/><path d="m187.234375 360c-2.042969 3.53125-3.234375 7.625-3.234375 12h136c0-4.375-1.191406-8.46875-3.234375-12zm0 0"/></g><path d="m496 496h8v8h-8zm0 0" fill="#342311"/><path d="m0 496h8v8h-8zm0 0" fill="#342311"/><path d="m464 432h-40v-64h-100.320312c-1.765626-12.234375-11.445313-21.914062-23.679688-23.679688v-24.320312h-24v-72c0-8.324219 3.878906-15.9375 9.871094-24h6.128906c77.195312 0 140-62.804688 140-140 0-11.027344-8.972656-20-20-20h-60v-8h-8.234375c-2-17.972656-17.269531-32-35.765625-32h-28.320312c-1.953126-13.546875-13.605469-24-27.679688-24s-25.726562 10.453125-27.679688 24h-28.320312c-18.496094 0-33.765625 14.027344-35.765625 32h-8.234375v8h-60c-11.027344 0-20 8.972656-20 20 0 77.195312 62.804688 140 140 140h6.128906c5.992188 8.0625 9.871094 15.675781 9.871094 24v72h-24v24.320312c-12.234375 1.765626-21.914062 11.445313-23.679688 23.679688h-100.320312v64h-40v64h-16v8h456v-8h-16zm-52-360c6.617188 0 12 5.382812 12 12 0 72.6875-59.058594 131.835938-131.710938 131.992188 2.105469-2.492188 4.34375-5.050782 6.671876-7.714844 2.570312-2.945313 5.261718-6.035156 7.996093-9.269532 54.640625-7.046874 96.835938-51.523437 100.75-106.726562l.300781-4.28125h-56.332031c.195313-3.890625.324219-7.871094.324219-12v-4zm-97.402344 117.566406c16.425782-21.171875 32.621094-49.550781 36.46875-93.566406h48.269532c-5.136719 46.464844-39.519532 83.964844-84.738282 93.566406zm-62.597656-181.566406c9.65625 0 17.734375 6.882812 19.597656 16h-39.195312c1.863281-9.117188 9.941406-16 19.597656-16zm-62.597656 181.566406c-45.21875-9.601562-79.601563-47.101562-84.738282-93.566406h48.269532c3.847656 44.015625 20.042968 72.394531 36.46875 93.566406zm-109.402344-105.566406c0-6.617188 5.382812-12 12-12h60v4c0 4.128906.128906 8.109375.324219 12h-56.332031l.304687 4.285156c3.914063 55.203125 46.105469 99.679688 100.75 106.726563 2.734375 3.234375 5.425781 6.324219 7.996094 9.269531 2.328125 2.664062 4.566406 5.222656 6.671875 7.714844-72.65625-.160156-131.714844-59.308594-131.714844-131.996094zm131.0625 119.011719c-21.550781-24.652344-51.0625-58.40625-51.0625-127.011719v-12h144v-8h-135.679688c1.953126-13.546875 13.605469-24 27.679688-24h112c14.074219 0 25.726562 10.453125 27.679688 24h-15.679688v8h24v12c0 68.605469-29.511719 102.359375-51.0625 127.011719-13.382812 15.308593-24.9375 28.523437-24.9375 44.988281v72h-32v-72c0-16.464844-11.554688-29.679688-24.9375-44.988281zm80.9375 124.988281v16h-80v-16zm-84 24h88c9.65625 0 17.734375 6.882812 19.597656 16h-127.195312c1.863281-9.117188 9.941406-16 19.597656-16zm-160 88h336v-8h-296v-56h328v56h-16v8h56v56h-408zm0 0" fill="#342311"/></svg>