<svg height="464pt" viewBox="-97 0 464 464.78" width="464pt" xmlns="http://www.w3.org/2000/svg"><path d="m270.390625 387.390625v77.390625h-190v-77.390625zm-28.460937 45.148437c0-7.289062-5.828126-13.128906-13.128907-13.128906-6.570312 0-12.410156 5.839844-12.410156 13.128906 0 6.570313 5.839844 12.410157 12.410156 12.410157 7.300781 0 13.128907-5.839844 13.128907-12.410157zm0 0" fill="#387081"/><path d="m91.722656 400.390625h178.667969v-13h-190v77.390625h11.332031zm0 0" fill="#346272"/><path d="m179.910156 158.921875v25.539063c0-1.230469.140625-2.441407.359375-3.632813 1.339844-7.328125 6.621094-13.640625 13.671875-16.546875 2.660156-1.101562 5.558594-1.710938 8.589844-1.710938 12.398438 0 22.617188 10.210938 22.617188 22.609376v32.839843c0-11.671875 10.222656-21.890625 22.621093-21.890625 12.402344 0 22.621094 10.21875 22.621094 22.621094v136.027344l-11.742187 32.613281h-164.347657l-7.789062-5.199219c-52.53125-16.78125-31.933594-45.53125-50.902344-65.242187-42.320313-46.6875-30.03125-80.1875-5.21875-72.167969 23.347656 6.570312 44.449219 40.367188 59.039063 65.179688v-181.691407c0-12.398437 10.21875-22.621093 22.621093-22.621093 12.410157 0 22.621094 10.222656 22.621094 22.621093v29.921875c0-.449218.039063-.902344.066406-1.339844.730469-10.722656 9.960938-19.871093 21.332031-20.492187.398438-.019531.8125-.058594 1.21875-.058594 12.410157 0 22.621094 10.210938 22.621094 22.621094zm0 0" fill="#ffd8a8"/><path d="m46.277344 327.949219c-42.320313-46.6875-30.03125-80.1875-5.21875-72.167969 6.714844 1.890625 13.246094 6.039062 19.488281 11.574219-9.3125-10.898438-19.5-19.578125-30.15625-22.574219-24.8125-8.019531-37.101563 25.480469 5.21875 72.167969 15.34375 15.945312 4.804687 37.800781 28.019531 54.453125-9.28125-14.511719-5.207031-30.835938-17.351562-43.453125zm0 0" fill="#eabd8c"/><path d="m100.097656 320.960938v-181.691407c0-12.398437 10.21875-22.621093 22.621094-22.621093 3.550781 0 6.917969.839843 9.921875 2.328124-3.578125-7.824218-11.488281-13.328124-20.589844-13.328124-12.402343 0-22.621093 10.222656-22.621093 22.621093v175.183594c3.847656 6.015625 7.417968 11.984375 10.667968 17.507813zm0 0" fill="#eabd8c"/><path d="m134.671875 156.890625v-28.621094c0-12.398437-10.210937-22.621093-22.621094-22.621093-12.402343 0-22.621093 10.222656-22.621093 22.621093v33.679688c-24.320313-7.167969-42.078126-29.648438-42.078126-56.300781 0-32.417969 26.277344-58.6875 58.6875-58.6875 32.421876 0 58.699219 26.269531 58.699219 58.6875 0 11.261718-3.179687 21.78125-8.667969 30.710937-11.371093.621094-20.601562 9.773437-21.332031 20.492187-.019531.007813-.039062.019532-.066406.039063zm0 0" fill="#dff9fb"/><path d="m57.519531 116.148438c0-32.417969 26.28125-58.6875 58.691407-58.6875 13.929687 0 26.714843 4.859374 36.78125 12.964843-10.707032-14.25-27.753907-23.464843-46.953126-23.464843-32.410156 0-58.6875 26.269531-58.6875 58.6875 0 18.5 8.5625 34.984374 21.929688 45.738281-7.382812-9.808594-11.761719-22.007813-11.761719-35.238281zm0 0" fill="#c7ecee"/><path d="m144.839844 138.769531c0-8.710937-5.042969-16.339843-12.347656-20.113281 1.394531 2.925781 2.175781 6.1875 2.175781 9.613281v28.621094c.03125-.019531.050781-.03125.070312-.039063.464844-6.828124 4.382813-13.003906 10.101563-16.761718zm0 0" fill="#c7ecee"/><path d="m47.351562 105.648438c0 26.652343 17.757813 49.132812 42.078126 56.300781v48.050781c-50.460938-7.96875-89.039063-51.648438-89.039063-104.351562 0-58.347657 47.300781-105.648438 105.648437-105.648438 58.351563 0 105.652344 47.300781 105.652344 105.648438 0 21.691406-6.542968 41.851562-17.75 58.632812-7.050781 2.910156-12.332031 9.21875-13.671875 16.550781-.121093.117188-.238281.226563-.359375.347657v-22.257813c0-12.410156-10.210937-22.621094-22.621094-22.621094-.40625 0-.816406.039063-1.21875.0625 5.488282-8.933593 8.667969-19.453125 8.667969-30.710937 0-32.421875-26.277343-58.691406-58.699219-58.691406-32.410156 0-58.6875 26.269531-58.6875 58.6875zm0 0" fill="#febe76"/><path d="m47.351562 105.648438c0 26.652343 17.757813 49.132812 42.078126 56.300781v48.050781c-50.460938-7.96875-89.039063-51.648438-89.039063-104.351562 0-58.347657 47.300781-105.648438 105.648437-105.648438 58.351563 0 105.652344 47.300781 105.652344 105.648438 0 21.691406-6.542968 41.851562-17.75 58.632812-7.050781 2.910156-12.332031 9.21875-13.671875 16.550781-.121093.117188-.238281.226563-.359375.347657v-22.257813c0-12.410156-10.210937-22.621094-22.621094-22.621094-.40625 0-.816406.039063-1.21875.0625 5.488282-8.933593 8.667969-19.453125 8.667969-30.710937 0-32.421875-26.277343-58.691406-58.699219-58.691406-32.410156 0-58.6875 26.269531-58.6875 58.6875zm0 0" fill="#febe76"/><g fill="#e8a664"><path d="m12.722656 118.316406c0-58.347656 47.300782-105.648437 105.648438-105.648437 26.503906 0 50.726562 9.757812 69.273437 25.878906-19.375-23.539063-48.738281-38.546875-81.605469-38.546875-58.347656 0-105.648437 47.300781-105.648437 105.648438 0 31.855468 14.109375 60.398437 36.40625 79.769531-15.03125-18.25-24.074219-41.613281-24.074219-67.101563zm0 0"/><path d="m89.429688 169.367188v-7.417969c-6.867188-2.023438-13.210938-5.269531-18.78125-9.484375 4.953124 6.902344 11.363281 12.683594 18.78125 16.902344zm0 0"/><path d="m178.355469 150.742188c1 2.542968 1.554687 5.296874 1.554687 8.179687v22.257813c.121094-.117188.238282-.226563.359375-.347657 1.175781-6.421875 5.371094-12.058593 11.128907-15.3125-1.875-6.65625-6.746094-12.109375-13.042969-14.777343zm0 0"/><path d="m177.074219 118.316406c0-19.125-9.152344-36.105468-23.3125-46.820312 6.902343 9.621094 10.976562 21.40625 10.976562 34.152344 0 11.261718-3.179687 21.78125-8.667969 30.710937.398438-.019531.8125-.058594 1.21875-.058594 5.660157 0 10.855469 2.128907 14.84375 5.613281 3.171876-7.21875 4.941407-15.203124 4.941407-23.597656zm0 0"/></g><path d="m228.800781 419.410156c7.300781 0 13.128907 5.839844 13.128907 13.128906 0 6.570313-5.828126 12.410157-13.128907 12.410157-6.570312 0-12.410156-5.839844-12.410156-12.410157 0-7.289062 5.839844-13.128906 12.410156-13.128906zm0 0" fill="#346272"/></svg>