
<svg height="425pt" viewBox="0 0 425 425" width="425pt" xmlns="http://www.w3.org/2000/svg"><path d="m150.25 143.308594 187.289062 237.242187c-34.480468 24.828125-76.800781 39.449219-122.539062 39.449219-115.980469 0-210-94.019531-210-210 0-63.421875 28.109375-120.269531 72.550781-158.769531zm0 0" fill="#3e3e3f"/><path d="m77.550781 69.894531 72.699219 92.082031 177.695312 225.085938c3.257813-2.085938 6.460938-4.257812 9.59375-6.511719l-187.289062-237.242187-72.699219-92.078125c-44.441406 38.5-72.550781 95.347656-72.550781 158.769531 0 3.15625.082031 6.289062.21875 9.410156 2.589844-59.675781 30.066406-112.898437 72.332031-149.515625zm0 0" fill="#2d2d2d"/><path d="m150.25 143.308594-72.699219-92.078125c36.828125-31.921875 84.890625-51.230469 137.449219-51.230469 115.980469 0 210 94.019531 210 210 0 70.238281-34.488281 132.429688-87.460938 170.550781zm0 0" fill="#ff7979"/><path d="m166.582031 148.308594-72.699219-92.078125c36.832032-31.921875 84.890626-51.230469 137.449219-51.230469 18.398438 0 36.238281 2.375 53.242188 6.816406-21.773438-7.644531-45.183594-11.816406-69.574219-11.816406-52.558594 0-100.621094 19.308594-137.449219 51.230469l72.699219 92.078125 187.289062 237.242187c2.632813-1.894531 5.207032-3.867187 7.746094-5.878906zm0 0" fill="#d65b5b"/><g fill="#fff"><path d="m365 201.511719v9.066406h-34.789062v-6.679687l6.339843-5.507813c10.71875-9.21875 15.917969-14.519531 16.070313-20.03125 0-3.847656-2.410156-6.898437-8.070313-6.898437-4.222656 0-7.921875 2.039062-10.492187 3.917968l-3.238282-7.910156c3.699219-2.679688 9.429688-4.859375 16.070313-4.859375 11.089844 0 17.199219 6.242187 17.199219 14.8125 0 7.90625-5.960938 14.21875-13.050782 20.308594l-4.527343 3.628906v.152344zm0 0"/><path d="m325.089844 163.050781-2.339844 8.777344c-2.339844-.949219-5.578125-1.816406-9.660156-1.816406-9.128906 0-16.21875 5.296875-16.21875 16.1875 0 9.789062 6.027344 15.960937 16.300781 15.960937 3.46875 0 7.316406-.730468 9.578125-1.601562l1.730469 8.640625c-2.109375 1.019531-6.859375 2.101562-13.050781 2.101562-17.582032 0-26.640626-10.519531-26.640626-24.449219 0-16.691406 12.378907-25.980468 27.769532-25.980468 5.960937 0 10.492187 1.160156 12.53125 2.179687zm0 0"/><path d="m275.519531 161.671875 2.789063 48.90625h-11.238282l-.761718-18.71875c-.21875-5.878906-.449219-12.988281-.449219-20.109375h-.230469c-1.578125 6.25-3.6875 13.210938-5.660156 18.949219l-6.179688 19.082031h-8.980468l-5.4375-18.941406c-1.660156-5.730469-3.390625-12.699219-4.601563-19.089844h-.148437c-.300782 6.609375-.53125 14.160156-.910156 20.25l-.898438 18.578125h-10.640625l3.25-48.90625h15.308594l4.980469 16.328125c1.589843 5.660156 3.171874 11.75 4.300781 17.480469h.230469c1.429687-5.660157 3.167968-12.109375 4.828124-17.558594l5.429688-16.25zm0 0"/><path d="m105 275c-1.640625 0-3.191406-.808594-4.132812-2.183594l-40-58.703125c-1.554688-2.28125-.964844-5.390625 1.316406-6.945312 2.28125-1.554688 5.390625-.964844 6.949218 1.316406l34.464844 50.578125 46.691406-130.742188c.710938-1.992187 2.597657-3.320312 4.710938-3.320312h180c2.761719 0 5 2.238281 5 5s-2.238281 5-5 5h-176.476562l-48.816407 136.683594c-.632812 1.769531-2.207031 3.035156-4.070312 3.277344-.214844.023437-.425781.039062-.636719.039062zm0 0"/></g><path d="m345.003906 395c-1.480468 0-2.941406-.652344-3.929687-1.902344l-300-380c-1.710938-2.167968-1.339844-5.3125.828125-7.023437 2.164062-1.710938 5.308594-1.339844 7.019531.828125l300 380c1.710937 2.167968 1.34375 5.3125-.824219 7.023437-.917968.722657-2.007812 1.074219-3.09375 1.074219zm0 0" fill="#fcd884"/><path d="m415 425h-410c-2.761719 0-5-2.238281-5-5v-410c0-2.761719 2.238281-5 5-5s5 2.238281 5 5v405h405c2.761719 0 5 2.238281 5 5s-2.238281 5-5 5zm0 0" fill="#fcd884"/></svg>