<svg height="512pt" viewBox="0 -8 512 511" width="512pt" xmlns="http://www.w3.org/2000/svg"><path d="m108.746094 79.625c0 1.011719.011718 2.015625.042968 3.015625 1.488282 49.972656 76.851563 49.972656 78.339844 0 .027344-1 .042969-2.003906.042969-3.015625 0-32.277344-15.386719-60.953125-39.214844-79.125-23.824219 18.171875-39.210937 46.847656-39.210937 79.125zm0 0" fill="#8aced8"/><path d="m147.953125 120.117188c-19.210937 0-38.425781-12.488282-39.164063-37.476563-.03125-1-.042968-2.003906-.042968-3.019531 0-32.269532 15.382812-60.941406 39.21875-79.121094-9.4375 18.179688-15.519532 46.851562-15.519532 79.121094 0 1.015625 0 2.019531.011719 3.019531.296875 24.988281 7.898438 37.476563 15.496094 37.476563zm0 0" fill="#5fb1b7"/><path d="m225.335938 79.625c0 1.011719.015624 2.015625.042968 3.015625 1.492188 49.972656 76.851563 49.972656 78.339844 0 .03125-1 .046875-2.003906.046875-3.015625 0-32.277344-15.390625-60.953125-39.214844-79.125-23.828125 18.171875-39.214843 46.847656-39.214843 79.125zm0 0" fill="#8aced8"/><path d="m264.546875 120.117188c-19.210937 0-38.425781-12.488282-39.164063-37.476563-.03125-1-.042968-2.003906-.042968-3.019531 0-32.269532 15.382812-60.941406 39.21875-79.121094-9.4375 18.179688-15.519532 46.851562-15.519532 79.121094 0 1.015625 0 2.019531.011719 3.019531.292969 24.988281 7.894531 37.476563 15.496094 37.476563zm0 0" fill="#5fb1b7"/><path d="m341.929688 79.625c0 1.011719.011718 2.015625.042968 3.015625 1.488282 49.972656 76.851563 49.972656 78.339844 0 .027344-1 .042969-2.003906.042969-3.015625 0-32.277344-15.386719-60.953125-39.214844-79.125-23.824219 18.171875-39.210937 46.847656-39.210937 79.125zm0 0" fill="#8aced8"/><path d="m381.140625 120.117188c-19.214844 0-38.429687-12.488282-39.167969-37.476563-.03125-1-.042968-2.003906-.042968-3.019531 0-32.269532 15.382812-60.941406 39.21875-79.121094-9.4375 18.179688-15.515626 46.851562-15.515626 79.121094 0 1.015625 0 2.019531.007813 3.019531.296875 24.988281 7.898437 37.476563 15.5 37.476563zm0 0" fill="#5fb1b7"/><path d="m510.988281 349.238281c-.074219 1.457031-.230469 2.914063-.472656 4.359375l-2.449219 14.410156-2.34375 13.808594-.390625 2.332032h-.011719l-3.28125 19.359374-5.976562 35.164063h-480.804688l-5.648437-35.164063-1.140625-7.125-1.277344-7.917968-1.265625-7.917969-3.652343-22.683594-1.269532-7.917969c-.347656-2.144531-.503906-4.285156-.503906-6.410156 0-.503906.007812-1.011718.03125-1.507812.421875-11.328125 5.582031-22.105469 14.472656-29.539063l29.144532-24.351562 7.433593-62.75c4-33.707031 32.578125-59.097657 66.519531-59.097657h150.316407c22.78125 0 43.609375 12.835938 53.839843 33.191407l44.589844 88.65625s67.839844-1.066407 124.441406 27.183593c4.394532 2.195313 8.164063 5.203126 11.191407 8.792969 4.03125 4.75 6.757812 10.492188 7.90625 16.636719.539062 2.765625.742187 5.617188.601562 8.488281zm0 0" fill="#fbd25f"/><path d="m9.609375 403.511719h492.429687l-5.976562 35.164062h-480.804688zm0 0" fill="#f99041"/><path d="m162.121094 166.289062c-33.9375 0-62.515625 25.390626-66.515625 59.097657l-7.433594 62.75-29.148437 24.351562c-9.277344 7.761719-14.503907 19.171875-14.503907 31.050781 0 2.121094.160157 4.261719.507813 6.40625l6.183594 38.523438 8.066406 50.207031h-44.019532l-8.066406-50.207031-6.1875-38.523438c-.347656-2.144531-.503906-4.285156-.503906-6.40625 0-11.878906 5.222656-23.289062 14.503906-31.050781l29.144532-24.351562 7.433593-62.75c4-33.707031 32.578125-59.097657 66.519531-59.097657zm0 0" fill="#f99041"/><path d="m510.988281 349.238281c-.074219 1.457031-.230469 2.914063-.472656 4.359375l-3.769531 22.210938c-3.503906.792968-7.273438 1.226562-11.191406 1.226562-19.097657 0-34.570313-10.167968-34.570313-22.699218 0-12.539063 15.472656-22.707032 34.570313-22.707032 4.425781 0 8.648437.550782 12.53125 1.550782 2.144531 4.984374 3.167968 10.472656 2.902343 16.058593zm0 0" fill="#8aced8"/><path d="m468.898438 354.335938c0 6.988281 10.949218 14.777343 26.65625 14.777343 3.242187 0 6.417968-.347656 9.449218-1.023437 1.035156-.230469 2.078125-.253906 3.0625-.082032l-2.34375 13.804688-.390625 2.335938h-.011719c-3.1875.535156-6.460937.800781-9.765624.800781-23.824219 0-42.488282-13.449219-42.488282-30.613281 0-17.175782 18.664063-30.625 42.488282-30.625 2.335937 0 4.65625.136718 6.925781.398437 4.03125 4.753906 6.757812 10.496094 7.90625 16.640625-1.339844.421875-2.816407.472656-4.273438.09375-3.347656-.855469-6.894531-1.296875-10.558593-1.296875-15.707032 0-26.65625 7.789063-26.65625 14.789063zm0 0" fill="#e6e6e6"/><path d="m44.148438 369.210938c0 10.636718-8.625 19.257812-19.261719 19.257812h-17.699219l-6.1875-38.519531h23.886719c10.636719 0 19.261719 8.625 19.261719 19.261719zm0 0" fill="#f4514a"/><path d="m337.164062 287.859375h-266.410156l7.039063-59.371094c2.417969-20.414062 19.753906-35.808593 40.308593-35.808593h150.316407c5.394531 0 10.578125 1.257812 15.179687 3.570312 6.398438 3.1875 11.71875 8.402344 15.085938 15.085938zm0 0" fill="#d4eff4"/><g fill="#e6e6e6"><path d="m504.082031 446.59375h-85.277343c-4.375 0-7.917969-3.542969-7.917969-7.914062 0-4.375 3.542969-7.917969 7.917969-7.917969h85.277343c4.371094 0 7.917969 3.542969 7.917969 7.917969 0 4.371093-3.546875 7.914062-7.917969 7.914062zm0 0"/><path d="m72.644531 446.59375h-64.726562c-4.371094 0-7.917969-3.542969-7.917969-7.914062 0-4.375 3.546875-7.917969 7.917969-7.917969h64.726562c4.371094 0 7.917969 3.542969 7.917969 7.917969 0 4.371093-3.546875 7.914062-7.917969 7.914062zm0 0"/><path d="m52.066406 369.210938c0 14.988281-12.191406 27.171874-27.183594 27.171874h-16.414062l-1.277344-7.917968-1.265625-7.917969h18.957031c6.261719 0 11.351563-5.085937 11.351563-11.335937 0-6.261719-5.089844-11.347657-11.351563-11.347657h-22.609374l-1.269532-7.917969c-.347656-2.144531-.503906-4.285156-.503906-6.410156 0-.503906.007812-1.011718.03125-1.507812h24.351562c14.992188 0 27.183594 12.191406 27.183594 27.183594zm0 0"/></g><path d="m161.117188 442.035156c0 29.628906-24.023438 53.652344-53.652344 53.652344-29.632813 0-53.652344-24.023438-53.652344-53.652344 0-29.632812 24.019531-53.652344 53.652344-53.652344 29.628906 0 53.652344 24.019532 53.652344 53.652344zm0 0" fill="#5c5e70"/><path d="m134.367188 442.035156c0 14.855469-12.046876 26.902344-26.902344 26.902344-14.859375 0-26.902344-12.046875-26.902344-26.902344 0-14.859375 12.042969-26.902344 26.902344-26.902344 14.855468 0 26.902344 12.042969 26.902344 26.902344zm0 0" fill="#e6e6e6"/><path d="m107.464844 476.855469c-19.199219 0-34.820313-15.621094-34.820313-34.820313 0-19.199218 15.621094-34.820312 34.820313-34.820312 19.199218 0 34.820312 15.621094 34.820312 34.820312 0 19.199219-15.621094 34.820313-34.820312 34.820313zm0-53.808594c-10.46875 0-18.984375 8.519531-18.984375 18.988281 0 10.464844 8.515625 18.984375 18.984375 18.984375s18.984375-8.519531 18.984375-18.984375c0-10.46875-8.515625-18.988281-18.984375-18.988281zm0 0" fill="#3b3d4c"/><path d="m437.636719 442.035156c0 29.628906-24.023438 53.652344-53.652344 53.652344-29.632813 0-53.652344-24.023438-53.652344-53.652344 0-29.632812 24.019531-53.652344 53.652344-53.652344 29.628906 0 53.652344 24.019532 53.652344 53.652344zm0 0" fill="#5c5e70"/><path d="m410.886719 442.035156c0 14.855469-12.046875 26.902344-26.902344 26.902344-14.859375 0-26.902344-12.046875-26.902344-26.902344 0-14.859375 12.042969-26.902344 26.902344-26.902344 14.855469 0 26.902344 12.042969 26.902344 26.902344zm0 0" fill="#e6e6e6"/><path d="m383.984375 476.855469c-19.203125 0-34.820313-15.621094-34.820313-34.820313 0-19.199218 15.617188-34.820312 34.820313-34.820312 19.199219 0 34.820313 15.621094 34.820313 34.820312 0 19.199219-15.621094 34.820313-34.820313 34.820313zm0-53.808594c-10.46875 0-18.988281 8.519531-18.988281 18.988281 0 10.464844 8.519531 18.984375 18.988281 18.984375s18.984375-8.519531 18.984375-18.984375c0-10.46875-8.515625-18.988281-18.984375-18.988281zm0 0" fill="#3b3d4c"/><path d="m237.46875 328.890625h-21.308594c-4.371094 0-7.917968-3.546875-7.917968-7.917969 0-4.375 3.546874-7.917968 7.917968-7.917968h21.308594c4.375 0 7.917969 3.542968 7.917969 7.917968 0 4.371094-3.542969 7.917969-7.917969 7.917969zm0 0" fill="#e6e6e6"/><path d="m109.777344 328.890625h-21.308594c-4.375 0-7.917969-3.546875-7.917969-7.917969 0-4.375 3.542969-7.917968 7.917969-7.917968h21.308594c4.371094 0 7.917968 3.542968 7.917968 7.917968 0 4.371094-3.546874 7.917969-7.917968 7.917969zm0 0" fill="#e6e6e6"/><path d="m190.730469 192.679688-27.363281 95.179687h-20.636719l27.363281-95.179687zm0 0" fill="#f0fdff"/><path d="m283.597656 196.25-26.339844 91.609375h-35.078124l27.363281-95.179687h18.875c5.394531 0 10.578125 1.257812 15.179687 3.570312zm0 0" fill="#f0fdff"/><path d="m344.238281 284.304688-38.484375-76.53125c-7.148437-14.191407-21.453125-23.007813-37.335937-23.007813h-150.316407c-.316406 0-.628906.015625-.945312.019531-.148438-.007812-.289062-.019531-.4375-.019531-.300781 0-.597656.019531-.890625.050781-23.566406 1.09375-43.097656 19.101563-45.894531 42.742188l-7.042969 59.371094c-.265625 2.246093.441406 4.496093 1.945313 6.191406 1.5 1.691406 3.65625 2.65625 5.917968 2.65625h266.410156c2.746094 0 5.296876-1.421875 6.738282-3.761719 1.441406-2.335937 1.570312-5.257813.335937-7.710937zm-219.601562-83.707032h67.769531v79.347656h-67.769531zm-38.980469 28.824219c1.566406-13.234375 10.917969-23.839844 23.144531-27.46875v77.988281h-29.136719zm122.585938 50.523437v-79.347656h60.175781c9.863281 0 18.753906 5.480469 23.191406 14.292969l32.710937 65.054687zm0 0" fill="#f99041"/><path d="m307.632812 446.59375h-121.753906c-4.371094 0-7.914062-3.542969-7.914062-7.914062 0-4.375 3.542968-7.917969 7.914062-7.917969h121.753906c4.371094 0 7.917969 3.542969 7.917969 7.917969 0 4.371093-3.546875 7.914062-7.917969 7.914062zm0 0" fill="#e6e6e6"/></svg>