
<svg height="436pt" viewBox="0 -19 436.3 436" width="436pt" xmlns="http://www.w3.org/2000/svg"><path d="m134.691406 265.078125-45.492187-.109375c-.027344-.078125-.058594-.148438-.089844-.226562l-22.53125.167968-66.578125-.167968 64.089844-66.152344zm0 0" fill="#d65b5b"/><path d="m65.757812 209.257812 59.246094 55.800782 9.6875.019531-70.601562-66.488281-64.089844 66.148437 11.972656.03125zm0 0" fill="#b74646"/><path d="m351.300781 265.078125h45.929688c-22.28125 76.433594-93.230469 132.292969-176.851563 132.292969-83.628906 0-154.578125-55.859375-176.851562-132.292969l23.050781-.167969 22.621094.058594c20.96875 52.3125 71.628906 89.222656 131.179687 89.222656 59.632813 0 110.359375-37.019531 130.921875-89.113281zm0 0" fill="#ff7979"/><path d="m393.0625 272.914062c-3.085938 10.589844-7.113281 20.785157-11.972656 30.492188 6.761718-12.007812 12.210937-24.847656 16.140625-38.328125h-45.929688c-1.046875 2.65625-2.195312 5.261719-3.398437 7.835937zm0 0" fill="#d65b5b"/><path d="m62.414062 272.742188 22.617188.0625c20.972656 52.308593 71.632812 89.21875 131.183594 89.21875 55.519531 0 103.3125-32.101563 126.234375-78.574219-24.242188 42.207031-69.722657 70.742187-122.066407 70.742187-59.554687 0-110.210937-36.910156-131.183593-89.222656l-22.621094-.058594-23.046875.167969c.761719 2.621094 1.585938 5.214844 2.464844 7.785156zm0 0" fill="#d65b5b"/><path d="m392.671875 132.101562h-45.480469c-20.5625-52.101562-71.632812-88.773437-131.273437-88.773437-59.628907 0-110.699219 36.671875-131.269531 88.773437l-45.578126.339844c22.617188-76.769531 93.21875-132.292968 176.847657-132.292968 83.511719 0 154.023437 55.363281 176.753906 131.953124zm0 0" fill="#d8f2f1"/><path d="m218.972656 10.816406c79.578125 0 147.351563 50.273438 173.226563 121.285156h.472656c-22.730469-76.589843-93.242187-131.953124-176.75-131.953124-83.632813 0-154.230469 55.523437-176.851563 132.292968l6.566407-.050781c25.792969-71.167969 93.648437-121.574219 173.335937-121.574219zm0 0" fill="#b2dbd8"/><path d="m436.300781 132.101562-64.089843 66.828126-70.261719-66.828126h45.238281l45.582031.339844c-.03125-.113281-.070312-.230468-.101562-.339844zm0 0" fill="#b2dbd8"/><path d="m319.949219 139.226562h45.242187l45.578125.339844c-.03125-.113281-.070312-.230468-.101562-.339844h18.800781l6.832031-7.125h-43.628906c.027344.109376.066406.226563.097656.339844l-45.578125-.339844h-45.242187l70.261719 66.828126 5.011718-5.226563zm0 0" fill="#97c4bf"/><g fill="#5b6072"><path d="m282.308594 200.019531v13.789063h-9.699219v18.761718h-17.890625v-18.761718h-35.796875v-11.980469l33.390625-49.257813h20l.296875 47.449219zm-26.96875-32.078125h-.5c-2.609375 5.089844-4.722656 9.6875-7.460938 14.648438l-10.808594 17.191406v.238281h18.148438v-17.429687c0-4.722656.25-9.558594.621094-14.648438zm0 0"/><path d="m209.601562 217.449219v15.121093h-57.292968v-11.132812l10.441406-9.199219c17.648438-15.371093 26.21875-24.199219 26.46875-33.398437 0-6.417969-3.980469-11.5-13.300781-11.5-6.957031 0-13.050781 3.390625-17.269531 6.539062l-5.351563-13.199218c6.09375-4.480469 15.542969-8.109376 26.472656-8.109376 18.269531 0 28.339844 10.410157 28.339844 24.691407 0 13.199219-9.820313 23.726562-21.5 33.886719l-7.460937 6.050781v.25zm0 0"/></g></svg>