
<svg height="465pt" viewBox="-27 0 465 465.001" width="465pt" xmlns="http://www.w3.org/2000/svg"><path d="m410 260v53.179688h-410v-214.546876c0-10.292968 8.402344-18.632812 18.75-18.632812h92.410156c-.507812 3.230469-.859375 6.511719-1.03125 9.839844-.089844 1.652344-.128906 3.3125-.128906 4.992187 0 5.890625.539062 11.648438 1.570312 17.238281l.660157 3.230469c5.378906 24.398438 92.769531 134.699219 92.769531 134.699219s9.691406-12.238281 22.820312-29.449219c26.289063-34.492187 66.359376-88.972656 69.949219-105.25l.660157-3.230469c.238281-1.300781.449218-2.609374.628906-3.929687.609375-4.351563.941406-8.789063.941406-13.3125 0-5.046875-.402344-10-1.160156-14.828125h92.410156c10.351562 0 18.75 8.339844 18.75 18.628906zm-280 20v-20h-20v20zm-40 0v-20h-20v20zm-40 0v-20h-20v20zm0 0" fill="#dff9fb"/><path d="m410 313.179688v41.820312c0 10.289062-8.398438 18.640625-18.75 18.640625h-372.5c-10.347656 0-18.75-8.351563-18.75-18.640625v-41.820312zm-200.28125 26.710937c0-5.210937-4.226562-9.441406-9.4375-9.441406s-9.441406 4.230469-9.441406 9.441406c0 5.21875 4.230468 9.441406 9.441406 9.441406s9.4375-4.222656 9.4375-9.441406zm0 0" fill="#95a5a5"/><path d="m11.667969 366v-41.820312h398.332031v-11h-410v41.820312c0 8.273438 5.433594 15.285156 12.945312 17.714844-.816406-2.085938-1.277343-4.34375-1.277343-6.714844zm0 0" fill="#7e8c8d"/><path d="m8.667969 240.335938v-131.371094c0-10.289063 8.398437-18.628906 18.75-18.628906h82.695312c.007813-.164063.007813-.332032.019531-.496094.167969-3.328125.519532-6.609375 1.027344-9.839844h-92.410156c-10.347656 0-18.75 8.339844-18.75 18.628906v214.550782h8.667969zm0 0" fill="#c7ecee"/><path d="m213.667969 260.335938s9.691406-12.242188 22.820312-29.453126c26.289063-34.488281 66.355469-88.96875 69.945313-105.25l.660156-3.230468c.242188-1.296875.453125-2.609375.632812-3.929688.609376-4.347656.9375-8.789062.9375-13.308594 0-5.050781-.398437-10-1.160156-14.828124h92.410156c3.300782 0 6.394532.851562 9.089844 2.339843-2.503906-7.367187-9.503906-12.675781-17.753906-12.675781h-92.410156c.761718 4.828125 1.160156 9.78125 1.160156 14.828125 0 4.523437-.328125 8.960937-.941406 13.3125-.179688 1.320313-.386719 2.628906-.628906 3.929687l-.660157 3.230469c-3.589843 16.277344-43.65625 70.757813-69.949219 105.25-11.816406 15.492188-20.847656 26.953125-22.53125 29.085938 5.1875 6.671875 8.378907 10.699219 8.378907 10.699219zm0 0" fill="#c7ecee"/><path d="m205 41.898438c24.851562 0 45 20.140624 45 45 0 24.851562-20.148438 45-45 45-24.847656 0-45-20.148438-45-45 0-24.859376 20.152344-45 45-45zm0 0" fill="#2f4a5f"/><path d="m171 96.566406c0-24.859375 20.152344-45 45-45 8.746094 0 16.90625 2.503906 23.8125 6.820313-8.25-10.0625-20.78125-16.488281-34.8125-16.488281-24.847656 0-45 20.140624-45 45 0 16.105468 8.46875 30.230468 21.191406 38.179687-6.367187-7.761719-10.191406-17.691406-10.191406-28.511719zm0 0" fill="#1f3442"/><path d="m160 86.898438c0 24.851562 20.152344 45 45 45 24.851562 0 45-20.148438 45-45 0-24.859376-20.148438-45-45-45-24.847656 0-45 20.140624-45 45zm138.839844-6.898438c.761718 4.832031 1.160156 9.78125 1.160156 14.832031 0 4.519531-.328125 8.957031-.941406 13.308594-.179688 1.320313-.386719 2.628906-.628906 3.929687l-.660157 3.230469c-3.589843 16.28125-43.65625 70.761719-69.949219 105.25-13.128906 17.210938-22.820312 29.449219-22.820312 29.449219s-87.390625-110.300781-92.769531-134.699219l-.660157-3.230469c-1.03125-5.589843-1.570312-11.351562-1.570312-17.242187 0-1.679687.039062-3.339844.128906-4.988281.171875-3.328125.523438-6.609375 1.03125-9.839844 7.128906-45.328125 46.429688-80 93.839844-80s86.710938 34.671875 93.839844 80zm0 0" fill="#f2786b"/><path d="m125.5625 120.300781-.660156-3.230469c-1.027344-5.589843-1.570313-11.351562-1.570313-17.242187 0-1.679687.042969-3.339844.132813-4.988281.167968-3.328125.519531-6.609375 1.027344-9.839844 7.132812-45.328125 46.429687-80 93.839843-80 9.238281 0 18.164063 1.332031 26.609375 3.789062-12.144531-5.628906-25.667968-8.789062-39.941406-8.789062-47.410156 0-86.710938 34.671875-93.839844 80-.507812 3.230469-.859375 6.511719-1.03125 9.839844-.089844 1.652344-.128906 3.3125-.128906 4.992187 0 5.890625.539062 11.648438 1.570312 17.238281l.660157 3.230469c5.378906 24.398438 92.769531 134.699219 92.769531 134.699219s1.734375-2.1875 4.714844-6.003906c-22.171875-28.519532-79.8125-104.023438-84.152344-123.695313zm0 0" fill="#db6257"/><path d="m200.28125 330.449219c5.210938 0 9.4375 4.230469 9.4375 9.441406 0 5.21875-4.226562 9.4375-9.4375 9.4375s-9.441406-4.21875-9.441406-9.4375c0-5.210937 4.230468-9.441406 9.441406-9.441406zm0 0" fill="#7e8c8d"/><path d="m110 260h20v20h-20zm0 0" fill="#c7ecee"/><path d="m70 260h20v20h-20zm0 0" fill="#c7ecee"/><path d="m30 260h20v20h-20zm0 0" fill="#c7ecee"/><g fill="#95a5a5"><path d="m266.359375 465c-2.101563 0-4.058594-1.335938-4.75-3.441406l-28.320313-86.359375c-.859374-2.625.570313-5.449219 3.195313-6.308594 2.617187-.863281 5.445313.566406 6.308594 3.191406l28.320312 86.359375c.859375 2.625-.570312 5.449219-3.195312 6.308594-.515625.171875-1.042969.25-1.558594.25zm0 0"/><path d="m134.203125 465c-.519531 0-1.042969-.078125-1.5625-.25-2.621094-.859375-4.050781-3.683594-3.191406-6.308594l28.320312-86.359375c.859375-2.621093 3.6875-4.054687 6.308594-3.191406 2.625.859375 4.054687 3.683594 3.195313 6.308594l-28.320313 86.359375c-.691406 2.105468-2.648437 3.441406-4.75 3.441406zm0 0"/><path d="m320 465h-238.640625c-2.761719 0-5-2.238281-5-5s2.238281-5 5-5h238.640625c2.761719 0 5 2.238281 5 5s-2.238281 5-5 5zm0 0"/></g><path d="m410 255h-125v-45c0-2.761719-2.238281-5-5-5s-5 2.238281-5 5v50c0 2.761719 2.238281 5 5 5h130zm0 0" fill="#c7ecee"/><path d="m95 235h-90c-2.761719 0-5-2.238281-5-5s2.238281-5 5-5h85v-35c0-2.761719 2.238281-5 5-5s5 2.238281 5 5v40c0 2.761719-2.238281 5-5 5zm0 0" fill="#c7ecee"/><path d="m370 160h-30c-2.761719 0-5-2.238281-5-5v-70c0-2.761719 2.238281-5 5-5s5 2.238281 5 5v65h25c2.761719 0 5 2.238281 5 5s-2.238281 5-5 5zm0 0" fill="#c7ecee"/></svg>