<svg height="457pt" viewBox="-13 0 457 457.44" width="457pt" xmlns="http://www.w3.org/2000/svg"><path d="m430.21875 109.78125v347.660156l-150-38.722656v-350zm0 0" fill="#febe76"/><path d="m290.554688 81.632812 139.664062 38.230469v-10.082031l-150-41.0625v350l10.335938 2.667969zm0 0" fill="#e8a664"/><path d="m280.21875 68.71875v350l-133.617188 38.722656.769532-263.742187c23.050781-30.289063 58.179687-78.140625 61.320312-92.429688l.578125-2.839843c.210938-1.148438.390625-2.300782.550781-3.449219zm0 0" fill="#ffebbe"/><path d="m155.035156 200.699219c23.050782-30.289063 58.179688-78.140625 61.320313-92.429688l.582031-2.839843c.207031-1.148438.386719-2.300782.546875-3.449219l62.734375-23.402344v-9.859375l-70.398438 26.261719c-.160156 1.148437-.339843 2.300781-.550781 3.449219l-.582031 2.839843c-3.136719 14.289063-38.269531 62.140625-61.320312 92.429688l-.769532 263.742187 7.695313-2.230468zm0 0" fill="#d6c496"/><path d="m46.019531 101.269531c4.71875 21.429688 81.339844 118.300781 81.339844 118.300781s8.5-10.75 20.011719-25.871093l-.769532 263.742187-146.382812-38.722656v-354.679688l43.972656 14.859376c-.082031 1.449218-.121094 2.910156-.121094 4.382812 0 5.179688.480469 10.226562 1.378907 15.148438zm0 0" fill="#febe76"/><path d="m10.554688 77.039062 33.691406 11.390626c-.101563-1.703126-.175782-3.417969-.175782-5.148438 0-1.472656.039063-2.929688.121094-4.378906l-43.972656-14.863282v354.679688l10.335938 2.734375zm0 0" fill="#e8a664"/><path d="m127.359375 219.570312s-76.621094-96.871093-81.339844-118.300781l-.570312-2.839843c-.898438-4.917969-1.378907-9.96875-1.378907-15.148438 0-1.472656.039063-2.929688.121094-4.378906 2.269532-43.960938 38.636719-78.902344 83.167969-78.902344 46 0 83.28125 37.289062 83.28125 83.28125 0 3.96875-.28125 7.878906-.820313 11.699219-.160156 1.148437-.339843 2.300781-.550781 3.449219l-.578125 2.839843c-3.140625 14.289063-38.269531 62.140625-61.320312 92.429688-11.511719 15.121093-20.011719 25.871093-20.011719 25.871093zm34.070313-140.070312c0-18.820312-15.25-34.070312-34.070313-34.070312s-34.070313 15.25-34.070313 34.070312c0 18.808594 15.25 34.070312 34.070313 34.070312s34.070313-15.261718 34.070313-34.070312zm0 0" fill="#ff7979"/><path d="m56.519531 108.019531-.570312-2.839843c-.898438-4.917969-1.378907-9.96875-1.378907-15.148438 0-1.472656.039063-2.929688.121094-4.378906 2.269532-43.960938 38.636719-78.902344 83.167969-78.902344 14.328125 0 27.804687 3.621094 39.578125 9.988281-13.9375-10.503906-31.277344-16.738281-50.078125-16.738281-44.53125 0-80.898437 34.941406-83.167969 78.898438-.082031 1.449218-.121094 2.910156-.121094 4.382812 0 5.179688.480469 10.226562 1.378907 15.148438l.570312 2.839843c4.71875 21.429688 81.339844 118.300781 81.339844 118.300781s.945313-1.191406 2.621094-3.335937c-19.675781-25.359375-69.675781-91.03125-73.460938-108.214844zm0 0" fill="#d65b5b"/><g fill="#e8a664"><path d="m90.21875 358.71875h20v20h-20zm0 0"/><path d="m90.21875 328.71875h20v20h-20zm0 0"/><path d="m90.21875 298.71875h20v20h-20zm0 0"/><path d="m90.21875 268.71875h20v20h-20zm0 0"/><path d="m90.21875 238.71875h20v20h-20zm0 0"/></g></svg>