<?xml version="1.0" encoding="iso-8859-1"?>
<!-- Generator: Adobe Illustrator 21.0.0, SVG Export Plug-In . SVG Version: 6.00 Build 0)  -->
<svg xmlns="http://www.w3.org/2000/svg" xmlns:xlink="http://www.w3.org/1999/xlink" version="1.1" id="Capa_1" x="0px" y="0px" viewBox="0 0 512 512" style="enable-background:new 0 0 512 512;" xml:space="preserve" width="512" height="512">
<g>
	<path style="fill:#BCD151;" d="M202.122,74.356L110.001,420.23c-3.807,14.294,4.694,28.968,18.988,32.775l218.089,58.087   c14.294,3.807,28.968-4.694,32.775-18.988l92.121-345.873c3.807-14.294-4.694-28.968-18.988-32.775L234.897,55.368   C220.603,51.561,205.929,60.062,202.122,74.356z"/>
	<path style="fill:#8D9F25;" d="M376.512,199.613h-10.662c-3.718,0-6.731-3.014-6.731-6.731v-20.595   c0-2.965-3.357-4.684-5.763-2.952l-74.477,53.629c-5.404,3.891-5.404,11.934,0,15.826l74.477,53.629   c2.406,1.732,5.763,0.013,5.763-2.952v-20.594c0-3.717,3.014-6.731,6.731-6.731h10.662c25.936,0,44.814,20.573,52.478,45.47   l20.406-76.617C430.917,211.639,405.094,199.613,376.512,199.613z"/>
	<path style="fill:#8D9F25;" d="M234.897,55.368c-14.294-3.807-28.968,4.694-32.775,18.988l-92.121,345.873   c-1.462,5.488-1.103,11.03,0.695,15.993H313.2c14.793,0,26.784-11.991,26.784-26.784V83.358L234.897,55.368z"/>
	<path style="fill:#C2E8EF;" d="M419.274,104.476l33.712,8.979c14.294,3.807,22.795,18.481,18.988,32.775l-8.979,33.712   C430.082,171.176,410.508,137.388,419.274,104.476z M268.609,64.347l-33.712-8.979c-14.294-3.807-28.968,4.694-32.775,18.988   l-8.979,33.712C226.056,116.834,259.843,97.26,268.609,64.347z M118.98,386.518l-8.979,33.712   c-3.807,14.294,4.694,28.968,18.988,32.775l33.712,8.979C171.467,429.071,151.892,395.284,118.98,386.518z M379.853,492.103   l8.979-33.712c-32.912-8.766-66.7,10.809-75.466,43.721l33.712,8.979C361.372,514.898,376.046,506.397,379.853,492.103z"/>
	<path style="fill:#9CD3DB;" d="M118.98,386.518c-8.651,34.362-12.275,38.688-8.284,49.705h53.282   C160.188,412.984,143.206,392.97,118.98,386.518z"/>
	<path style="fill:#6FBC89;" d="M39.117,26.784v357.931c0,14.792,11.992,26.784,26.784,26.784h225.692   c14.792,0,26.784-11.992,26.784-26.784V26.784C318.376,11.992,306.385,0,291.593,0H65.901C51.109,0,39.117,11.992,39.117,26.784z"/>
	<g>
		<path style="fill:#C2E8EF;" d="M318.376,61.671V26.784C318.376,11.992,306.385,0,291.593,0h-34.887    C256.705,34.06,284.317,61.671,318.376,61.671z"/>
		<path style="fill:#C2E8EF;" d="M100.788,0H65.901C51.109,0,39.117,11.992,39.117,26.784v34.887    C73.177,61.671,100.788,34.06,100.788,0z"/>
		<path style="fill:#C2E8EF;" d="M39.117,349.828v34.887c0,14.793,11.992,26.784,26.784,26.784h34.887    C100.788,377.439,73.177,349.828,39.117,349.828z"/>
		<path style="fill:#C2E8EF;" d="M318.376,384.715v-34.887c-34.06,0-61.671,27.611-61.671,61.671h34.887    C306.385,411.499,318.376,399.507,318.376,384.715z"/>
	</g>
	<ellipse style="fill:#C2E8EF;" cx="178.747" cy="205.749" rx="58.203" ry="77.48"/>
	<path style="fill:#243B5D;" d="M206.492,218.641c0-11.368-9.249-20.618-20.617-20.618h-14.257c-2.848,0-5.165-2.317-5.165-5.165   c0-2.848,2.317-5.165,5.165-5.165h22.598c4.268,0,7.726-3.459,7.726-7.727s-3.459-7.727-7.726-7.727h-6.529v-3.598   c0-4.268-3.459-7.726-7.726-7.726c-4.268,0-7.726,3.458-7.726,7.726v3.598h-0.616c-11.368,0-20.618,9.25-20.618,20.618   c0,11.368,9.25,20.617,20.618,20.617h14.257c2.847,0,5.164,2.317,5.164,5.165c0,2.847-2.317,5.164-5.164,5.164h-22.598   c-4.268,0-7.726,3.459-7.726,7.727s3.459,7.726,7.726,7.726h8.957v3.598c0,4.268,3.459,7.727,7.726,7.727   c4.268,0,7.726-3.459,7.726-7.727v-3.689C198.208,238.244,206.492,229.397,206.492,218.641z"/>
	<path style="fill:#254E87;" d="M370.295,174.993h-10.661c-3.718,0-6.731-3.014-6.731-6.731v-20.594   c0-2.965-3.357-4.684-5.763-2.952l-74.477,53.629c-5.404,3.891-5.404,11.934,0,15.826l74.477,53.629   c2.406,1.732,5.763,0.013,5.763-2.952v-20.594c0-3.718,3.014-6.731,6.731-6.731h10.661c34.293,0,56.262,35.961,56.262,70.338   c0,41.242-34.486,73.949-75.426,72.015c-0.48-0.023-0.57,0.677-0.098,0.77c62.411,12.341,120.993-36.5,120.993-101.893   C472.026,221.447,426.48,174.993,370.295,174.993z"/>
</g>















</svg>
