<svg height="512pt" viewBox="-18 0 512 512.01052" width="512pt" xmlns="http://www.w3.org/2000/svg"><path d="m378.707031 512h-280.714843c-24.175782.496094-44.476563-18.09375-46.097657-42.222656l-16.578125-363.847656v-26.480469h406.066406v26.480469l-16.542968 363.847656c-1.621094 24.140625-21.941406 42.738281-46.132813 42.222656zm0 0" fill="#fdcd56"/><path d="m70.625 0h335.449219c14.625 0 26.484375 11.855469 26.484375 26.484375v35.308594h-388.414063v-35.308594c0-14.628906 11.855469-26.484375 26.480469-26.484375zm0 0" fill="#e2a539"/><path d="m26.488281 52.964844h423.722657c14.628906 0 26.484374 11.855468 26.484374 26.484375 0 14.625-11.855468 26.480469-26.484374 26.480469h-423.722657c-14.625 0-26.48437475-11.855469-26.48437475-26.480469 0-14.628907 11.85937475-26.484375 26.48437475-26.484375zm0 0" fill="#f5b945"/><path d="m441.382812 105.929688-16.503906 363.875c-1.699218 24.113281-22 42.667968-46.171875 42.195312h-26.480469c24.171876.472656 44.46875-18.082031 46.167969-42.195312l16.507813-363.875zm0 0" fill="#f5b945"/><path d="m432.558594 26.484375v26.480469h-26.484375v-26.480469c0-14.628906-11.855469-26.484375-26.484375-26.484375h26.484375c14.625 0 26.484375 11.855469 26.484375 26.484375zm0 0" fill="#d39633"/><path d="m476.695312 79.449219c0 14.625-11.855468 26.480469-26.484374 26.480469h-26.480469c6.527343.015624 12.824219-2.40625 17.652343-6.796876.375-.296874.730469-.621093 1.0625-.96875 6.433594-6.410156 9.125-15.679687 7.113282-24.539062-2.007813-8.859375-8.429688-16.0625-17-19.070312-2.820313-1.070313-5.8125-1.609376-8.828125-1.589844h26.480469c14.628906 0 26.484374 11.855468 26.484374 26.484375zm0 0" fill="#e2a539"/><g fill="#fff"><path d="m203.039062 342.023438c3.855469.003906 7.269532-2.496094 8.425782-6.175782 1.160156-3.675781-.203125-7.683594-3.367188-9.890625-12.03125-8.390625-20.050781-21.386719-22.15625-35.898437-.449218-3.125-2.527344-5.773438-5.457031-6.949219-2.929687-1.171875-6.261719-.695313-8.746094 1.253906-2.480469 1.953125-3.734375 5.078125-3.285156 8.199219 2.816406 19.355469 13.507813 36.679688 29.546875 47.875 1.476562 1.035156 3.234375 1.589844 5.039062 1.585938zm0 0"/><path d="m290.769531 290.058594c-2.109375 14.511718-10.128906 27.507812-22.160156 35.898437-2.65625 1.777344-4.148437 4.851563-3.898437 8.039063.253906 3.183594 2.207031 5.988281 5.113281 7.324218 2.902343 1.335938 6.300781.996094 8.886719-.882812 16.035156-11.195312 26.730468-28.519531 29.542968-47.875.449219-3.121094-.804687-6.246094-3.285156-8.199219-2.480469-1.949219-5.8125-2.425781-8.742188-1.253906-2.929687 1.175781-5.011718 3.824219-5.457031 6.949219zm0 0"/><path d="m215.65625 234.609375c14.375-6.753906 31.011719-6.753906 45.390625 0 2.859375 1.445313 6.277344 1.222656 8.925781-.574219 2.652344-1.796875 4.121094-4.890625 3.839844-8.082031s-2.269531-5.980469-5.191406-7.285156c-19.167969-9.039063-41.375-9.039063-60.539063 0-2.925781 1.304687-4.914062 4.09375-5.195312 7.285156s1.1875 6.285156 3.839843 8.082031c2.652344 1.796875 6.066407 2.019532 8.929688.574219zm0 0"/><path d="m386.027344 307.269531c-8.8125-35.367187-40.609375-60.164062-77.054688-60.097656-1.371094 0-2.722656.203125-4.082031.273437 20.808594-31.773437 16.050781-73.855468-11.324219-100.183593-3.507812-3.355469-9.066406-3.246094-12.441406.242187-3.378906 3.484375-3.304688 9.046875.164062 12.441406 14.050782 13.566407 20.851563 32.984376 18.339844 52.351563-2.507812 19.371094-14.035156 36.410156-31.078125 45.945313l-3.152343 1.820312c-6.613282-8.15625-16.550782-12.890625-27.046876-12.890625-10.5 0-20.4375 4.734375-27.050781 12.890625l-3.148437-1.820312h-.046875c-17.011719-9.554688-28.503907-26.589844-30.996094-45.945313-2.492187-19.351563 4.3125-38.742187 18.347656-52.296875 3.46875-3.398438 3.539063-8.957031.164063-12.445312-3.375-3.488282-8.933594-3.59375-12.445313-.238282-27.375 26.324219-32.128906 68.410156-11.324219 100.183594-1.402343-.125-2.753906-.328125-4.121093-.328125-36.449219-.066406-68.246094 24.730469-77.058594 60.097656-.5625 2.273438-.203125 4.675781 1.003906 6.683594s3.160157 3.453125 5.433594 4.015625c.699219.175781 1.421875.265625 2.144531.265625 4.046875-.003906 7.574219-2.761719 8.554688-6.691406 4.761718-18.914063 18.171875-34.46875 36.175781-41.964844 18.007813-7.492187 38.492187-6.046875 55.269531 3.902344h.0625l4.253906 2.445312c-3.648437 18.308594 7.804688 36.230469 25.953126 40.613281v10.082032c-.042969 34.109375-27.683594 61.75-61.792969 61.792968-5.886719.03125-11.742188-.820312-17.375-2.523437-3.042969-1.027344-6.40625-.316406-8.777344 1.855469-2.367187 2.167968-3.371094 5.453125-2.621094 8.578125.753907 3.125 3.144531 5.59375 6.246094 6.441406 7.304687 2.210937 14.894531 3.324219 22.527344 3.304687 29.785156-.039062 57.050781-16.738281 70.621093-43.257812 13.570313 26.519531 40.832032 43.21875 70.621094 43.257812 7.628906.019532 15.222656-1.09375 22.527344-3.304687 3.097656-.847656 5.488281-3.316406 6.242188-6.441406.753906-3.125-.25-6.410157-2.621094-8.578125-2.371094-2.171875-5.730469-2.882813-8.777344-1.855469-5.632812 1.703125-11.488281 2.554687-17.371094 2.523437-34.109375-.042968-61.75-27.683593-61.796875-61.792968v-10.082032c18.046875-4.433593 29.417969-22.269531 25.832031-40.5l4.261719-2.453124.144531-.089844c16.773438-9.972656 37.273438-11.429688 55.292969-3.9375 18.023438 7.492187 31.441407 23.058594 36.203125 41.984375.980469 3.929687 4.503906 6.6875 8.554688 6.691406.714844-.003906 1.429687-.089844 2.125-.265625 2.273437-.5625 4.230468-2.007812 5.433594-4.015625 1.207031-2.007813 1.570312-4.410156 1.003906-6.683594zm-147.675782-7.132812c-9.753906 0-17.65625-7.902344-17.65625-17.652344 0-9.753906 7.902344-17.65625 17.65625-17.65625 9.75 0 17.652344 7.902344 17.652344 17.65625 0 9.75-7.902344 17.652344-17.652344 17.652344zm0 0"/></g><path d="m300.144531 441.378906h-185.378906c-4.878906 0-8.828125 3.953125-8.828125 8.828125s3.949219 8.828125 8.828125 8.828125h185.378906c4.875 0 8.828125-3.953125 8.828125-8.828125s-3.953125-8.828125-8.828125-8.828125zm0 0" fill="#e2a539"/><path d="m344.28125 441.378906h-8.828125c-4.875 0-8.828125 3.953125-8.828125 8.828125s3.953125 8.828125 8.828125 8.828125h8.828125c4.875 0 8.828125-3.953125 8.828125-8.828125s-3.953125-8.828125-8.828125-8.828125zm0 0" fill="#e2a539"/></svg>