<?xml version="1.0" encoding="iso-8859-1"?>
<!-- Generator: Adobe Illustrator 21.0.0, SVG Export Plug-In . SVG Version: 6.00 Build 0)  -->
<svg xmlns="http://www.w3.org/2000/svg" xmlns:xlink="http://www.w3.org/1999/xlink" version="1.1" id="Capa_1" x="0px" y="0px" viewBox="0 0 512 512" style="enable-background:new 0 0 512 512;" xml:space="preserve" width="512" height="512">
<g>
	<g>
		<path style="fill:#EC6B59;" d="M469.895,270.438l-37.026-0.029l0.073-93.231l37.026,0.029    c14.959,0.012,27.077,12.148,27.065,27.108l-0.03,39.058C496.991,258.332,484.854,270.449,469.895,270.438z"/>
		<path style="fill:#BC4142;" d="M497.002,221.208c-0.012,14.959-12.148,27.077-27.107,27.065l-37.009-0.029l-0.017,22.163    l37.026,0.029c14.959,0.012,27.096-12.106,27.107-27.065l0.03-39.058c0-0.229-0.011-0.456-0.017-0.684L497.002,221.208z"/>
		<path style="fill:#EC6B59;" d="M330.321,381.418h17.786c31.653-40.591,149.097-7.238,113.51,126.73    c-0.602,2.265-2.645,3.852-4.988,3.852H221.8c-2.343,0-4.387-1.587-4.988-3.852C181.224,374.181,298.668,340.828,330.321,381.418z    "/>
		<path style="fill:#BC4142;" d="M375.388,366.182c37.981,6.971,79.452,52.706,55.922,145.818h-213.44l0,0h238.76    c2.346,0,4.387-1.591,4.989-3.858C490.106,400.892,420.517,358.143,375.388,366.182z"/>
		<g>
			<path style="fill:#3872B7;" d="M336.289,351.668c-69.882,0-70.536,52.254-51.465,77.024c3.344,4.343,10.001,4.038,13.121-0.469     c16.207-23.415,32.58-32.043,41.269-27.882c8.689-4.161,25.062,4.467,41.269,27.882c3.12,4.507,9.777,4.812,13.121,0.469     c19.071-24.77,18.417-77.024-51.465-77.024H336.289z"/>
		</g>
		<path style="fill:#F6BB93;" d="M339.214,412.139c12.961,0,36.658-16.413,36.658-36.658v-45.372h-73.317v45.372    C302.556,395.727,326.254,412.139,339.214,412.139z"/>
		<path style="fill:#E49775;" d="M302.556,364.973c22.78,5.254,48.778,6.686,73.317,4.301V330.11h-73.317V364.973z"/>
		<path style="fill:#F6BB93;" d="M213.228,254.992h40.965v-61.95h-40.965c-17.107,0-30.975,13.868-30.975,30.975v0    C182.253,241.124,196.121,254.992,213.228,254.992z"/>
		<path style="fill:#52668D;" d="M228.971,242.718c-7.639-33.068-18.927-77.142-24.016-98.641    c-32.719-28.408-39.488-88.452-19.704-131.132c2.852-6.152,10.711-7.989,15.974-3.712c13.003,10.565,38.652,20.584,86.6,2.997    c93.376-34.249,172.007,11.862,176.52,35.471c5.048,0,29.569,3.474,29.569,27.587c0,20.51-33.708,129.75-48.241,167.43H228.971z"/>
		<path style="fill:#243B5D;" d="M464.344,47.701C460.818,29.26,412.069-2.911,346.395,0.212    c51.394,2.656,88.178,30.734,91.084,47.489c4.581,0,26.832,3.474,26.832,27.587c0,20.51-30.587,129.75-43.775,167.43H228.971l0,0    h216.701c14.533-37.68,48.241-146.92,48.241-167.43C493.913,51.175,469.392,47.701,464.344,47.701z"/>
		<path style="fill:#F6BB93;" d="M223.698,284.486c0,81.579,231.032,81.579,231.032,0c0-46.745-6.252-125.891-19.873-156.657    c-3.234-7.304-10.266-14.799-16.022-18.239c-4.868-2.91-9.974-4.554-15.167-4.554c-5.809,0-11.478,1.86-17.168,4.554    c-14.745,6.967-29.62,19.473-47.286,19.473s-32.541-12.506-47.286-19.473c-5.69-2.694-11.359-4.554-17.168-4.554    c-5.193,0-10.299,1.644-15.167,4.554c-5.766,3.44-12.807,10.947-16.054,18.272C229.973,158.458,223.698,236.854,223.698,284.486z"/>
		<path style="fill:#E49775;" d="M434.857,127.828c-3.234-7.304-10.266-14.799-16.022-18.239c-4.868-2.91-9.974-4.554-15.167-4.554    c-3.831,0-7.6,0.82-11.356,2.143c1.444,0.666,2.872,1.463,4.276,2.411c5.099,3.44,11.33,10.935,14.195,18.239    c12.069,30.766,17.607,109.912,17.607,156.657c0,39.145-47.131,59.504-96.161,61.081c59.989,1.712,122.5-18.646,122.5-61.081    C454.73,237.74,448.478,158.595,434.857,127.828z"/>
		<g>
			<path style="fill:#243B5D;" d="M394.389,227.188c-4.268,0-7.726-3.459-7.726-7.726v-11.785c0-4.268,3.459-7.726,7.726-7.726     s7.726,3.459,7.726,7.726v11.785C402.116,223.729,398.657,227.188,394.389,227.188z"/>
			<path style="fill:#243B5D;" d="M284.039,227.188c-4.268,0-7.726-3.459-7.726-7.726v-11.785c0-4.268,3.459-7.726,7.726-7.726     s7.726,3.459,7.726,7.726v11.785C291.766,223.729,288.307,227.188,284.039,227.188z"/>
		</g>
		<path style="fill:#243B5D;" d="M303.58,192.875c-1.573,0-3.161-0.479-4.532-1.474c-7.795-5.656-20.964-5.656-28.759,0    c-3.456,2.503-8.285,1.737-10.792-1.715c-2.506-3.454-1.738-8.286,1.715-10.792c13.153-9.543,33.759-9.543,46.911,0    c3.454,2.506,4.221,7.338,1.715,10.792C308.328,191.769,305.971,192.874,303.58,192.875z"/>
		<path style="fill:#243B5D;" d="M409.378,192.875c-1.573,0-3.161-0.479-4.532-1.474c-7.795-5.656-20.964-5.656-28.759,0    c-3.455,2.503-8.285,1.737-10.792-1.715c-2.506-3.454-1.738-8.286,1.715-10.792c13.153-9.543,33.759-9.543,46.911,0    c3.454,2.506,4.221,7.338,1.715,10.792C414.126,191.769,411.769,192.874,409.378,192.875z"/>
		<path style="fill:#BC4142;" d="M242.311,512v-47.604c0-4.268,3.459-7.726,7.726-7.726c4.268,0,7.726,3.459,7.726,7.726V512    H242.311z M436.119,512v-47.604c0-4.268-3.459-7.726-7.726-7.726s-7.726,3.459-7.726,7.726V512H436.119z"/>
		<path style="fill:#A5353B;" d="M431.309,512h4.809v-23.947C435.005,495.659,433.423,503.635,431.309,512z"/>
		<path style="fill:#243B5D;" d="M339.214,288.972c-9.384,0-18.77-3.572-25.914-10.716c-3.017-3.018-3.017-7.909,0-10.928    c3.018-3.016,7.909-3.016,10.928,0c8.264,8.266,21.71,8.266,29.974,0c3.018-3.016,7.909-3.016,10.928,0    c3.017,3.018,3.017,7.909,0,10.928C357.984,285.399,348.599,288.972,339.214,288.972z"/>
		<path style="fill:#4FACDB;" d="M470.985,270.411l-0.011,14.965c-0.006,6.813-5.55,12.352-12.362,12.352h-0.01l-54.372-0.042    h-0.006c-4.265,0-7.723,3.456-7.726,7.72c-0.003,4.268,3.453,7.729,7.72,7.732l54.372,0.042h0.023    c15.325,0,27.802-12.464,27.814-27.793l0.012-16.411c0.001-1.275-0.312-2.475-0.858-3.535    C481.429,268.391,476.413,270.2,470.985,270.411z"/>
		<path style="fill:#52668D;" d="M390.818,285.64h-6.135c-10.904,0-19.777,8.872-19.777,19.777s8.872,19.777,19.777,19.777h6.135    c10.904,0,19.777-8.872,19.777-19.777S401.722,285.64,390.818,285.64z"/>
	</g>
	<g>
		<path style="fill:#52668D;" d="M14.967,272.775v151.596c0,10.784,8.742,19.526,19.526,19.526h219.319    c10.784,0,19.526-8.742,19.526-19.526V272.775c0-10.784-8.742-19.526-19.526-19.526H34.493    C23.709,253.25,14.967,261.992,14.967,272.775z"/>
		<path style="fill:#243B5D;" d="M253.813,253.249h-25.364c10.784,0,19.526,8.742,19.526,19.526v151.596    c0,10.784-8.742,19.526-19.526,19.526h25.364c10.784,0,19.526-8.742,19.526-19.526V272.776    C273.338,261.992,264.596,253.249,253.813,253.249z"/>
		<g>
			<path style="fill:#EBEEF2;" d="M186.263,354.206c0.244-1.844,0.383-3.721,0.383-5.632c0-1.911-0.139-3.788-0.383-5.633     l10.685-10.822c1.65-1.671,1.98-4.238,0.806-6.272l-7.119-12.331c-1.174-2.034-3.563-3.032-5.835-2.439l-14.715,3.843     c-2.967-2.29-6.243-4.198-9.759-5.647l-4.025-14.65c-0.622-2.265-2.681-3.834-5.029-3.834h-14.238     c-2.348,0-4.407,1.569-5.029,3.834l-4.025,14.65c-3.516,1.448-6.791,3.356-9.759,5.647l-14.715-3.843     c-2.272-0.593-4.661,0.405-5.835,2.439l-7.119,12.331c-1.174,2.034-0.844,4.601,0.806,6.272l10.685,10.822     c-0.245,1.844-0.383,3.721-0.383,5.633c0,1.911,0.139,3.788,0.383,5.632l-10.685,10.822c-1.65,1.671-1.98,4.239-0.806,6.272     l7.119,12.33c1.174,2.034,3.563,3.032,5.835,2.439l14.715-3.843c2.967,2.29,6.243,4.198,9.759,5.646l4.025,14.65     c0.622,2.264,2.681,3.833,5.029,3.833h14.238c2.348,0,4.407-1.569,5.029-3.833l4.025-14.65c3.516-1.448,6.792-3.356,9.759-5.646     l14.715,3.843c2.272,0.593,4.661-0.405,5.835-2.439l7.119-12.33c1.174-2.034,0.844-4.602-0.806-6.272L186.263,354.206z      M144.153,367.635c-10.527,0-19.061-8.534-19.061-19.061s8.534-19.061,19.061-19.061c10.527,0,19.061,8.534,19.061,19.061     S154.68,367.635,144.153,367.635z"/>
		</g>
		<path style="fill:#52668D;" d="M98.058,498.45v9.242c0,2.379,1.929,4.308,4.308,4.308h83.575c2.379,0,4.308-1.929,4.308-4.308    v-9.242c0-6.375-5.168-11.543-11.543-11.543h-69.103C103.226,486.907,98.058,492.075,98.058,498.45z"/>
		<path style="fill:#C2E8EF;" d="M130.022,435.497l-5.087,51.409h38.436l-5.087-51.409c-0.209-2.108-1.982-3.715-4.101-3.715    h-20.059C132.004,431.783,130.231,433.389,130.022,435.497z"/>
	</g>
</g>















</svg>
