<svg height="512pt" viewBox="0 0 512 512" width="512pt" xmlns="http://www.w3.org/2000/svg"><path d="m374.402344 122.929688c-11.542969 0-20.898438-9.351563-20.898438-20.894532v-60.246094h-195.101562v60.246094c0 11.542969-9.355469 20.894532-20.894532 20.894532-11.542968 0-20.894531-9.351563-20.894531-20.894532v-81.140625c0-11.539062 9.351563-20.894531 20.894531-20.894531h236.894532c11.539062 0 20.894531 9.355469 20.894531 20.894531v81.140625c0 11.542969-9.355469 20.894532-20.894531 20.894532zm0 0" fill="#5c5e70"/><path d="m132.949219 102.035156v-81.140625c0-11.539062 9.355469-20.894531 20.894531-20.894531h-16.339844c-11.539062 0-20.894531 9.355469-20.894531 20.894531v81.140625c0 11.542969 9.355469 20.894532 20.894531 20.894532 2.902344 0 5.660156-.589844 8.171875-1.65625-7.480469-3.179688-12.726562-10.59375-12.726562-19.238282zm0 0" fill="#3b3d4c"/><path d="m369.84375 102.035156v-60.246094h-16.339844v60.246094c0 11.542969 9.355469 20.894532 20.894532 20.894532 2.898437 0 5.660156-.589844 8.167968-1.65625-7.476562-3.179688-12.722656-10.59375-12.722656-19.238282zm0 0" fill="#3b3d4c"/><path d="m481.621094 224.132812v240.457032c0 26.179687-21.230469 47.410156-47.410156 47.410156h-356.515626c-26.183593 0-47.398437-21.230469-47.398437-47.410156v-240.457032zm0 0" fill="#f99041"/><path d="m481.621094 271.785156v192.804688c0 26.179687-21.230469 47.410156-47.410156 47.410156h-323.835938c-26.183594 0-47.410156-21.230469-47.410156-47.410156v-192.804688zm0 0" fill="#fbd25f"/><path d="m481.621094 113.863281v38.769531h-451.324219v-38.769531c0-18.074219 14.644531-32.722656 32.707031-32.722656h385.894532c18.074218 0 32.722656 14.648437 32.722656 32.722656zm0 0" fill="#f99041"/><path d="m481.621094 113.863281v38.769531h-414.164063v-38.769531c0-18.074219 14.644531-32.722656 32.710938-32.722656h348.730469c18.074218 0 32.722656 14.648437 32.722656 32.722656zm0 0" fill="#fbd25f"/><path d="m511.917969 210.488281v11.066407c0 12.074218-9.789063 21.863281-21.867188 21.863281h-468.195312c-12.078125 0-21.855469-9.789063-21.855469-21.863281v-10.929688c0-12.078125 9.777344-21.855469 21.855469-21.855469h468.195312c12.035157 0 21.792969 9.707031 21.867188 21.71875zm0 0" fill="#3b3d4c"/><path d="m511.917969 155.976562v10.925782c0 12.078125-9.789063 21.867187-21.867188 21.867187h-468.195312c-12.078125 0-21.855469-9.789062-21.855469-21.867187v-10.925782c0-12.066406 9.777344-21.855468 21.855469-21.855468h468.195312c12.078125 0 21.867188 9.789062 21.867188 21.855468zm0 0" fill="#3b3d4c"/><path d="m511.917969 155.976562v1.734376c0 12.074218-9.789063 21.863281-21.867188 21.863281h-421.570312c-12.074219 0-21.863281-9.789063-21.863281-21.863281v-10.929688c0-4.710938 1.492187-9.089844 4.042968-12.660156h439.390625c12.078125 0 21.867188 9.789062 21.867188 21.855468zm0 0" fill="#5c5e70"/><path d="m511.917969 210.488281c-.074219 12.015625-9.832031 21.730469-21.867188 21.730469h-421.570312c-12.074219 0-21.863281-9.789062-21.863281-21.863281v-10.929688c0-3.875 1-7.511719 2.765624-10.65625h440.667969c12.035157 0 21.792969 9.707031 21.867188 21.71875zm0 0" fill="#5c5e70"/><path d="m183.171875 188.769531v91.9375c0 13.871094-11.25 25.113281-25.113281 25.113281h-50.523438c-13.875 0-25.117187-11.242187-25.117187-25.113281v-91.9375zm0 0" fill="#e6e6e6"/><path d="m118.496094 290.148438c-11.25 0-20.402344-9.152344-20.402344-20.402344v-28.597656c0-11.25 9.152344-20.402344 20.402344-20.402344h28.597656c11.25 0 20.402344 9.152344 20.402344 20.402344v28.597656c0 11.25-9.152344 20.402344-20.402344 20.402344zm0 0" fill="#ccc"/><path d="m108.539062 269.746094v-28.597656c0-5.5 4.457032-9.957032 9.957032-9.957032h28.597656c5.496094 0 9.957031 4.457032 9.957031 9.957032v28.597656c0 5.5-4.460937 9.957031-9.957031 9.957031h-28.597656c-5.5 0-9.957032-4.457031-9.957032-9.957031zm0 0" fill="#5c5e70"/><path d="m429.488281 188.769531v91.9375c0 13.871094-11.242187 25.113281-25.113281 25.113281h-50.523438c-13.863281 0-25.105468-11.242187-25.105468-25.113281v-91.9375zm0 0" fill="#e6e6e6"/><path d="m364.816406 290.148438c-11.253906 0-20.40625-9.152344-20.40625-20.402344v-28.597656c0-11.25 9.15625-20.402344 20.40625-20.402344h28.597656c11.25 0 20.402344 9.152344 20.402344 20.402344v28.597656c0 11.25-9.152344 20.402344-20.402344 20.402344zm0 0" fill="#ccc"/><path d="m354.859375 269.746094v-28.597656c0-5.5 4.457031-9.957032 9.957031-9.957032h28.597656c5.496094 0 9.957032 4.457032 9.957032 9.957032v28.597656c0 5.5-4.460938 9.957031-9.957032 9.957031h-28.597656c-5.5 0-9.957031-4.457031-9.957031-9.957031zm0 0" fill="#5c5e70"/><path d="m223.394531 384.125h65.125c9.082031-18.773438 28.3125-31.722656 50.566407-31.722656 22.257812 0 41.484374 12.949218 50.5625 31.722656h-34.40625c-10.269532 0-18.597657 8.328125-18.597657 18.597656v11.621094c0 10.269531 8.328125 18.59375 18.597657 18.59375h34.410156c-9.078125 18.773438-28.308594 31.730469-50.566406 31.730469-22.253907 0-41.484376-12.953125-50.566407-31.726563h-65.125c-9.085937 18.777344-28.3125 31.726563-50.566406 31.726563-22.257813 0-41.484375-12.949219-50.5625-31.726563h34.40625c10.269531 0 18.59375-8.324218 18.59375-18.59375v-11.621094c0-10.269531-8.324219-18.59375-18.59375-18.59375h-34.410156c9.078125-18.777343 28.308593-31.730468 50.566406-31.730468 22.253906 0 41.484375 12.953125 50.566406 31.722656zm0 0" fill="#5c5e70"/><g fill="#ccc"><path d="m82.417969 188.769531h100.753906v12.265625h-100.753906zm0 0"/><path d="m328.746094 188.769531h100.742187v12.265625h-100.742187zm0 0"/></g></svg>