<svg height="512pt" viewBox="0 0 512 512.00104" width="512pt" xmlns="http://www.w3.org/2000/svg"><path d="m494.304688 152.429688v359.570312h-476.820313v-359.570312l122.914063-78.585938 115.492187-73.84375 115.5 73.84375zm0 0" fill="#e6e6e6"/><path d="m46.308594 170.925781h419.164062v341.074219h-419.164062zm0 0" fill="#fbd25f"/><path d="m494.304688 152.429688v23.738281l-238.414063-103.421875-238.40625 103.421875v-23.738281l122.914063-78.585938 115.492187-50.105469 115.5 50.105469zm0 0" fill="#ccc"/><path d="m0 160.015625 255.890625-111.007813 255.886719 111.007813v-49.007813l-255.886719-111.007812-255.890625 111.007812zm0 0" fill="#8aced8"/><path d="m119.5625 130.074219h272.65625v53.105469h-272.65625zm0 0" fill="#fff"/><g fill="#f4514a"><path d="m185.28125 130.074219h-39.59375l20.898438 53.105469h39.59375zm0 0"/><path d="m264.46875 130.074219h-39.59375l20.898438 53.105469h39.59375zm0 0"/><path d="m343.660156 130.074219h-39.597656l20.902344 53.105469h39.59375zm0 0"/></g><path d="m380.042969 334.011719c-1.042969 0-2.101563-.289063-3.046875-.894531-2.636719-1.6875-3.410156-5.191407-1.722656-7.832032l25.535156-39.964844c1.6875-2.636718 5.191406-3.410156 7.832031-1.722656 2.636719 1.683594 3.410156 5.191406 1.722656 7.828125l-25.535156 39.964844c-1.082031 1.695313-2.914063 2.621094-4.785156 2.621094zm0 0" fill="#e6e6e6"/><path d="m130.65625 331.972656c-1.871094 0-3.699219-.921875-4.78125-2.617187l-22.933594-35.890625c-1.6875-2.640625-.917968-6.148438 1.722656-7.832032 2.640626-1.6875 6.144532-.914062 7.832032 1.722657l22.933594 35.894531c1.6875 2.636719.914062 6.144531-1.722657 7.832031-.949219.601563-2.003906.890625-3.050781.890625zm0 0" fill="#e6e6e6"/><path d="m388.0625 326.328125h-264.117188l12.671876-81.4375c3.003906-19.265625 16.042968-33.117187 31.179687-33.117187h176.402344c15.144531 0 28.1875 13.851562 31.179687 33.117187zm0 0" fill="#c1dce0"/><path d="m388.0625 326.328125h-245.394531l12.671875-81.4375c3-19.265625 16.042968-33.117187 31.179687-33.117187h157.679688c15.144531 0 28.1875 13.851562 31.183593 33.117187zm0 0" fill="#d4eff4"/><path d="m388.058594 326.328125h-17.730469l-12.679687-81.4375c-2.996094-19.265625-16.035157-33.117187-31.179688-33.117187h17.730469c15.144531 0 28.183593 13.851562 31.179687 33.117187zm0 0" fill="#f0fdff"/><path d="m376.769531 253.800781c-6.121093-11.480469-16.324219-18.796875-27.628906-18.796875h-186.28125c-11.304687 0-21.507813 7.316406-27.625 18.796875l1.382813-8.914062c3-19.261719 16.039062-33.113281 31.183593-33.113281h176.398438c15.144531 0 28.183593 13.851562 31.183593 33.113281zm0 0" fill="#4799cf"/><path d="m186.519531 211.773438c-12.542969 0-23.648437 9.511718-28.792969 23.742187-9.222656 1.84375-17.320312 8.574219-22.492187 18.289063l1.382813-8.914063c2.996093-19.265625 16.039062-33.117187 31.179687-33.117187zm0 0" fill="#2077a8"/><path d="m162.046875 459.933594v42.339844c0 5.296874-4.300781 9.585937-9.585937 9.585937h-38.8125c-5.296876 0-9.589844-4.289063-9.589844-9.585937v-42.339844zm0 0" fill="#3b3d4c"/><path d="m433.320312 395.097656-6.472656 44.546875h-341.6875l-6.480468-44.546875c-.4375-3.011718-.648438-6.003906-.648438-8.960937 0-16.105469 6.28125-31.25 16.953125-42.539063 2.832031-3 5.972656-5.722656 9.390625-8.128906 5.789062-4.074219 12.375-7.210938 19.574219-9.140625h264.113281c7.191406 1.929687 13.777344 5.066406 19.566406 9.140625 3.417969 2.398438 6.5625 5.128906 9.390625 8.128906 12.628907 13.367188 19.121094 32.136719 16.300781 51.5zm0 0" fill="#4799cf"/><path d="m162.046875 483.285156v18.988282c0 5.296874-4.300781 9.585937-9.585937 9.585937h-23.398438c-5.285156 0-9.578125-4.289063-9.578125-9.585937v-18.988282zm0 0" fill="#5c5e70"/><path d="m418.082031 459.933594v42.339844c0 5.296874-4.296875 9.585937-9.585937 9.585937h-38.8125c-5.296875 0-9.589844-4.289063-9.589844-9.585937v-42.339844zm0 0" fill="#3b3d4c"/><path d="m418.082031 483.285156v18.988282c0 5.296874-4.296875 9.585937-9.585937 9.585937h-23.394532c-5.289062 0-9.582031-4.289063-9.582031-9.585937v-18.988282zm0 0" fill="#5c5e70"/><path d="m327.324219 439.644531c1.582031-8.824219 2.207031-17.648437 1.875-26.46875-.554688-14.695312-12.539063-26.417969-27.238281-26.886719-30.636719-.980468-61.277344-.980468-91.917969 0-14.699219.46875-26.683594 12.191407-27.234375 26.886719-.332032 8.824219.289062 17.644531 1.867187 26.46875" fill="#2077a8"/><path d="m126.402344 439.644531h-41.242188l-6.480468-44.550781c-.4375-3.007812-.648438-6-.648438-8.957031 0-27.636719 18.515625-52.453125 45.914062-59.808594h35.515626c-22.246094 12.5-48.746094 56.988281-33.058594 113.316406zm0 0" fill="#2077a8"/><path d="m417.019531 343.597656-1.925781.925782c-32.792969 15.664062-93.753906 25.394531-159.089844 25.394531-65.347656 0-126.308594-9.730469-159.101562-25.394531l-1.917969-.925782c2.832031-3 5.972656-5.722656 9.390625-8.125 31.941406 14.289063 89.570312 23.105469 151.628906 23.105469 62.046875 0 119.667969-8.816406 151.625-23.105469 3.417969 2.394532 6.5625 5.125 9.390625 8.125zm0 0" fill="#2077a8"/><path d="m184.667969 445.316406c-2.695313 0-5.085938-1.929687-5.574219-4.675781-1.640625-9.179687-2.300781-18.492187-1.953125-27.675781.660156-17.570313 15.03125-31.78125 32.722656-32.34375 30.617188-.980469 61.664063-.980469 92.28125 0 17.6875.5625 32.058594 14.773437 32.71875 32.339844.347657 9.1875-.3125 18.5-1.957031 27.683593-.550781 3.082031-3.496094 5.132813-6.582031 4.582031-3.082031-.554687-5.132813-3.5-4.582031-6.582031 1.503906-8.382812 2.105468-16.878906 1.789062-25.253906-.4375-11.644531-9.992188-21.058594-21.75-21.433594-30.378906-.972656-61.179688-.972656-91.558594 0-11.757812.375-21.3125 9.789063-21.75 21.433594-.3125 8.375.285156 16.871094 1.785156 25.253906.550782 3.085938-1.503906 6.03125-4.585937 6.582031-.335937.058594-.671875.089844-1.003906.089844zm0 0" fill="#ccc"/><path d="m407.289062 395.320312c0 10.230469-6.660156 18.894532-15.886718 21.898438-2.246094.738281-4.648438 1.132812-7.144532 1.132812-12.71875 0-23.03125-10.304687-23.03125-23.03125 0-12.71875 10.3125-23.03125 23.03125-23.03125 2.496094 0 4.898438.394532 7.144532 1.132813 9.226562 3.003906 15.886718 11.675781 15.886718 21.898437zm0 0" fill="#f99041"/><path d="m150.773438 395.320312c0 10.230469-6.664063 18.894532-15.886719 21.898438-2.246094.738281-4.648438 1.132812-7.144531 1.132812-12.71875 0-23.03125-10.304687-23.03125-23.03125 0-12.71875 10.3125-23.03125 23.03125-23.03125 2.496093 0 4.898437.394532 7.144531 1.132813 9.222656 3.003906 15.886719 11.675781 15.886719 21.898437zm0 0" fill="#f99041"/><path d="m407.289062 395.320312c0 10.230469-6.660156 18.894532-15.886718 21.898438-9.222656-3.003906-15.886719-11.667969-15.886719-21.898438 0-10.222656 6.664063-18.894531 15.886719-21.894531 9.226562 3 15.886718 11.671875 15.886718 21.894531zm0 0" fill="#fbd25f"/><path d="m150.773438 395.320312c0 10.230469-6.664063 18.894532-15.886719 21.898438-9.226563-3.003906-15.894531-11.667969-15.894531-21.898438 0-10.222656 6.667968-18.894531 15.894531-21.894531 9.222656 3 15.886719 11.671875 15.886719 21.894531zm0 0" fill="#fbd25f"/><path d="m384.261719 424.027344c-15.828125 0-28.703125-12.878906-28.703125-28.703125 0-15.828125 12.875-28.703125 28.703125-28.703125 15.824219 0 28.699219 12.875 28.699219 28.703125 0 15.824219-12.875 28.703125-28.699219 28.703125zm0-46.066406c-9.574219 0-17.363281 7.789062-17.363281 17.363281 0 9.570312 7.789062 17.359375 17.363281 17.359375 9.570312 0 17.359375-7.785156 17.359375-17.359375s-7.789063-17.363281-17.359375-17.363281zm0 0" fill="#e6e6e6"/><path d="m127.742188 424.027344c-15.824219 0-28.703126-12.878906-28.703126-28.703125 0-15.828125 12.875-28.703125 28.703126-28.703125 15.828124 0 28.703124 12.875 28.703124 28.703125 0 15.824219-12.878906 28.703125-28.703124 28.703125zm0-46.066406c-9.574219 0-17.359376 7.789062-17.359376 17.363281 0 9.570312 7.785157 17.359375 17.359376 17.359375 9.574218 0 17.359374-7.785156 17.359374-17.359375s-7.785156-17.363281-17.359374-17.363281zm0 0" fill="#e6e6e6"/><path d="m102.109375 279.019531h-20.554687c-5.960938 0-10.792969 4.832031-10.792969 10.792969v8.714844c0 5.960937 4.832031 10.792968 10.792969 10.792968h20.554687c5.960937 0 10.792969-4.835937 10.792969-10.792968v-8.714844c0-5.960938-4.832032-10.792969-10.792969-10.792969zm0 0" fill="#4799cf"/><path d="m409.890625 279.019531h20.558594c5.960937 0 10.792969 4.832031 10.792969 10.792969v8.714844c0 5.960937-4.832032 10.792968-10.792969 10.792968h-20.558594c-5.960937 0-10.792969-4.835937-10.792969-10.792968v-8.714844c0-5.960938 4.832032-10.792969 10.792969-10.792969zm0 0" fill="#4799cf"/><path d="m441.242188 454.039062v3.417969c0 7.945313-6.449219 14.394531-14.394532 14.394531h-341.6875c-7.953125 0-14.394531-6.449218-14.394531-14.394531v-3.417969c0-7.949218 6.441406-14.398437 14.394531-14.398437h341.6875c7.945313 0 14.394532 6.449219 14.394532 14.398437zm0 0" fill="#ccc"/><path d="m441.242188 454.039062v3.417969c0 7.945313-6.449219 14.394531-14.394532 14.394531h-294.394531c-7.953125 0-14.394531-6.449218-14.394531-14.394531v-3.417969c0-7.949218 6.441406-14.398437 14.394531-14.398437h294.394531c7.945313 0 14.394532 6.449219 14.394532 14.398437zm0 0" fill="#e6e6e6"/><path d="m504.164062 512h-496.328124c-4.328126 0-7.835938-3.511719-7.835938-7.835938 0-4.328124 3.507812-7.839843 7.835938-7.839843h496.328124c4.328126 0 7.835938 3.511719 7.835938 7.839843 0 4.324219-3.507812 7.835938-7.835938 7.835938zm0 0" fill="#3b3d4c"/></svg>