<svg height="512pt" viewBox="0 -54 512 512" width="512pt" xmlns="http://www.w3.org/2000/svg"><path d="m196.449219 31.234375h57.191406v113.699219h-57.191406zm0 0" fill="#f99041"/><path d="m219.582031 74.808594h34.058594v70.125h-34.058594zm0 0" fill="#fbd25f"/><path d="m286.175781 18.933594v15.152344c0 10.457031-8.484375 18.933593-18.933593 18.933593h-84.386719c-10.460938 0-18.933594-8.476562-18.933594-18.933593v-15.152344c0-10.460938 8.472656-18.933594 18.933594-18.933594h84.386719c10.449218 0 18.933593 8.472656 18.933593 18.933594zm0 0" fill="#f99041"/><path d="m286.175781 18.933594v15.152344c0 10.457031-8.484375 18.933593-18.933593 18.933593h-51.859376c-10.460937 0-18.933593-8.476562-18.933593-18.933593v-15.152344c0-10.460938 8.472656-18.933594 18.933593-18.933594h51.859376c10.449218 0 18.933593 8.472656 18.933593 18.933594zm0 0" fill="#fbd25f"/><path d="m342.835938 151.4375v37.722656h-235.574219v-37.722656c0-15.628906 12.664062-28.292969 28.285156-28.292969h179c15.625 0 28.289063 12.664063 28.289063 28.292969zm0 0" fill="#3b3d4c"/><path d="m342.835938 151.4375v37.722656h-185.1875v-37.722656c0-15.628906 12.664062-28.292969 28.285156-28.292969h128.613281c15.625 0 28.289063 12.664063 28.289063 28.292969zm0 0" fill="#5c5e70"/><path d="m137.375 403.652344h171.046875c36.183594 0 69.339844-20.207032 85.921875-52.363282l117.65625-228.140624-24.671875-24.671876-117.265625 60.074219h-291.398438v186.390625c0 32.425782 26.289063 58.710938 58.710938 58.710938zm0 0" fill="#fbd25f"/><path d="m176.183594 403.65625h-38.804688c-32.425781 0-58.714844-26.289062-58.714844-58.710938v-186.390624h38.808594v186.390624c0 32.421876 26.289063 58.710938 58.710938 58.710938zm0 0" fill="#f99041"/><path d="m86.503906 308.683594c-47.699218 0-86.503906-38.804688-86.503906-86.503906v-120.976563c0-26.007813 21.160156-47.167969 47.167969-47.167969 26.011719 0 47.171875 21.160156 47.171875 47.167969v57.351563l5.773437 22.535156-5.773437 119.757812c0 4.328125-3.507813 7.835938-7.835938 7.835938zm-39.335937-238.972656c-17.367188 0-31.496094 14.125-31.496094 31.492187v120.976563c0 36.40625 27.613281 66.488281 62.996094 70.398437v-191.371094c0-17.371093-14.132813-31.496093-31.5-31.496093zm0 0" fill="#f99041"/><path d="m193.644531 300.546875c0 1.019531.015625 2.035156.046875 3.046875 1.503906 50.441406 77.574219 50.441406 79.078125 0 .03125-1.011719.046875-2.027344.046875-3.046875 0-32.582031-15.535156-61.527344-39.585937-79.871094-24.050781 18.34375-39.585938 47.289063-39.585938 79.871094zm0 0" fill="#5c5e70"/></svg>